<svg id="Layer_1" xmlns="http://www.w3.org/2000/svg" viewBox="0 0 861.15 70.98">
    <defs>
        <style>
            .cls-1 {
                fill: #fa0a32;
            }

            .cls-2 {
                fill: #fff;
            }
        </style>
    </defs>
    <g>
        <path class="cls-1"
            d="M636.82,.08l-312.81-.08c-.18,0-.28,.2-.18,.34l41.28,60.05c4.52,6.58,11.99,10.51,19.97,10.51l264.9,.08V13.25c0-7.27-5.89-13.16-13.16-13.16Z">
        </path>
        <g class="cls-2">
            <path
                d="M140.39,6.73c-22.3,0-40.45,12.89-40.45,28.72s18.14,28.72,40.45,28.72,40.45-12.88,40.45-28.72-18.14-28.72-40.45-28.72m21.21,28.72c0,8.01-9.52,14.53-21.21,14.53s-21.21-6.52-21.21-14.53,9.52-14.53,21.21-14.53,21.21,6.52,21.21,14.53">
            </path>
            <path
                d="M89.63,8.68l-.82,46.52c0,4.37-3.76,7.01-11.31,7.01-1.12,0-2.22-.14-3.3-.34-1.16-.1-2.38-.37-3.64-.78-.13-.03-.25-.06-.38-.08l-.02-.06c-2.59-.9-5.27-2.39-7.69-4.34L29.9,30.51c-3.3-2.65-7.14-2.67-7.07-.04l.73,26.51c.08,3.08-2.07,4.96-5.69,4.96H0L.82,15.41c0-4.37,3.78-6.55,11.32-6.55s14.31,2.18,19.94,6.55l33.31,26.41c.87-.25,1.42-.88,1.4-1.9l-.71-25.58c-.1-3.52,2.36-5.65,6.49-5.65h17.05Z">
            </path>
            <path
                d="M270.55,9.28l-30.83,46.52c-2.81,4.37-8,6.55-15.55,6.55s-12.89-2.18-15.71-6.55l-30.82-46.52h17.68c3.83,0,7.37,2.01,9.35,5.28l15.59,25.91c1.65,2.75,5.63,2.77,7.32,.04l15.79-25.58c2.17-3.52,6.01-5.65,10.14-5.65h17.05Zm45.63,5.81c-2.82-4.37-8.05-6.55-15.72-6.55s-12.74,2.18-15.55,6.55l-30.84,46.53h17.88c3.62,0,6.98-1.88,8.89-4.96l16.37-26.51c1.62-2.63,5.45-2.6,7.04,.04l5.35,8.9h-7.91c-1.8,.01-3.47,.95-4.44,2.47l-6.84,10.81,27.2,.05,2.34,3.89c1.98,3.29,5.54,5.3,9.38,5.3h17.65l-30.82-46.53Z">
            </path>
        </g>
        <g>
            <path class="cls-2"
                d="M384.3,45.28c3.04,3.24,7.81,6.09,13.97,6.09s8.87-3.11,8.87-6.02c0-3.97-4.7-5.16-10.06-6.55-7.22-1.79-15.69-3.91-15.69-13.24,0-7.28,6.42-12.91,16.09-12.91,6.88,0,12.45,2.18,16.55,6.16l-4.44,5.76c-3.44-3.44-8.14-5.03-12.78-5.03s-7.48,2.18-7.48,5.49,4.5,4.57,9.73,5.89c7.28,1.85,15.95,4.1,15.95,13.7,0,7.35-5.16,13.64-17.08,13.64-8.14,0-14.03-2.85-17.94-7.02l4.3-5.96Z">
            </path>
            <path class="cls-2"
                d="M424.81,13.3h19.4c9.27,0,14.43,6.36,14.43,13.84s-5.23,13.84-14.43,13.84h-11.65v16.48h-7.75V13.3Zm18.34,6.82h-10.59v14.03h10.59c4.37,0,7.55-2.78,7.55-7.02s-3.18-7.02-7.55-7.02Z">
            </path>
            <path class="cls-2"
                d="M485.65,12.57c13.24,0,22.57,9.66,22.57,22.84s-9.33,22.84-22.57,22.84-22.57-9.66-22.57-22.84,9.33-22.84,22.57-22.84Zm0,6.88c-8.94,0-14.63,6.82-14.63,15.95s5.69,15.95,14.63,15.95,14.63-6.88,14.63-15.95-5.76-15.95-14.63-15.95Z">
            </path>
            <path class="cls-2"
                d="M531.13,40.97h-7.68v16.48h-7.75V13.3h19.4c8.74,0,14.43,5.69,14.43,13.84s-5.16,12.11-10.46,12.98l10.79,17.34h-8.94l-9.8-16.48Zm2.91-20.85h-10.59v14.03h10.59c4.37,0,7.55-2.78,7.55-7.02s-3.18-7.02-7.55-7.02Z">
            </path>
            <path class="cls-2" d="M569.12,20.12h-13.37v-6.82h34.49v6.82h-13.37V57.46h-7.75V20.12Z"></path>
            <path class="cls-2"
                d="M598.78,45.28c3.04,3.24,7.81,6.09,13.97,6.09s8.87-3.11,8.87-6.02c0-3.97-4.7-5.16-10.06-6.55-7.22-1.79-15.69-3.91-15.69-13.24,0-7.28,6.42-12.91,16.09-12.91,6.88,0,12.45,2.18,16.55,6.16l-4.44,5.76c-3.44-3.44-8.14-5.03-12.78-5.03s-7.48,2.18-7.48,5.49,4.5,4.57,9.73,5.89c7.28,1.85,15.95,4.1,15.95,13.7,0,7.35-5.16,13.64-17.08,13.64-8.14,0-14.03-2.85-17.94-7.02l4.3-5.96Z">
            </path>
        </g>
    </g>
    <g class="cls-2">
        <path d="M667.74,53.18V17.03h24.31v6.61h-16.99v7.86h16.63v6.61h-16.63v8.4h16.99v6.67h-24.31Z"></path>
        <path
            d="M720.16,53.18l-8.6-13.22-8.65,13.22h-8.7l12.46-18.54-11.69-17.62h8.7l7.88,12.36,7.78-12.36h8.81l-11.69,17.56,12.46,18.59h-8.75Z">
        </path>
        <path d="M740.09,53.18V23.8h-10.04v-6.78h27.4v6.78h-9.99v29.38h-7.36Z"></path>
        <path
            d="M780.51,53.18l-6.75-12.95h-5.36v12.95h-7.31V17.03h16.07c7.16,0,11.54,4.93,11.54,11.65s-3.81,9.81-7.52,10.73l7.72,13.77h-8.39Zm-4.43-29.54h-7.67v9.97h7.67c2.94,0,5.15-1.95,5.15-4.99s-2.21-4.99-5.15-4.99Z">
        </path>
        <path
            d="M818.26,53.18l-2.16-6.23h-15.35l-2.16,6.23h-8.03l13.29-36.15h9.17l13.23,36.15h-7.98Zm-9.84-29.48l-5.72,16.58h11.38l-5.67-16.58Z">
        </path>
        <path
            d="M837.87,42.99c2.37,2.6,6.13,4.12,9.48,4.12,4.17,0,6.49-1.9,6.49-4.66,0-2.93-2.11-4.28-6.9-4.28-1.44,0-3.76,0-4.27,.05v-6.72c.62,.05,2.94,.05,4.27,.05,3.81,0,6.33-1.3,6.33-4.01,0-2.87-2.78-4.34-6.39-4.34-3.35,0-6.33,1.35-8.75,3.79l-3.61-4.77c2.78-3.31,7.11-5.74,13.13-5.74,8.03,0,12.98,3.79,12.98,9.81,0,4.55-3.71,7.53-7.52,8.24,3.5,.38,8.03,3.25,8.03,8.67,0,6.23-5.3,10.62-13.54,10.62-6.33,0-11.02-2.55-13.54-5.8l3.81-5.04Z">
        </path>
    </g>
</svg>