<svg version="1.1" id="Layer_1" xmlns="http://www.w3.org/2000/svg" xmlns:xlink="http://www.w3.org/1999/xlink" x="0px" y="0px" viewBox="0 0 251.9 22" style="enable-background:new 0 0 251.9 22;" xml:space="preserve">
<style type="text/css">
	.st0{fill:#FA0A32;}
	.st1{fill:#FFFFFF;}
</style>
<g>
	<path class="st0" d="M197.9,0h-97.1c0,0-0.2,0,0,0.2l12.8,18.6c1.3,2,3.7,3.2,6.2,3.2h82.3V4C202.1,1.8,200.3,0,197.9,0z"></path>
	<g>
		<path d="M43.8,2c-6.9,0-12.6,4-12.6,8.9s5.5,8.9,12.6,8.9s12.6-4,12.6-8.9S50.6,2,43.8,2 M50.3,11.1c0,2.5-3,4.5-6.5,4.5
			s-6.5-2-6.5-4.5s3-4.5,6.5-4.5C47.3,6.5,50.3,8.6,50.3,11.1"></path>
		<path d="M28,2.7l-0.2,14.4c0,1.3-1.2,2.2-3.5,2.2c-0.3,0-0.7,0-1-0.2c-0.3,0-0.7-0.2-1.2-0.2h-0.2l0,0c-0.8-0.3-1.7-0.7-2.4-1.3
			L9.5,9.6c-1.2-0.8-2.4-1-2.4-0.2l0.2,8.2c0,1-0.7,1.5-1.8,1.5H0.1L0.3,4.7c0-1.3,1.2-2,3.5-2C6.3,2.9,8.3,3.5,10,4.9l10.4,8.2
			c0.3,0,0.5-0.3,0.5-0.7l-0.2-7.9c0-1,0.7-1.8,2-1.8C22.8,2.7,28,2.7,28,2.7z"></path>
		<path d="M84.2,2.9l-9.6,14.4c-0.8,1.3-2.5,2-4.9,2c-2.4,0-4-0.7-4.9-2L55.4,2.9h5.5c1.2,0,2.4,0.7,2.9,1.7l4.9,8.1
			c0.5,0.8,1.7,0.8,2.4,0l4.9-7.9c0.7-1,1.8-1.8,3.2-1.8L84.2,2.9L84.2,2.9z M98.3,4.7c-0.8-1.3-2.5-2-4.9-2c-2.4,0-4,0.7-4.9,2
			L79,19.1h5.5c1.2,0,2.2-0.7,2.7-1.5l5-8.2c0.5-0.8,1.7-0.8,2.2,0l1.7,2.7h-2.5c-0.5,0-1,0.3-1.3,0.8l-2.2,3.4h8.4l0.7,1.2
			c0.7,1,1.7,1.7,2.9,1.7h5.4L98.3,4.7z"></path>
	</g>
	<g>
		<g>
			<path d="M209.2,9.1v7.4h-2.4V5.5h2.4l5,7.1V5.5h2.4v11.1h-2.4L209.2,9.1z"></path>
			<path d="M218.4,5.5h7.7v2h-5.4v2.4h5.4v2h-5.4v2.5h5.4v2h-7.7V5.5z"></path>
			<path d="M235,8.9l-1.8,7.6h-2.5l-3.2-11.1h2.7l1.8,7.9l2-7.9h1.8l2,7.9l1.8-7.9h2.7l-3.2,11.1h-2.5L235,8.9z"></path>
			<path d="M244.1,13.1c0.8,0.8,2,1.5,3.5,1.5c1.3,0,1.8-0.7,1.8-1.2c0-0.8-1-1.2-2.2-1.3c-1.8-0.3-4-0.8-4-3.4
				c0-1.8,1.5-3.4,4.2-3.4c1.7,0,3.2,0.5,4.4,1.5l-1.3,1.7c-0.8-0.8-2-1.2-3.2-1.2s-1.7,0.5-1.7,1.2s1,1,2.2,1.3
				c1.8,0.3,4.2,1,4.2,3.4c0,2-1.5,3.5-4.4,3.5c-2.2,0-3.7-0.7-4.7-1.7L244.1,13.1z"></path>
		</g>
	</g>
	<g>
		<g>
			<path class="st1" d="M119.5,14.1c1,1,2.4,1.8,4.4,1.8c2,0,2.7-1,2.7-1.8c0-1.2-1.5-1.7-3.2-2c-2.2-0.5-4.9-1.2-4.9-4
				c0-2.4,2-4,5-4c2.2,0,3.9,0.7,5.2,1.8l-1.3,1.8c-1-1-2.5-1.5-4-1.5S121,6.9,121,7.9s1.3,1.5,3,1.8c2.4,0.7,5,1.3,5,4.2
				c0,2.4-1.7,4.2-5.4,4.2c-2.5,0-4.4-0.8-5.5-2.2L119.5,14.1z"></path>
			<path class="st1" d="M132.1,4.2h6c2.9,0,4.5,1.8,4.5,4.2s-1.7,4.4-4.5,4.4h-3.7V18h-2.4V4.2L132.1,4.2z M137.8,6.2h-3.4v4.4h3.4
				c1.3,0,2.4-0.8,2.4-2.2S139.2,6.2,137.8,6.2z"></path>
			<path class="st1" d="M151.1,3.9c4,0,7.1,3,7.1,7.1s-2.9,7.1-7.1,7.1s-7.1-2.9-7.1-6.9C144,6.9,146.9,3.9,151.1,3.9z M151.1,6
				c-2.7,0-4.5,2.2-4.5,5s1.8,5,4.5,5s4.5-2.2,4.5-5S153.8,6,151.1,6z"></path>
			<path class="st1" d="M165.2,12.8h-2.4V18h-2.4V4.2h6c2.7,0,4.5,1.8,4.5,4.4s-1.7,3.7-3.2,4l3.4,5.4h-2.7L165.2,12.8z M166,6.2
				h-3.4v4.4h3.4c1.3,0,2.4-0.8,2.4-2.2S167.4,6.2,166,6.2z"></path>
			<path class="st1" d="M176.9,6.2h-4.2v-2h10.7v2.2h-4.2V18h-2.4V6.2L176.9,6.2z"></path>
			<path class="st1" d="M186.2,14.1c1,1,2.4,1.8,4.4,1.8c2,0,2.7-1,2.7-1.8c0-1.2-1.5-1.7-3.2-2c-2.2-0.5-4.9-1.2-4.9-4
				c0-2.4,2-4,5-4c2.2,0,3.9,0.7,5.2,1.8l-1.3,1.8c-1-1-2.5-1.5-4-1.5c-1.5,0-2.4,0.7-2.4,1.7s1.3,1.5,3,1.8c2.4,0.7,5,1.3,5,4.2
				c0,2.4-1.7,4.2-5.4,4.2c-2.5,0-4.4-0.8-5.5-2.2L186.2,14.1z"></path>
		</g>
	</g>
</g>
</svg>