<svg version="1.1" id="Layer_1" xmlns="http://www.w3.org/2000/svg" xmlns:xlink="http://www.w3.org/1999/xlink" x="0px" y="0px" viewBox="0 0 253.8 22" style="enable-background:new 0 0 253.8 22;" xml:space="preserve">
<style type="text/css">
	.st0{fill:#FA0A32;}
	.st1{fill:#FFFFFF;}
</style>
<g>
	<path class="st0" d="M198,0h-97.1c0,0-0.2,0,0,0.2l12.9,18.6c1.4,2,3.7,3.2,6.3,3.2h82.4V4.1C202.1,1.9,200.4,0,198,0z"></path>
	<g class="st1">
		<path d="M43.7,2c-6.9,0-12.5,4.1-12.5,9s5.6,9,12.5,9s12.5-4.1,12.5-9C56.4,6.1,50.6,2,43.7,2 M50.3,11c0,2.5-2.9,4.6-6.6,4.6
			s-6.6-2-6.6-4.6s2.9-4.6,6.6-4.6C47.4,6.4,50.3,8.5,50.3,11"></path>
		<path d="M27.9,2.7l-0.2,14.4c0,1.4-1.2,2.2-3.6,2.2c-0.3,0-0.7,0-1-0.2c-0.3,0-0.7-0.2-1.2-0.2h-0.2l0,0c-0.8-0.3-1.7-0.7-2.4-1.4
			L9.3,9.5c-1-0.8-2.2-0.8-2.2,0l0.2,8.3c0,1-0.7,1.5-1.7,1.5H0L0.2,4.9c0-1.4,1.2-2,3.6-2s4.4,0.7,6.3,2L20.3,13
			c0.3,0,0.5-0.3,0.5-0.5l-0.2-8c0-1,0.7-1.7,2-1.7h5.2V2.7z"></path>
		<path d="M84.1,2.9l-9.6,14.4c-0.8,1.4-2.5,2-4.9,2c-2.4,0-4.1-0.7-4.9-2L55,2.9h5.6c1.2,0,2.4,0.7,2.9,1.7l4.9,8.1
			c0.5,0.8,1.7,0.8,2.2,0l4.9-8c0.7-1,1.9-1.7,3.2-1.7L84.1,2.9L84.1,2.9z M98.3,4.7c-0.8-1.4-2.5-2-4.9-2c-2.4,0-3.9,0.7-4.7,2
			L79,19.1h5.6c1.2,0,2.2-0.5,2.7-1.5l5.1-8.3c0.5-0.8,1.7-0.8,2.2,0l1.7,2.7h-2.5c-0.5,0-1,0.3-1.4,0.8l-2,3.4h8.5l0.7,1.2
			c0.7,1,1.7,1.7,2.9,1.7h5.4L98.3,4.7z"></path>
	</g>
	<g class="st1">
		<g>
			<path d="M207,5.6h5.1c2.4,0,3.7,1.7,3.7,3.6s-1.4,3.6-3.7,3.6h-2.9v3.9h-2.4L207,5.6L207,5.6z M211.7,7.4h-2.5v3h2.5
				c1,0,1.7-0.5,1.7-1.5C213.4,8.1,212.7,7.4,211.7,7.4z"></path>
			<path d="M221,12.5h-1.7v3.9H217V5.6h5.1c2.4,0,3.7,1.5,3.7,3.6s-1.2,3-2.4,3.2l2.5,4.2h-2.7L221,12.5z M221.7,7.4h-2.5v3h2.5
				c1,0,1.7-0.5,1.7-1.5S222.7,7.4,221.7,7.4z"></path>
			<path d="M227.4,5.6h2.4v11h-2.4V5.6z"></path>
			<path d="M241.7,8.6l-3,8h-1l-3-8v8h-2.4v-11h3.2l2.7,6.9l2.7-6.9h3.2v11h-2.4V8.6L241.7,8.6z"></path>
			<path d="M246.1,5.6h7.8v2h-5.4V10h5.2v2h-5.2v2.5h5.4v2h-7.8V5.6L246.1,5.6z"></path>
		</g>
	</g>
	<g>
		<g>
			<path class="st1" d="M119.5,14c1,1,2.4,1.9,4.4,1.9c2,0,2.7-1,2.7-1.9c0-1.2-1.5-1.7-3.2-2c-2.2-0.5-4.9-1.2-4.9-4.1
				c0-2.2,2-4.1,5.1-4.1c2.2,0,3.9,0.7,5.1,1.9l-1.4,1.9c-1-1-2.5-1.5-4.1-1.5c-1.4,0-2.4,0.7-2.4,1.7s1.4,1.4,3,1.9
				c2.2,0.5,4.9,1.4,4.9,4.2c0,2.2-1.7,4.2-5.2,4.2c-2.5,0-4.4-0.8-5.6-2.2L119.5,14z"></path>
			<path class="st1" d="M132.2,4.1h6.1c2.9,0,4.4,2,4.4,4.2c0,2.4-1.7,4.2-4.4,4.2h-3.6v5.1h-2.4L132.2,4.1L132.2,4.1z M137.9,6.3
				h-3.2v4.4h3.2c1.4,0,2.4-0.8,2.4-2.2S139.3,6.3,137.9,6.3z"></path>
			<path class="st1" d="M151,3.9c4.1,0,7.1,3,7.1,7.1s-2.9,7.1-7.1,7.1c-4.1,0-7.1-3-7.1-7.1C144,6.9,146.9,3.9,151,3.9z M151,6.1
				c-2.7,0-4.6,2-4.6,4.9s1.7,4.9,4.6,4.9s4.6-2.2,4.6-4.9C155.5,8.1,153.8,6.1,151,6.1z"></path>
			<path class="st1" d="M165.2,12.7h-2.4v5.1h-2.4V4.1h6.1c2.7,0,4.4,1.7,4.4,4.2s-1.7,3.7-3.2,4.1l3.4,5.4h-2.7L165.2,12.7z
				 M166,6.3h-3.2v4.4h3.2c1.4,0,2.4-0.8,2.4-2.2S167.4,6.3,166,6.3z"></path>
			<path class="st1" d="M177,6.3h-4.2V4.1h10.7v2h-4.1v11.7H177V6.3L177,6.3z"></path>
			<path class="st1" d="M186.2,14c1,1,2.4,1.9,4.4,1.9s2.7-1,2.7-1.9c0-1.2-1.5-1.7-3.2-2c-2.2-0.5-4.9-1.2-4.9-4.1
				c0-2.2,2-4.1,5.1-4.1c2.2,0,3.9,0.7,5.1,1.9l-1.4,1.9c-1-1-2.5-1.5-4.1-1.5c-1.4,0-2.4,0.7-2.4,1.7s1.4,1.4,3,1.9
				c2.2,0.5,4.9,1.4,4.9,4.2c0,2.2-1.7,4.2-5.2,4.2c-2.5,0-4.4-0.8-5.6-2.2L186.2,14z"></path>
		</g>
	</g>
</g>
</svg>