<svg version="1.1" id="Layer_1" xmlns="http://www.w3.org/2000/svg" xmlns:xlink="http://www.w3.org/1999/xlink" x="0px" y="0px" viewBox="0 0 190.7 22" style="enable-background:new 0 0 190.7 22;" xml:space="preserve">
<style type="text/css">
	.st0{fill:#FA0A32;}
	.st1{fill:#FFFFFF;}
</style>
<g>
	<path d="M176.9,1.8c1,0.4,1.6,1,1.7,1.1c-0.1-0.3-0.2-1.5-0.4-2.2c0.6,0.4,1.9,1.3,2.3,1.6c0.2-0.5,0.8-2.3,0.8-2.3
		s1.1,1.8,1.3,2.1c0.2-0.2,1.5-1.7,1.9-2.1c0.1,0.8,0.1,2,0.2,2.2c0.1-0.1,0.6-0.8,1.4-1.4c-0.4,0.7-0.5,1.7-0.6,2.5
		c-0.8-0.2-1.7-0.4-2.6-0.4c-1.7,0-3.4,0.5-4.8,1.3C177.8,3.4,177.4,2.5,176.9,1.8z M190.1,17l-0.8-0.8c-0.2,2.3-1.3,4.2-3.4,5.6
		l-0.3-1.2c-1.7,1.3-4.7,2.1-7.3,0.6c0.3-1.6,0.6-3.3,0-5.3c-1.4,2.2-2.7,3.1-2.7,3.1c-1-1.6-0.9-4.9-0.6-5.8l-1.6,0.5
		c0-1.1,0.8-3.4,1.9-4.7l-1-0.2l0,0c0.7-1.4,1.7-2.6,2.9-3.5l0,0c-0.4,0.6-0.4,2,0.7,2.6c-0.5-0.8-0.5-1.8,0-2.3
		c0.5-0.5,1.3-0.3,1.8,0.1c-0.2-0.5-0.6-1-1.3-1.1l0,0c1.3-0.7,2.7-1,4.3-1c0.3,0,0.6,0,0.9,0l0,0c0.4,0.2,1.1,0.8,1.4,1.2
		c0,0,0-0.5-0.2-1c1.7,0.4,2.5,1.1,2.8,1.4c0.1,0.7,0.3,1.2,0.6,1.8c-0.5-0.6-1.9-1.6-2.6-1.8c0,0-0.1,0.6-0.3,0.9
		c-1.3-0.9-1.9-1.2-1.9-1.2c-1.4,0.2-2.3,0.8-2.8,1.2l0.4,0.4c-0.9,0.3-1.4,1-1.4,1c0,0,0.8,0.1,0.8,0.1s-0.1,0.9,1,1.5
		c1,0.5,2.3-0.1,3.6,0.4c-0.9-1-1.4-1.4-1.4-1.4S183.3,8,183.1,8c-0.3,0-0.7,0.1-1.2-0.1c-0.2-0.1-0.5-0.3-0.7-0.4
		c0,0,0.6-0.6,1.5-0.7c0,0,0.8,0.2,1.4,0.7c0.4-0.4,0.8-0.4,0.8-0.4s-0.4,0.4-0.3,0.9c0.6,0.6,1.3,1.4,1.3,1.4
		c0.7-0.4,2.2-0.3,2.5,0.1c-0.4-0.5-1-0.9-1.4-1.3c-0.1-0.2-0.5-0.8-0.6-0.9c0,0,0.5,0.1,0.9,0.5c0.1-0.2,0.3-0.3,0.6-0.4
		c0.3,0.3,0.4,0.6,0.3,0.7c-0.1,0.2-0.3,0.2-0.3,0.2l0.7,0.8l0.1-0.6C190.4,10.8,191.3,13.5,190.1,17z M187,11.9l0-1.2
		c0,0-0.6-0.2-1.1-0.6c-1.2,0.2-2.6,1.4-2.6,1.4s0.5,0.9,1,1.9C185.2,13.4,186.5,12.2,187,11.9z M188.2,14.1c0,0-0.1-0.5-0.5-1
		l-0.9,0c0,0-1.3,1.1-2,1.1c0,0,0.4,0.8,0.6,1.2c0.4-0.1,1.2-0.4,1.5-0.8c0,0,0.2,0.6,0.2,1.4C187.4,15.8,188,15.1,188.2,14.1z
		 M188.5,10c-0.5,0.4-0.9,0.6-0.9,0.6l0,1.2c0.3,0.4,0.7,0.7,0.9,1.2C189.1,12.3,189,11.1,188.5,10z"></path>
	<g>
		<path class="st0" d="M166.2,3.5l-81.6,0c0,0-0.1,0.1,0,0.1l10.8,15.7c1.2,1.7,3.1,2.7,5.2,2.7l69.1,0V6.9
			C169.7,5,168.1,3.5,166.2,3.5z"></path>
		<g>
			<path d="M36.6,5.2c-5.8,0-10.6,3.4-10.6,7.5c0,4.1,4.7,7.5,10.6,7.5c5.8,0,10.6-3.4,10.6-7.5C47.2,8.6,42.5,5.2,36.6,5.2
				 M42.2,12.7c0,2.1-2.5,3.8-5.5,3.8c-3.1,0-5.5-1.7-5.5-3.8c0-2.1,2.5-3.8,5.5-3.8C39.7,8.9,42.2,10.6,42.2,12.7"></path>
			<path d="M23.4,5.7l-0.2,12.1c0,1.1-1,1.8-3,1.8c-0.3,0-0.6,0-0.9-0.1c-0.3,0-0.6-0.1-1-0.2c0,0-0.1,0-0.1,0l0,0
				c-0.7-0.2-1.4-0.6-2-1.1l-8.5-6.8c-0.9-0.7-1.9-0.7-1.8,0l0.2,6.9c0,0.8-0.5,1.3-1.5,1.3H0L0.2,7.5c0-1.1,1-1.7,3-1.7
				c2,0,3.7,0.6,5.2,1.7l8.7,6.9c0.2-0.1,0.4-0.2,0.4-0.5l-0.2-6.7c0-0.9,0.6-1.5,1.7-1.5H23.4z"></path>
			<path d="M70.6,5.9l-8,12.1c-0.7,1.1-2.1,1.7-4.1,1.7c-2,0-3.4-0.6-4.1-1.7l-8-12.1H51c1,0,1.9,0.5,2.4,1.4l4.1,6.8
				c0.4,0.7,1.5,0.7,1.9,0l4.1-6.7c0.6-0.9,1.6-1.5,2.6-1.5H70.6z M82.5,7.4c-0.7-1.1-2.1-1.7-4.1-1.7c-2,0-3.3,0.6-4.1,1.7l-8,12.1
				H71c0.9,0,1.8-0.5,2.3-1.3l4.3-6.9c0.4-0.7,1.4-0.7,1.8,0l1.4,2.3l-2.1,0c-0.5,0-0.9,0.3-1.2,0.6l-1.8,2.8l7.1,0l0.6,1
				C84,19,85,19.6,86,19.6h4.6L82.5,7.4z"></path>
		</g>
		<g>
			<g>
				<path class="st1" d="M100.3,15.3c0.8,0.8,2,1.6,3.6,1.6c1.7,0,2.3-0.8,2.3-1.6c0-1-1.2-1.3-2.6-1.7c-1.9-0.5-4.1-1-4.1-3.5
					c0-1.9,1.7-3.4,4.2-3.4c1.8,0,3.2,0.6,4.3,1.6l-1.2,1.5c-0.9-0.9-2.1-1.3-3.3-1.3c-1.2,0-2,0.6-2,1.4c0,0.9,1.2,1.2,2.5,1.5
					c1.9,0.5,4.2,1.1,4.2,3.6c0,1.9-1.3,3.6-4.5,3.6c-2.1,0-3.7-0.7-4.7-1.8L100.3,15.3z"></path>
				<path class="st1" d="M110.9,6.9h5.1c2.4,0,3.8,1.7,3.8,3.6c0,2-1.4,3.6-3.8,3.6h-3v4.3h-2V6.9z M115.7,8.7h-2.8v3.7h2.8
					c1.1,0,2-0.7,2-1.8S116.8,8.7,115.7,8.7z"></path>
				<path class="st1" d="M126.8,6.8c3.5,0,5.9,2.5,5.9,6c0,3.4-2.4,6-5.9,6c-3.5,0-5.9-2.5-5.9-6C120.9,9.3,123.3,6.8,126.8,6.8z
					 M126.8,8.6c-2.3,0-3.8,1.8-3.8,4.2c0,2.4,1.5,4.2,3.8,4.2c2.3,0,3.8-1.8,3.8-4.2C130.6,10.3,129.1,8.6,126.8,8.6z"></path>
				<path class="st1" d="M138.6,14.2h-2v4.3h-2V6.9h5.1c2.3,0,3.8,1.5,3.8,3.6c0,2.1-1.3,3.2-2.7,3.4l2.8,4.5h-2.3L138.6,14.2z
					 M139.4,8.7h-2.8v3.7h2.8c1.1,0,2-0.7,2-1.8S140.5,8.7,139.4,8.7z"></path>
				<path class="st1" d="M148.6,8.7h-3.5V6.9h9v1.8h-3.5v9.7h-2V8.7z"></path>
				<path class="st1" d="M156.3,15.3c0.8,0.8,2,1.6,3.6,1.6c1.7,0,2.3-0.8,2.3-1.6c0-1-1.2-1.3-2.6-1.7c-1.9-0.5-4.1-1-4.1-3.5
					c0-1.9,1.7-3.4,4.2-3.4c1.8,0,3.2,0.6,4.3,1.6l-1.2,1.5c-0.9-0.9-2.1-1.3-3.3-1.3c-1.2,0-2,0.6-2,1.4c0,0.9,1.2,1.2,2.5,1.5
					c1.9,0.5,4.2,1.1,4.2,3.6c0,1.9-1.3,3.6-4.5,3.6c-2.1,0-3.7-0.7-4.7-1.8L156.3,15.3z"></path>
			</g>
		</g>
	</g>
</g>
</svg>