<svg version="1.1" id="Layer_1" xmlns="http://www.w3.org/2000/svg" xmlns:xlink="http://www.w3.org/1999/xlink" x="0px" y="0px" viewBox="0 0 218.7 22" style="enable-background:new 0 0 218.7 22;" xml:space="preserve">
<style type="text/css">
	.st0{fill:#FA0A32;}
	.st1{fill:#FFFFFF;}
</style>
<g>
	<path class="st0" d="M197.4,0l-96.9,0c-0.1,0-0.1,0.1-0.1,0.1l12.8,18.6c1.4,2,3.7,3.3,6.2,3.3l82.1,0.1V4.1
		C201.4,1.9,199.6,0,197.4,0z"></path>
	<g>
		<path d="M43.5,2.1C36.6,2.1,31,6.1,31,11s5.6,8.9,12.5,8.9s12.5-4,12.5-8.9C56.1,6.1,50.4,2.1,43.5,2.1 M50.1,11
			c0,2.5-2.9,4.5-6.6,4.5S37,13.5,37,11s2.9-4.5,6.6-4.5C47.2,6.5,50.1,8.5,50.1,11"></path>
		<path d="M27.8,2.7l-0.2,14.4c0,1.4-1.2,2.2-3.5,2.2c-0.3,0-0.7,0-1-0.1c-0.4,0-0.7-0.1-1.1-0.2c0,0-0.1,0-0.1,0v0
			c-0.8-0.3-1.6-0.7-2.4-1.3L9.3,9.5c-1-0.8-2.2-0.8-2.2,0l0.2,8.2c0,1-0.7,1.5-1.8,1.5H0L0.3,4.8c0-1.4,1.2-2,3.5-2
			c2.4,0,4.4,0.7,6.2,2L20.3,13c0.3-0.1,0.4-0.3,0.4-0.6l-0.2-7.9c0-1.1,0.7-1.8,2-1.8H27.8z"></path>
		<path d="M83.9,2.9l-9.5,14.4c-0.9,1.4-2.5,2-4.8,2c-2.4,0-4-0.7-4.9-2L55.1,2.9h5.5c1.2,0,2.3,0.6,2.9,1.6l4.8,8
			c0.5,0.8,1.7,0.9,2.3,0l4.9-7.9c0.7-1.1,1.9-1.8,3.1-1.8L83.9,2.9L83.9,2.9z M98,4.7c-0.9-1.4-2.5-2-4.9-2c-2.3,0-3.9,0.7-4.8,2
			l-9.5,14.4h5.5c1.1,0,2.2-0.6,2.8-1.5l5.1-8.2c0.5-0.8,1.7-0.8,2.2,0l1.7,2.8h-2.4c-0.6,0-1.1,0.3-1.4,0.8l-2.1,3.3l8.4,0l0.7,1.2
			c0.6,1,1.7,1.6,2.9,1.6h5.4L98,4.7z"></path>
	</g>
	<g>
		<g>
			<path d="M207.7,14.5c1.1,1.2,2.9,1.9,4.5,1.9c2,0,3.1-0.9,3.1-2.1c0-1.3-1-1.9-3.3-1.9c-0.7,0-1.8,0-2,0v-3c0.3,0,1.4,0,2,0
				c1.8,0,3-0.6,3-1.8c0-1.3-1.3-2-3-2c-1.5,0-3,0.6-4.2,1.7l-1.7-2.1c1.3-1.5,3.4-2.6,6.2-2.6c3.8,0,6.1,1.7,6.1,4.4
				c0,2-1.8,3.4-3.6,3.7c1.6,0.2,3.8,1.5,3.8,3.9c0,2.8-2.5,4.8-6.4,4.8c-3,0-5.2-1.1-6.4-2.6L207.7,14.5z"></path>
		</g>
	</g>
	<g>
		<g>
			<path class="st1" d="M119.1,14c0.9,1,2.4,1.9,4.3,1.9c2,0,2.8-1,2.8-1.9c0-1.2-1.5-1.6-3.1-2c-2.2-0.6-4.9-1.2-4.9-4.1
				c0-2.3,2-4,5-4c2.1,0,3.8,0.7,5.1,1.9L127,7.7c-1.1-1.1-2.5-1.5-4-1.5c-1.4,0-2.3,0.7-2.3,1.7c0,1.1,1.4,1.4,3,1.8
				c2.3,0.6,5,1.3,5,4.2c0,2.3-1.6,4.2-5.3,4.2c-2.5,0-4.3-0.9-5.5-2.2L119.1,14z"></path>
			<path class="st1" d="M131.7,4.1h6c2.9,0,4.5,2,4.5,4.3c0,2.3-1.6,4.3-4.5,4.3H134v5.1h-2.4V4.1L131.7,4.1z M137.4,6.2h-3.3v4.3
				h3.3c1.4,0,2.3-0.9,2.3-2.2S138.7,6.2,137.4,6.2z"></path>
			<path class="st1" d="M150.5,3.9c4.1,0,7,3,7,7.1c0,4.1-2.9,7.1-7,7.1s-7-3-7-7.1C143.5,6.9,146.4,3.9,150.5,3.9z M150.5,6
				c-2.8,0-4.5,2.1-4.5,5c0,2.8,1.8,5,4.5,5s4.5-2.1,4.5-5C155.1,8.1,153.3,6,150.5,6z"></path>
			<path class="st1" d="M164.6,12.7h-2.4v5.1h-2.4V4.1h6c2.7,0,4.5,1.8,4.5,4.3c0,2.4-1.6,3.7-3.3,4l3.3,5.4h-2.8L164.6,12.7z
				 M165.5,6.2h-3.3v4.3h3.3c1.4,0,2.3-0.9,2.3-2.2S166.9,6.2,165.5,6.2z"></path>
			<path class="st1" d="M176.4,6.2h-4.2V4.1h10.7v2.1h-4.2v11.6h-2.4L176.4,6.2L176.4,6.2z"></path>
			<path class="st1" d="M185.6,14c0.9,1,2.4,1.9,4.3,1.9c2,0,2.8-1,2.8-1.9c0-1.2-1.5-1.6-3.1-2c-2.2-0.6-4.9-1.2-4.9-4.1
				c0-2.3,2-4,5-4c2.1,0,3.8,0.7,5.1,1.9l-1.4,1.8c-1.1-1.1-2.5-1.5-4-1.5c-1.4,0-2.3,0.7-2.3,1.7c0,1.1,1.4,1.4,3,1.8
				c2.3,0.6,5,1.3,5,4.2c0,2.3-1.6,4.2-5.3,4.2c-2.5,0-4.3-0.9-5.5-2.2L185.6,14z"></path>
		</g>
	</g>
</g>
</svg>