<svg xmlns:x="http://ns.adobe.com/Extensibility/1.0/" xmlns:i="http://ns.adobe.com/AdobeIllustrator/10.0/" xmlns:graph="http://ns.adobe.com/Graphs/1.0/" xmlns="http://www.w3.org/2000/svg" xmlns:xlink="http://www.w3.org/1999/xlink" version="1.1" id="LA7_Artwork_CMYK" x="0px" y="0px" viewBox="0 0 338.7 256.5" style="enable-background:new 0 0 338.7 256.5;" xml:space="preserve">
<style type="text/css">
	.st0{fill:url(#_x3C_yellow_block_x3E__1_);}
	.st1{fill:#FFFFFF;}
	.st2{fill:url(#SVGID_1_);}
	.st3{enable-background:new    ;}
	.st4{fill:url(#SVGID_2_);}
	.st5{fill:url(#SVGID_3_);}
	.st6{fill:url(#SVGID_4_);}
	.st7{fill:url(#SVGID_5_);}
	.st8{fill:url(#SVGID_6_);}
	.st9{fill:url(#_x3C_7_top_edge_x3E__1_);}
	.st10{fill:url(#_x3C_7_left_edge_x3E__1_);}
	.st11{fill:url(#SVGID_7_);}
	.st12{fill:url(#SVGID_8_);}
	.st13{fill:url(#SVGID_9_);}
	.st14{fill:url(#SVGID_10_);}
	.st15{fill:url(#SVGID_11_);}
	.st16{fill:url(#SVGID_12_);}
	.st17{fill:url(#SVGID_13_);}
	.st18{fill:url(#SVGID_14_);}
	.st19{fill:url(#SVGID_15_);}
	.st20{fill:#BFBFBF;}
</style>
<metadata>
	<sfw xmlns="http://ns.adobe.com/SaveForWeb/1.0/">
		<slices/>
		<sliceSourceBounds bottomLeftOrigin="true" height="259.3" width="338.7" x="0" y="-2.8"/>
	</sfw>
</metadata>
<g>
	
		<linearGradient id="_x3C_yellow_block_x3E__1_" gradientUnits="userSpaceOnUse" x1="213.1509" y1="142.8512" x2="370.6943" y2="69.3875" gradientTransform="matrix(1 0 0 -1 0 257.2756)">
		<stop offset="0" style="stop-color:#F6A01A"/>
		<stop offset="4.607856e-03" style="stop-color:#F6A01A"/>
		<stop offset="0.1761" style="stop-color:#FAB01E"/>
		<stop offset="0.3704" style="stop-color:#FDBB22"/>
		<stop offset="0.6068" style="stop-color:#FEC224"/>
		<stop offset="1" style="stop-color:#FFC425"/>
	</linearGradient>
	<polygon id="_x3C_yellow_block_x3E_" class="st0" points="338.7,256.5 338.7,0 295.1,0 146.9,256.5  "/>
	
	
		<linearGradient id="SVGID_1_" gradientUnits="userSpaceOnUse" x1="126.5632" y1="178.169" x2="128.1312" y2="160.2466" gradientTransform="matrix(1 0 0 -1 0 257.2756)">
		<stop offset="2.955670e-02" style="stop-color:#8C8C8C"/>
		<stop offset="0.7734" style="stop-color:#D9D9D9"/>
	</linearGradient>
	<polygon class="st2" points="188.4,91.8 72.9,91.8 66.3,84.4 181.8,84.4  "/>
	<g>
		<g class="st3">
			
				<linearGradient id="SVGID_2_" gradientUnits="userSpaceOnUse" x1="107.0794" y1="264.2614" x2="242.1043" y2="103.3448" gradientTransform="matrix(1 0 0 -1 0 257.2756)">
				<stop offset="0.5" style="stop-color:#FFFFFF"/>
				<stop offset="1" style="stop-color:#D9D9D9"/>
			</linearGradient>
			<polygon class="st4" points="279,27.5 172.9,212 124.1,183.7 181.7,84.2 66.1,84.2 66.1,27.4    "/>
			
				<linearGradient id="SVGID_3_" gradientUnits="userSpaceOnUse" x1="205.525" y1="156.3006" x2="251.775" y2="110.0506" gradientTransform="matrix(1 0 0 -1 0 257.2756)">
				<stop offset="1.648350e-02" style="stop-color:#D9D9D9"/>
				<stop offset="0.6484" style="stop-color:#8C8C8C"/>
			</linearGradient>
			<polygon class="st5" points="279,27.5 282.5,38.5 178.3,220.7 172.9,212    "/>
			
				<linearGradient id="SVGID_4_" gradientUnits="userSpaceOnUse" x1="149.136" y1="75.8097" x2="152.764" y2="34.3415" gradientTransform="matrix(1 0 0 -1 0 257.2756)">
				<stop offset="0" style="stop-color:#D9D9D9"/>
				<stop offset="0.1154" style="stop-color:#B4B4B4"/>
				<stop offset="0.2906" style="stop-color:#828282"/>
				<stop offset="0.4442" style="stop-color:#5E5E5E"/>
				<stop offset="0.5686" style="stop-color:#484848"/>
				<stop offset="0.6484" style="stop-color:#404040"/>
			</linearGradient>
			<polygon class="st6" points="172.9,212 178.3,220.7 131,194.3 123.6,183.7    "/>
		</g>
		<path class="st1" d="M123.6,183.7l49.3,28.3L279,27.5l-1.9,1.1L172.5,210.5l-47.3-27.2L123.6,183.7z"/>
		
			<linearGradient id="SVGID_5_" gradientUnits="userSpaceOnUse" x1="172.6128" y1="151.1568" x2="76.8872" y2="195.7944" gradientTransform="matrix(1 0 0 -1 0 257.2756)">
			<stop offset="0" style="stop-color:#D9D9D9"/>
			<stop offset="0.5" style="stop-color:#FCFCFC"/>
			<stop offset="1" style="stop-color:#B3B3B3"/>
		</linearGradient>
		<path class="st7" d="M183.3,83.2l-116,0.1l-1.1,1.1l115.1-0.1L183.3,83.2z"/>
		
			<linearGradient id="SVGID_6_" gradientUnits="userSpaceOnUse" x1="140.8247" y1="158.6132" x2="166.1881" y2="88.9278" gradientTransform="matrix(1 0 0 -1 0 257.2756)">
			<stop offset="0" style="stop-color:#CCCCCC"/>
			<stop offset="1" style="stop-color:#A6A6A6"/>
		</linearGradient>
		<path class="st8" d="M181.3,84.3l-57.7,99.3l1.5-0.4l57.2-98.4l1-1.7L181.3,84.3z"/>
	</g>
	
		<linearGradient id="_x3C_7_top_edge_x3E__1_" gradientUnits="userSpaceOnUse" x1="119.2999" y1="283.0756" x2="225.8" y2="176.5756" gradientTransform="matrix(1 0 0 -1 0 257.2756)">
		<stop offset="0" style="stop-color:#CCCCCC"/>
		<stop offset="1" style="stop-color:#A6A6A6"/>
	</linearGradient>
	<polyline id="_x3C_7_top_edge_x3E_" class="st9" points="277.1,28.6 279,27.5 279,27.5 66.1,27.4 67.3,28.6 277.1,28.6  "/>
	
		<linearGradient id="_x3C_7_left_edge_x3E__1_" gradientUnits="userSpaceOnUse" x1="71.0473" y1="173.6433" x2="62.2379" y2="229.2639" gradientTransform="matrix(1 0 0 -1 0 257.2756)">
		<stop offset="0" style="stop-color:#CCCCCC"/>
		<stop offset="1" style="stop-color:#A6A6A6"/>
	</linearGradient>
	<polygon id="_x3C_7_left_edge_x3E_" class="st10" points="66.1,27.4 66.2,84.4 67.3,83.3 67.3,28.6  "/>
	<g>
		
			<linearGradient id="SVGID_7_" gradientUnits="userSpaceOnUse" x1="-2.0177" y1="138.0433" x2="23.9907" y2="112.0349" gradientTransform="matrix(1 0 0 -1 0 257.2756)">
			<stop offset="1.648350e-02" style="stop-color:#D9D9D9"/>
			<stop offset="0.6484" style="stop-color:#8C8C8C"/>
		</linearGradient>
		<polygon class="st11" points="9.1,108.2 13,112.8 12.9,156.3 8.8,151.4   "/>
		
			<linearGradient id="SVGID_8_" gradientUnits="userSpaceOnUse" x1="68.8283" y1="130.9381" x2="78.9783" y2="120.7881" gradientTransform="matrix(1 0 0 -1 0 257.2756)">
			<stop offset="1.648350e-02" style="stop-color:#D9D9D9"/>
			<stop offset="0.6484" style="stop-color:#8C8C8C"/>
		</linearGradient>
		<path class="st12" d="M64.6,140.9l0.2,0.3l3,3.7l13.6-23.6l-2.6-4.5l-0.2-0.2C78,117.6,70.2,131.6,64.6,140.9z"/>
		
			<linearGradient id="SVGID_9_" gradientUnits="userSpaceOnUse" x1="45.2745" y1="104.1011" x2="53.2157" y2="96.1599" gradientTransform="matrix(1 0 0 -1 0 257.2756)">
			<stop offset="1.648350e-02" style="stop-color:#D9D9D9"/>
			<stop offset="0.6484" style="stop-color:#8C8C8C"/>
		</linearGradient>
		<polygon class="st13" points="47.2,151.3 51.3,156 51.3,163 46.8,157.5   "/>
		
			<linearGradient id="SVGID_10_" gradientUnits="userSpaceOnUse" x1="28.8099" y1="100.5839" x2="29.5877" y2="91.6938" gradientTransform="matrix(1 0 0 -1 0 257.2756)">
			<stop offset="2.955670e-02" style="stop-color:#8C8C8C"/>
			<stop offset="0.7734" style="stop-color:#D9D9D9"/>
		</linearGradient>
		<polygon class="st14" points="55,159.1 58.4,163.1 3.3,163.1 0,159.2   "/>
		
			<linearGradient id="SVGID_11_" gradientUnits="userSpaceOnUse" x1="80.3353" y1="110.4234" x2="80.9638" y2="103.2393" gradientTransform="matrix(1 0 0 -1 0 257.2756)">
			<stop offset="2.955670e-02" style="stop-color:#8C8C8C"/>
			<stop offset="0.7734" style="stop-color:#D9D9D9"/>
		</linearGradient>
		<polygon class="st15" points="96.4,148.5 99.8,152.4 64.4,152.4 61.5,148.5   "/>
		
			<linearGradient id="SVGID_12_" gradientUnits="userSpaceOnUse" x1="12.0654" y1="158.764" x2="82.7767" y2="74.4935" gradientTransform="matrix(1 0 0 -1 0 257.2756)">
			<stop offset="0.25" style="stop-color:#FCFCFC"/>
			<stop offset="1" style="stop-color:#F2F2F2"/>
		</linearGradient>
		<path class="st16" d="M82.9,108.3l28.1,50.8h-9c-0.1-0.2-2.4-4.6-5.6-10.6H61.5c-3.7,6-6.3,10.4-6.4,10.6H0.2l0.2-50.8h8.5    l-0.1,43.1H47v6.2l28.3-49.4h7.6V108.3z M64.6,140.9h27.7c-5.2-9.7-13.7-24.3-13.7-24.3C78.6,116.5,70.5,131.2,64.6,140.9"/>
		
			<linearGradient id="SVGID_13_" gradientUnits="userSpaceOnUse" x1="108.0824" y1="98.5626" x2="108.5096" y2="93.68" gradientTransform="matrix(1 0 0 -1 0 257.2756)">
			<stop offset="2.955670e-02" style="stop-color:#8C8C8C"/>
			<stop offset="0.7734" style="stop-color:#D9D9D9"/>
		</linearGradient>
		<polygon class="st17" points="111.2,159.2 114.7,163.1 105.4,163.1 101.9,159.3   "/>
		
			<linearGradient id="SVGID_14_" gradientUnits="userSpaceOnUse" x1="77.275" y1="143.1506" x2="120.425" y2="100.0006" gradientTransform="matrix(1 0 0 -1 0 257.2756)">
			<stop offset="1.648350e-02" style="stop-color:#D9D9D9"/>
			<stop offset="0.6484" style="stop-color:#8C8C8C"/>
		</linearGradient>
		<polygon class="st18" points="83.1,108.3 87.4,113.8 114.6,163.1 111.4,159.3   "/>
		
			<linearGradient id="SVGID_15_" gradientUnits="userSpaceOnUse" x1="57.0522" y1="104.3734" x2="62.8085" y2="98.6171" gradientTransform="matrix(1 0 0 -1 0 257.2756)">
			<stop offset="1.648350e-02" style="stop-color:#D9D9D9"/>
			<stop offset="0.6484" style="stop-color:#8C8C8C"/>
		</linearGradient>
		<path class="st19" d="M58.4,163.1l6-10.7l-2.9-3.9c0,0-6.3,10.4-6.4,10.6L58.4,163.1"/>
	</g>
	<path class="st20" d="M55.1,159.3H0l0-0.2l0.2-51h8.9v43.1h38.1v5.7l28-48.9H83l0.1,0.1l28.3,51.1h-9.4l-0.1-0.1   c-0.1-0.2-2.3-4.4-5.5-10.5H61.6L55.1,159.3z M0.4,158.9h54.5l6.5-10.7h35.1l0.1,0.1c3,5.7,5.2,9.8,5.5,10.5h8.6l-27.9-50.4h-7.4   l-28.6,49.9v-6.7H8.7v-43.1H0.6L0.4,158.9z M92.6,141H64.3l0.2-0.3l14.2-24.6L92.6,141z M64.9,140.6H92l-13.4-23.7L64.9,140.6z"/>
		<path d="M241.655 236V219.425H258.485V236H241.655ZM266.49 185.85V173.95H283.32V185.85H266.49ZM266.83 236V190.015H282.98V236H266.83ZM310.249 236.935C300.559 236.935 294.779 232.685 294.779 221.72V203.02H289.339V190.015H294.779V178.37H310.929V190.015H321.639V203.02H310.929V218.575C310.929 221.805 312.374 223.165 315.349 223.165C317.474 223.165 319.514 222.57 321.469 221.635V234.3C318.579 235.915 314.754 236.935 310.249 236.935Z" fill="white"/>
</g>
<div xmlns="" mx-name="view-image-info"/></svg>