<svg width="547" height="258" viewBox="0 0 547 258" fill="none" xmlns="http://www.w3.org/2000/svg">
<g clip-path="url(#clip0_19921_20304)">
<path d="M547 42.5234L474.166 209.067L196.767 209.391L118.913 257.848L0.318359 183.788L81.1954 0H155.839L174.802 42.5234H547Z" fill="white"/>
<path d="M82.0786 176.46L118.919 81.0278L134.835 122.235H114.743L101.041 157.716H148.527L155.768 176.46H82.0786Z" fill="#1A1659"/>
<path d="M118.922 235.583L214.044 176.464H155.771L118.922 235.583Z" fill="#1A1659"/>
<path d="M118.904 235.583L23.7827 176.464H82.0636L118.904 235.583Z" fill="#1A1659"/>
<path d="M82.0786 176.464L118.928 235.583L155.777 176.464H82.0786Z" fill="url(#paint0_linear_19921_20304)"/>
<path d="M118.904 81.0272L134.82 122.234H114.728L101.026 157.714H148.513L155.753 176.459H214.034L145.177 19.2031H92.631L23.7827 176.459H82.0636L118.904 81.0272Z" fill="url(#paint1_linear_19921_20304)"/>
<path d="M452.2 106.478C451.807 106.478 451.546 106.303 451.415 105.954L437.419 61.3975L437.353 61.1357C437.353 60.8304 437.55 60.6777 437.942 60.6777H443.239C443.632 60.6777 443.893 60.8522 444.025 61.2012L454.816 97.3825C454.86 97.4698 454.925 97.5138 455.012 97.5138C455.099 97.5138 455.165 97.4698 455.208 97.3825L466 61.2012C466.13 60.8522 466.37 60.6777 466.719 60.6777H471.886C472.365 60.6777 472.54 60.9176 472.409 61.3975L458.282 105.954C458.151 106.303 457.889 106.478 457.497 106.478H452.2Z" fill="#1A1659"/>
<path d="M434.127 60.6777C434.564 60.6777 434.781 60.8959 434.781 61.332V65.5192C434.781 65.9556 434.564 66.1735 434.127 66.1735H421.57C421.396 66.1735 421.308 66.2607 421.308 66.4353V105.823C421.308 106.259 421.091 106.478 420.654 106.478H415.684C415.248 106.478 415.03 106.259 415.03 105.823V66.4353C415.03 66.2607 414.943 66.1735 414.769 66.1735H402.8C402.364 66.1735 402.146 65.9556 402.146 65.5192V61.332C402.146 60.8959 402.364 60.6777 402.8 60.6777H434.127Z" fill="#1A1659"/>
<path d="M370.083 107.064C366.901 107.064 364.088 106.41 361.646 105.102C359.205 103.793 357.308 101.961 355.957 99.6059C354.605 97.2069 353.929 94.4587 353.929 91.362V75.7903C353.929 72.693 354.605 69.9672 355.957 67.6114C357.308 65.2563 359.205 63.4242 361.646 62.1157C364.088 60.8071 366.901 60.1528 370.083 60.1528C373.31 60.1528 376.144 60.8071 378.586 62.1157C381.027 63.4242 382.924 65.2563 384.276 67.6114C385.627 69.9672 386.303 72.693 386.303 75.7903V91.362C386.303 94.4587 385.627 97.2069 384.276 99.6059C382.924 101.961 381.027 103.793 378.586 105.102C376.144 106.41 373.31 107.064 370.083 107.064ZM370.083 101.634C373.048 101.634 375.446 100.718 377.278 98.8861C379.109 97.054 380.025 94.6332 380.025 91.6239V75.7247C380.025 72.6714 379.109 70.229 377.278 68.3969C375.446 66.5214 373.048 65.5831 370.083 65.5831C367.118 65.5831 364.72 66.5214 362.889 68.3969C361.101 70.229 360.208 72.6714 360.208 75.7247V91.6239C360.208 94.6332 361.101 97.054 362.889 98.8861C364.72 100.718 367.118 101.634 370.083 101.634Z" fill="#1A1659"/>
<path d="M340.8 106.478C340.364 106.478 340.146 106.259 340.146 105.823V61.332C340.146 60.8959 340.364 60.6777 340.8 60.6777H345.771C346.207 60.6777 346.425 60.8959 346.425 61.332V105.823C346.425 106.259 346.207 106.478 345.771 106.478H340.8Z" fill="#1A1659"/>
<path d="M302.327 106.478C301.891 106.478 301.673 106.259 301.673 105.823V61.332C301.673 60.8959 301.891 60.6777 302.327 60.6777H318.154C322.689 60.6777 326.308 61.8773 329.011 64.2764C331.715 66.6315 333.066 69.7937 333.066 73.7631V93.3915C333.066 97.3609 331.715 100.545 329.011 102.944C326.308 105.3 322.689 106.478 318.154 106.478H302.327ZM307.952 100.785C307.952 100.959 308.039 101.047 308.213 101.047H318.416C320.945 101.047 322.95 100.284 324.433 98.7566C325.959 97.1863 326.744 95.093 326.787 92.4754V74.6792C326.787 72.0622 326.024 69.9906 324.498 68.4636C323.016 66.8933 320.989 66.1085 318.416 66.1085H308.213C308.039 66.1085 307.952 66.1957 307.952 66.3697V100.785Z" fill="#1A1659"/>
<path d="M290.235 106.478C289.843 106.478 289.581 106.303 289.45 105.954L287.096 98.2986C287.052 98.168 286.965 98.1024 286.834 98.1024H268.456C268.325 98.1024 268.238 98.168 268.195 98.2986L265.84 105.954C265.709 106.303 265.447 106.478 265.055 106.478H259.758C259.278 106.478 259.104 106.237 259.234 105.758L273.558 61.2012C273.688 60.8522 273.95 60.6777 274.342 60.6777H280.882C281.275 60.6777 281.536 60.8522 281.668 61.2012L296.121 105.758L296.186 106.019C296.186 106.325 295.99 106.478 295.598 106.478H290.235ZM269.83 92.8029C269.786 92.8901 269.786 92.9774 269.83 93.0647C269.917 93.108 270.004 93.1297 270.092 93.1297H285.134C285.221 93.1297 285.287 93.108 285.33 93.0647C285.417 92.9774 285.439 92.8901 285.395 92.8029L277.809 68.5292C277.765 68.4419 277.7 68.398 277.613 68.398C277.525 68.398 277.46 68.4419 277.416 68.5292L269.83 92.8029Z" fill="#1A1659"/>
<path d="M248.478 106.478C248.13 106.478 247.89 106.325 247.759 106.019L238.603 86.4561C238.559 86.3255 238.472 86.2599 238.341 86.2599H228.923C228.749 86.2599 228.661 86.3471 228.661 86.5217V105.823C228.661 106.259 228.444 106.478 228.007 106.478H223.037C222.601 106.478 222.383 106.259 222.383 105.823V61.332C222.383 60.8959 222.601 60.6777 223.037 60.6777H240.63C243.246 60.6777 245.536 61.223 247.498 62.3135C249.503 63.4039 251.051 64.9306 252.141 66.8933C253.231 68.856 253.776 71.1245 253.776 73.6981C253.776 76.7515 252.969 79.3467 251.356 81.484C249.787 83.5773 247.585 84.9954 244.75 85.7369C244.576 85.8241 244.533 85.9331 244.62 86.0637L254.103 105.692C254.147 105.779 254.169 105.888 254.169 106.019C254.169 106.325 253.994 106.478 253.645 106.478H248.478ZM228.923 66.1085C228.749 66.1085 228.661 66.1957 228.661 66.3697V81.026C228.661 81.2005 228.749 81.2878 228.923 81.2878H239.845C242.156 81.2878 244.009 80.6113 245.404 79.2595C246.8 77.8637 247.498 76.0316 247.498 73.7631C247.498 71.4513 246.8 69.5975 245.404 68.2018C244.009 66.806 242.156 66.1085 239.845 66.1085H228.923Z" fill="#1A1659"/>
<path d="M300.255 190.533V175.663H243.771L219.989 190.533H300.255Z" fill="#00A445"/>
<path d="M386.467 190.533V175.663H300.255V190.533H386.467Z" fill="#E3E3E2"/>
<path d="M463.762 190.533L469.708 175.663H386.469V190.533H463.762Z" fill="#DB052C"/>
<path d="M223.268 157.378C222.959 157.092 222.803 156.587 223.185 156.158L229.119 149.895C229.429 149.532 229.906 149.532 230.286 149.818C233.801 152.411 238.568 154.862 244.192 154.862C249.816 154.862 252.867 152.488 252.867 149.027C252.867 146.148 250.996 144.346 244.669 143.554L241.857 143.192C231.073 141.819 225.068 137.148 225.068 128.501C225.068 119.852 232.407 113.512 243.894 113.512C250.925 113.512 257.49 115.457 261.934 118.621C262.399 118.908 262.482 119.204 262.089 119.699L257.323 126.259C257.013 126.621 256.62 126.687 256.226 126.467C252.164 124.017 248.255 122.72 243.882 122.72C239.199 122.72 236.769 124.951 236.769 128.05C236.769 130.863 238.961 132.654 245.05 133.456L247.862 133.819C258.8 135.192 264.58 139.797 264.58 148.653C264.58 157.51 257.466 164.07 243.728 164.07C235.446 164.07 227.403 161.048 223.268 157.367" fill="#1A1659"/>
<path d="M270.527 114.25C270.527 113.807 270.786 113.512 271.184 113.512H299.599C299.987 113.512 300.256 113.807 300.256 114.25V122.203C300.256 122.646 299.997 122.952 299.599 122.952H280.5C280.242 122.952 280.112 123.1 280.112 123.395V133.436C280.112 133.731 280.242 133.879 280.5 133.879H296.398C296.786 133.879 297.054 134.173 297.054 134.627V142.512C297.054 142.955 296.795 143.261 296.398 143.261H280.5C280.242 143.261 280.112 143.409 280.112 143.704V154.188C280.112 154.483 280.242 154.63 280.5 154.63H299.599C299.987 154.63 300.256 154.925 300.256 155.368V163.321C300.256 163.764 299.997 164.07 299.599 164.07H271.184C270.796 164.07 270.527 163.775 270.527 163.321V114.238V114.25Z" fill="#1A1659"/>
<path d="M336.795 164.07C336.134 164.07 335.91 163.854 335.698 163.321L327.102 144.809H320.424C320.132 144.809 319.986 144.956 319.986 145.251V163.321C319.986 163.764 319.695 164.07 319.247 164.07H309.912C309.475 164.07 309.173 163.775 309.173 163.321V114.25C309.173 113.807 309.464 113.512 309.912 113.512H329.814C340.023 113.512 346.78 119.978 346.78 129.2C346.78 135.666 343.396 140.804 337.894 143.254L347.733 163.185C347.957 163.628 347.733 164.07 347.217 164.07H336.785H336.795ZM335.989 129.189C335.989 125.4 333.344 122.939 329.232 122.939H320.412C320.121 122.939 319.975 123.086 319.975 123.381V135.053C319.975 135.348 320.121 135.496 320.412 135.496H329.232C333.344 135.496 335.989 133.045 335.989 129.177" fill="#1A1659"/>
<path d="M354.378 113.512H362.085C362.418 113.512 362.686 113.841 362.686 114.25V163.321C362.686 163.729 362.418 164.07 362.075 164.07H354.378C354.045 164.07 353.768 163.741 353.768 163.321V114.25C353.768 113.841 354.036 113.512 354.369 113.512H354.378Z" fill="#1A1659"/>
<path d="M371.603 114.25C371.603 113.807 371.887 113.512 372.324 113.512H403.581C404.008 113.512 404.303 113.807 404.303 114.25V122.203C404.303 122.646 404.019 122.952 403.581 122.952H382.572C382.288 122.952 382.145 123.1 382.145 123.395V133.436C382.145 133.731 382.288 133.879 382.572 133.879H400.06C400.487 133.879 400.781 134.173 400.781 134.627V142.512C400.781 142.955 400.497 143.261 400.06 143.261H382.572C382.288 143.261 382.145 143.409 382.145 143.704V154.188C382.145 154.483 382.288 154.63 382.572 154.63H403.581C404.008 154.63 404.303 154.925 404.303 155.368V163.321C404.303 163.764 404.019 164.07 403.581 164.07H372.324C371.897 164.07 371.603 163.775 371.603 163.321V114.238V114.25Z" fill="#1A1659"/>
<path d="M442.065 114.25C442.208 113.807 442.495 113.512 443.002 113.512H452.102C452.609 113.512 452.895 113.807 453.038 114.25L469.652 163.321C469.795 163.764 469.652 164.07 469.146 164.07H459.759C459.252 164.07 458.966 163.843 458.822 163.321L456.002 154.473H438.816L436.072 163.321C435.929 163.843 435.643 164.07 435.136 164.07H425.672C425.165 164.07 425.022 163.775 425.165 163.321L442.065 114.25ZM453.115 145.183L447.552 127.487H447.331L441.768 145.183H453.105H453.115Z" fill="#1A1659"/>
</g>
<defs>
<linearGradient id="paint0_linear_19921_20304" x1="82.0786" y1="206.02" x2="155.777" y2="206.02" gradientUnits="userSpaceOnUse">
<stop stop-color="#31ECFF"/>
<stop offset="0.05" stop-color="#2DE1FF"/>
<stop offset="0.3" stop-color="#1BB2FF"/>
<stop offset="0.51" stop-color="#0D8FFF"/>
<stop offset="0.69" stop-color="#057AFF"/>
<stop offset="0.81" stop-color="#0373FF"/>
</linearGradient>
<linearGradient id="paint1_linear_19921_20304" x1="173.508" y1="29.3182" x2="109.995" y2="207.235" gradientUnits="userSpaceOnUse">
<stop stop-color="#31ECFF"/>
<stop offset="0.05" stop-color="#2DE1FF"/>
<stop offset="0.29" stop-color="#1BB2FF"/>
<stop offset="0.51" stop-color="#0D8FFF"/>
<stop offset="0.69" stop-color="#057AFF"/>
<stop offset="0.8" stop-color="#0373FF"/>
</linearGradient>
<clipPath id="clip0_19921_20304">
<rect width="547" height="258" fill="white"/>
</clipPath>
</defs>
</svg>