<?xml version="1.0" encoding="utf-8"?>
<svg version="1.1" id="Layer_1" xmlns="http://www.w3.org/2000/svg" xmlns:xlink="http://www.w3.org/1999/xlink" x="0px" y="0px"
	 viewBox="0 0 566.93 162.93" style="enable-background:new 0 0 566.93 162.93;" xml:space="preserve">
<style type="text/css">
	.st0{fill-rule:evenodd;clip-rule:evenodd;fill:#FFFFFF;}
	.st1{fill:#FF0000;}
	.st2{fill-rule:evenodd;clip-rule:evenodd;}
</style>
<g>
	<g>
		<path class="st0" d="M211.71,141.9c-2.87,0-5.49-0.55-7.87-1.65c-2.32-1.1-4.24-2.59-5.77-4.48c-1.52-1.95-2.62-4.2-3.31-6.76
			c-0.63-2.56-0.7-5.3-0.19-8.23c0.51-2.93,1.52-5.67,3.03-8.23c1.58-2.56,3.46-4.78,5.64-6.67c2.25-1.95,4.72-3.47,7.42-4.57
			c2.7-1.1,5.48-1.65,8.35-1.65c5.68,0,10.19,2.07,13.53,6.22l8.65-7.5c-2.36-2.93-5.28-5.21-8.76-6.86
			c-3.42-1.65-7.28-2.47-11.58-2.47c-4.3,0-8.48,0.85-12.54,2.56c-4.05,1.64-7.76,3.93-11.14,6.86c-3.3,2.86-6.13,6.25-8.48,10.15
			c-2.26,3.81-3.76,7.84-4.5,12.07h-44.18l0.89-5.12l2.75-15.91h31.1l1.83-10.61h-41.41l-5.47,31.63h-20.75
			c2.4-3.21,3.99-6.71,4.64-10.52c1-5.79-0.17-10.76-3.52-14.9c-3.35-4.14-7.86-6.22-13.53-6.22h-31.1l-5.47,31.63H15.8l3.63-21.03
			h31.1l1.83-10.61H10.97L0,152.51H10.3l3.65-21.12h44.17l-3.65,21.12h10.31l3.65-21.12H86l8.36,21.12h11.92l-8.24-21.12h29.82
			l-3.65,21.12h41.41l1.83-10.61h-31.1l1.82-10.51h45.96c0.1,0.58,0.19,1.17,0.33,1.74c1.01,3.84,2.67,7.19,4.98,10.06
			c2.37,2.87,5.29,5.15,8.76,6.86c3.48,1.65,7.37,2.47,11.67,2.47c4.3,0,8.45-0.82,12.44-2.47c4.05-1.65,7.76-3.93,11.14-6.86
			l-6.07-7.41C222.55,139.86,217.32,141.9,211.71,141.9z M73.92,99.67h20.8c2.81,0,5.05,1.04,6.72,3.11
			c1.67,2.07,2.26,4.54,1.77,7.41c-0.51,2.93-1.95,5.43-4.34,7.5c-2.11,1.83-4.4,2.81-6.84,3.02H70.28L73.92,99.67z"/>
		<path class="st0" d="M268.22,141.9c-2.87,0-5.49-0.55-7.87-1.65c-2.32-1.1-4.24-2.59-5.77-4.48c-1.52-1.95-2.62-4.2-3.31-6.76
			c-0.63-2.56-0.7-5.3-0.19-8.23c0.51-2.93,1.52-5.67,3.03-8.23c1.58-2.56,3.46-4.78,5.64-6.67c2.25-1.95,4.72-3.47,7.42-4.57
			c2.7-1.1,5.48-1.65,8.35-1.65c5.68,0,10.19,2.07,13.53,6.22l8.65-7.5c-2.36-2.93-5.28-5.21-8.76-6.86
			c-3.42-1.65-7.28-2.47-11.58-2.47c-4.3,0-8.48,0.85-12.54,2.56c-4.05,1.64-7.76,3.93-11.14,6.86c-3.3,2.86-6.13,6.25-8.48,10.15
			c-2.28,3.84-3.78,7.89-4.52,12.16c-0.76,4.39-0.66,8.5,0.29,12.34c1.01,3.84,2.67,7.19,4.98,10.06c2.37,2.87,5.29,5.15,8.76,6.86
			c3.48,1.65,7.37,2.47,11.67,2.47c4.3,0,8.45-0.82,12.44-2.47c4.05-1.65,7.76-3.93,11.13-6.86l-6.07-7.41
			C279.06,139.86,273.83,141.9,268.22,141.9z"/>
		<path class="st0" d="M319.94,152.51h11.56l7.12-10.61h28.59l3.37,10.61h11.56l-20.13-63.45L319.94,152.51z M345.55,131.39
			l12.37-18.65l5.92,18.65H345.55z"/>
		<path class="st0" d="M123.98,52.01h17.57l8.36,21.12h11.92l-8.88-22.76c3.97-1.52,7.45-4.05,10.45-7.59
			c3.07-3.6,4.99-7.59,5.75-11.98c1-5.79-0.17-10.76-3.52-14.9c-3.35-4.15-7.86-6.22-13.53-6.22h-31.1l-10.97,63.45h10.31
			L123.98,52.01z M129.46,20.28h20.79c2.81,0,5.05,1.04,6.72,3.11c1.67,2.07,2.26,4.54,1.77,7.41c-0.51,2.92-1.95,5.42-4.34,7.5
			c-2.39,2.07-4.99,3.11-7.8,3.11l-20.78-0.09L129.46,20.28z"/>
		<path class="st0" d="M188.73,62.52h28.59l3.37,10.6h11.56L212.11,9.68l-42.07,63.45h11.56L188.73,62.52z M208.02,33.36l5.92,18.65
			h-18.28L208.02,33.36z"/>
		<path class="st0" d="M273.6,70.66c4.12-1.71,7.83-3.99,11.13-6.86c3.31-2.92,6.11-6.31,8.39-10.15c2.34-3.84,3.88-7.92,4.63-12.25
			c0.75-4.33,0.62-8.41-0.39-12.25c-0.95-3.84-2.61-7.19-4.98-10.06c-2.3-2.93-5.19-5.21-8.67-6.86c-3.47-1.71-7.33-2.56-11.57-2.56
			h-20.7l-10.97,63.45h20.7C265.41,73.12,269.55,72.3,273.6,70.66z M259.9,20.28h10.4c2.81,0,5.37,0.55,7.69,1.65
			c2.32,1.1,4.27,2.62,5.84,4.57c1.58,1.95,2.68,4.2,3.31,6.76c0.63,2.56,0.7,5.27,0.21,8.13c-0.49,2.87-1.5,5.58-3.02,8.14
			c-1.52,2.56-3.4,4.82-5.65,6.77c-2.19,1.95-4.63,3.47-7.33,4.57c-2.7,1.1-5.48,1.65-8.35,1.65h-10.4L259.9,20.28z"/>
		<polygon class="st0" points="331.47,9.68 321.16,9.68 306.07,96.98 306.16,96.98 296.56,152.51 306.87,152.51 317.83,89.06 
			317.74,89.06 		"/>
		<path class="st0" d="M395.99,19c-4.96-6.22-11.74-9.33-20.35-9.33c-8.66,0-16.52,3.11-23.57,9.33
			c-7.17,6.22-11.51,13.68-13.01,22.4c-1.52,8.78,0.24,16.24,5.27,22.4c4.96,6.22,11.74,9.33,20.35,9.33
			c8.6,0,16.46-3.11,23.57-9.33c7.21-6.09,11.58-13.56,13.1-22.4C402.85,32.69,401.06,25.22,395.99,19z M390.86,41.4
			c-1,5.79-3.9,10.79-8.69,15c-4.77,4.09-9.99,6.13-15.67,6.13s-10.22-2.04-13.64-6.13c-3.28-4.21-4.41-9.2-3.41-15
			c1-5.79,3.86-10.76,8.58-14.9c4.84-4.15,10.1-6.22,15.77-6.22s10.19,2.07,13.53,6.22C390.68,30.64,391.86,35.61,390.86,41.4z"/>
	</g>
	<path class="st1" d="M544.2,139.75c30.82-31.44,30.22-83.02-1.35-115.2c-31.57-32.19-82.14-32.8-112.96-1.36
		c-30.82,31.44-30.22,83.02,1.35,115.2C462.81,170.57,513.38,171.18,544.2,139.75z"/>
	<polygon class="st2" points="408.4,67.45 472.99,43.47 537.58,19.49 525.65,88.54 513.71,157.58 489.58,74.41"/>
</g>
</svg>
