<?xml version="1.0" encoding="UTF-8"?>
<svg id="Layer_1" xmlns="http://www.w3.org/2000/svg" version="1.1" viewBox="0 0 795.8 283.5">
  <!-- Generator: Adobe Illustrator 29.0.0, SVG Export Plug-In . SVG Version: 2.1.0 Build 186)  -->
  <defs>
    <style>
      .st0, .st1 {
        fill: #fff;
      }

      .st1, .st2 {
        fill-rule: evenodd;
      }

      .st3 {
        fill: red;
      }

      .st4 {
        isolation: isolate;
      }

      .st5 {
        display: none;
      }
    </style>
  </defs>
  <g id="loghi">
    <g class="st5">
      <g>
        <path class="st2" d="M336.7,146.1h9.2c4.3,0,9.5.5,13.2,3.4,2.2,1.7,4.3,4.6,4.3,9.3s-1.9,8.6-4.4,11.1c-4.6,4.3-11.3,4.9-16.8,4.9h-8.9l3.4-28.7h0ZM341.5,106.8h4.1c3.3,0,8.5.5,11.7,3.6,1.6,1.6,3.2,4.3,3.2,8.4s-2,9.2-4.8,11.7c-2.2,1.8-6,3.8-12.9,3.8h-4.4l3.1-27.5h0ZM328.6,92.9l-11.8,95.8h22.5c9.2,0,22.1-.6,30.8-9.6,3.8-4.1,7.6-10.8,7.6-20.9s-.9-8.9-4.2-13.2c-1-1.2-4.3-5.3-10.5-7.5,4.6-2.5,7.1-5.9,8.5-8.4,2.3-4.3,2.7-8.9,2.7-12.5,0-6-1.5-11.5-6-16.2-5.9-5.9-14.4-7.5-25-7.5h-14.6Z"/>
        <polygon class="st2" points="457 92.9 404.1 92.9 392.4 188.7 445.2 188.7 447 174.9 408.8 174.9 412.5 144.8 449.5 144.8 451.3 131 414.2 131 417.2 106.8 455.3 106.8 457 92.9"/>
        <path class="st2" d="M527.4,107.3c-1.2-3.7-3.8-8.2-9.1-11.7-5.5-3.7-11.8-4.4-16.5-4.4-10.2,0-17.7,3.7-22.9,9.2-7.6,8-7.6,17.2-7.6,18.6,0,5.8,2.3,10.6,5.3,14,3.3,3.6,7.9,6,11.3,7.6l7.4,3.3c3.2,1.5,7,3.2,9.7,6,2.3,2.5,3.7,5.2,3.7,9.1s-1.7,10.8-5.4,14c-2.6,2.3-6.2,4.1-11.3,4.1s-10-2-12.2-5c-2.6-3.4-3.4-9.2-3.3-12.9l-14.8,3.2c.3,9.2,4.2,17,8.9,21.5,5.3,5.2,11.8,6.8,19.2,6.8s17.2-1.6,25-9.6c4.9-5.2,8.7-12.7,8.7-23.7s-1.1-10.9-5-15.6c-2.2-2.7-5.9-6-12.1-8.7l-7.8-3.4c-3.6-1.6-6.3-2.3-9.3-5-2-1.9-3.4-4.1-3.4-7.4s1.7-6.6,4.1-8.6c1.9-1.7,5.3-3.7,10.9-3.7s6.8.7,9.5,2.7c2,1.6,3.6,4.1,4.3,6.8l12.7-7.2h0Z"/>
        <polygon class="st2" points="596.9 106.6 598.6 92.9 540.1 92.9 538.4 106.6 560.4 106.6 550.3 188.7 564.9 188.7 575 106.6 596.9 106.6"/>
      </g>
    </g>
    <g>
      <path class="st3" d="M0,141.5C0,63.4,63.4,0,141.5,0s141.5,63.4,141.5,141.5-63.4,141.5-141.5,141.5S0,219.6,0,141.5Z"/>
      <polygon class="st2" points="27.4 58 255.7 58 141.5 283.5 27.4 58"/>
      <path class="st1" d="M86,96.6h2c4.4,0,8.4.7,8.4,6.1s-4.3,6-8.5,6h-1.9v-12.1ZM57.2,148.5h25.4v-22.9h.4l11.4,23h30l-15.5-23.2c-1.5-2-3.1-3.2-4.3-4.3v-.6c9.6-3.2,13.8-7.8,13.8-18.6,0-18-13.7-24.8-29.8-24.8h-31.4s0,71.4,0,71.4Z"/>
      <polygon class="st1" points="120.3 100.3 134.6 99.6 134.6 148.5 160.6 148.5 160.6 99.6 174.9 100.3 174.9 77.1 120.3 77.1 120.3 100.3"/>
      <polygon class="st1" points="180 148.5 227.8 148.5 227.8 125.7 206 125.7 206 77.1 180 77.1 180 148.5"/>
      <path class="st1" d="M103.9,171.4c4.6,0,5.7,5.3,5.7,8.8s-1.2,9.5-5.7,9.5-5.7-6.2-5.7-9.5,1-8.8,5.7-8.8ZM103.9,158c-13,0-20.6,9.6-20.6,21.8s7.2,22.6,20.6,22.6,20.6-9.7,20.6-22.6-7.6-21.8-20.6-21.8Z"/>
      <path class="st1" d="M165.8,202v-13.2l-8.4.6-7.4,1v-.5c7.6-2.4,15.2-7.7,15.2-16.4s-9.5-15.3-18.5-15.3c-13,0-18.6,5.7-19.8,18.2h15.4c.1-2.6.6-5.4,3.8-5.4s3.5,1.5,3.5,3.4c0,3.8-6.8,10-9.5,12.3l-17,15.3h42.7Z"/>
      <path class="st1" d="M179.7,188.3c-4.2,0-8.5,2.7-8.5,7.2s4.3,7.1,8.5,7.1,8.5-2.6,8.5-7.1-4.4-7.2-8.5-7.2Z"/>
      <polygon class="st1" points="57.4 173.1 64.1 172.6 64.1 202 79.6 202 79.6 158.7 57.4 159.4 57.4 173.1"/>
      <path class="st1" d="M198.7,158.7l-3.7,25.6c3.6-1.2,7.6-1.9,11.4-1.9s8.6.8,8.6,4.3-5,4.3-7.6,4.3-9.7-1.8-12.9-3.5l-1.7,11.7c4.1,2,12.7,3.5,17.2,3.5,9.2,0,20.7-5,20.7-15.6s-6.9-13.5-14.8-13.5-5.9.5-7.4,2.3h-.5c.8-1.6,1.1-3.3,1.4-5h18.5v-12.1h-29.2Z"/>
    </g>
  </g>
  <g class="st4">
    <g class="st4">
      <g class="st4">
        <path class="st0" d="M335.5,188.2l10.5-79.3h-25l1.8-13.4h63.3l-1.8,13.4h-23.6l-10.5,79.3h-14.6Z"/>
        <path class="st0" d="M401.2,188.2h-14.4l12.1-92.6h16.7c7.4,0,12.7.4,15.9,1.3,3.2.8,6.1,2.3,8.7,4.3,2.8,2.2,5,4.9,6.5,8.2,1.5,3.3,2.2,6.9,2.2,10.9,0,7.6-2.1,13.9-6.3,18.7-4.2,4.8-10.1,7.8-17.7,9l25.6,40.2h-16.3l-24.5-39.7h-3.4l-5.3,39.7ZM407.9,136.8h2.9c9.1,0,15.3-1.1,18.6-3.4,3.3-2.3,4.9-6.2,4.9-11.8s-1.4-8-4.1-9.9c-2.8-1.9-8.2-2.8-16.2-2.8h-2.3l-3.8,28Z"/>
        <path class="st0" d="M447.6,188.2l53.7-96.3,33.9,96.3h-15.1l-7.5-21.9h-36.9l-12.2,21.9h-15.8ZM481.5,154h27.1l-7.2-22.9c-.3-1.1-.7-2.6-1.1-4.4-.4-1.8-.8-4.2-1.4-7.2-.9,2.2-1.8,4.3-2.8,6.2-.9,2-1.8,3.8-2.7,5.5l-12,22.7Z"/>
        <path class="st0" d="M539.9,188.2l12.2-92.6h52l-1.6,13.1h-37.6l-3,23.3h37.5l-1.7,13h-37.6l-5.6,43.3h-14.5Z"/>
        <path class="st0" d="M609.3,188.2l12.1-92.6h52l-1.6,13.1h-37.6l-3,23.3h37.5l-1.7,13h-37.6l-5.6,43.3h-14.5Z"/>
        <path class="st0" d="M678.8,188.2l12.2-92.6h14.8l-12.3,92.6h-14.6Z"/>
        <path class="st0" d="M794.8,101.6l-2.3,15.8c-3.6-3.8-7.5-6.5-11.7-8.4-4.2-1.8-8.8-2.8-13.7-2.8s-9.8.9-14.1,2.6c-4.3,1.8-8,4.3-11,7.6-3.6,3.8-6.3,8.3-8.3,13.3-1.9,5-2.9,10.2-2.9,15.5,0,9.5,2.9,17.3,8.8,23.3,5.8,6,13.4,9,22.7,9s9.1-.8,13.4-2.4c4.3-1.6,8.4-4,12.4-7.2l-3.2,17.7c-4.2,1.6-8.3,2.9-12.2,3.7-3.9.8-7.6,1.2-11.2,1.2-13.5,0-24.4-4.1-32.7-12.4-8.3-8.2-12.4-19.1-12.4-32.5s1.3-14.5,4-21.2c2.6-6.7,6.4-12.5,11.2-17.3s9.7-8,15.5-10.3c5.8-2.4,12.1-3.5,18.7-3.5s11.4.7,16.2,2c4.8,1.4,9.1,3.4,12.8,6.1Z"/>
      </g>
    </g>
  </g>
</svg>