<?xml version="1.0" encoding="utf-8"?>
<!-- Generator: Adobe Illustrator 27.0.0, SVG Export Plug-In . SVG Version: 6.00 Build 0)  -->
<svg version="1.1" id="Layer_1" xmlns="http://www.w3.org/2000/svg" xmlns:xlink="http://www.w3.org/1999/xlink" x="0px" y="0px"
	 viewBox="0 0 868.4 283.5" style="enable-background:new 0 0 868.4 283.5;" xml:space="preserve">
<style type="text/css">
	.st0{fill-rule:evenodd;clip-rule:evenodd;fill:#FFFFFF;}
	.st1{fill:#FF0000;}
	.st2{fill-rule:evenodd;clip-rule:evenodd;}
</style>
<g id="loghi">
	<g>
		<g>
			<g>
				<g>
					<path class="st0" d="M335.3,148.4h9.5c4.4,0,9.8,0.5,13.7,3.6c2.3,1.8,4.4,4.8,4.4,9.6c0,4.8-1.9,8.9-4.6,11.4
						c-4.8,4.4-11.8,5.1-17.4,5.1h-9.2L335.3,148.4z M340.4,107.4h4.2c3.4,0,8.8,0.5,12,3.7c1.6,1.7,3.3,4.4,3.3,8.6
						c0,5.1-2,9.5-4.9,12.1c-2.3,1.9-6.2,4-13.4,4H337L340.4,107.4z M326.9,93.2l-12.2,99.3h14.7h8.5c9.5,0,22.9-0.6,31.8-10
						c4-4.2,7.9-11.2,7.9-21.7c0-4.6-0.9-9.3-4.3-13.7c-1-1.4-4.4-5.5-10.9-7.7c4.8-2.5,7.5-6.1,8.8-8.6c2.4-4.4,2.8-9.3,2.8-12.9
						c0-6.2-1.5-11.9-6.2-16.9c-6.1-6.1-14.8-7.7-25.9-7.7L326.9,93.2L326.9,93.2z"/>
					<path class="st0" d="M418.6,107.2h5.2c6.6,0,10.9,1,13.6,2.8c3.2,2,5.5,6,5.5,11.2c0,5.3-2.7,10.1-6.1,12.8
						c-4.6,3.7-11.9,4.8-17.2,4.8h-4.8L418.6,107.2z M405.3,93.2L393,192.4h15.2l5.1-40.6h2.7l23.3,40.6h18.3L432,150
						c6.2-1.2,12.7-4.3,17-8.4c4.4-4.2,8.6-11.3,8.6-21.4c0-10.4-4.8-17.4-9.5-20.9c-7.1-5.5-17.2-6.1-25-6.1
						C423,93.2,405.3,93.2,405.3,93.2z"/>
					<path class="st0" d="M521.6,180.4c-8.4,0-16.5-2-23.5-9.5c-3.8-4-9.3-11.8-9.3-24.1c0-13.4,5.5-23.7,12.3-30.3
						c8.4-8.2,18-11,27.5-11c11,0,19.7,4.4,25.1,10.1c4.2,4.3,8.9,11.8,8.9,23.3s-4.4,23.3-12,30.8
						C544.3,176.3,534.7,180.4,521.6,180.4 M531.7,91.4c-17,0-31.8,5.8-41.7,15.6c-10,9.8-16.2,25-16.2,40.8
						c0,13.8,5.3,25.7,13.2,33.7c9.5,9.8,20.8,12.8,34.4,12.8c12.5,0,27.8-2,41-15.3c7.5-7.6,15.6-20.7,15.6-41.1
						c0-8.5-1.5-22.4-12.8-33.6C559.5,98.6,549,91.4,531.7,91.4"/>
					<path class="st0" d="M629.4,126.7l-3.7-5.3c-1.4-1.8-2.4-4.1-2.4-7.2c0-3.3,1.4-5.7,2.7-7c2-2,5.3-3.2,7.9-3.2
						c1.8,0,4.3,0.6,6,1.9c1.5,1.1,2.8,3.3,2.8,6c0,2-0.6,4.2-1.9,6.1c-1.8,2.5-4.1,4.2-6,5.3L629.4,126.7z M640.6,169.6
						c-2.9,3.2-6.5,6-10.1,8.4c-3.2,1.9-6.7,3.7-11.8,3.7c-4.3,0-7.5-1.6-10-4.3c-2.3-2.4-3.7-5.5-3.7-9.4c0-4.3,1.4-9.2,6.2-14
						c3.3-3.2,8.9-6.5,12.7-8.2L640.6,169.6z M664.6,145.9l-12.8,12.8L637,137.3l5.3-3.6c4-2.7,7.1-4.6,10.3-8.8
						c2.7-3.6,4.2-7.5,4.2-12.5c0-7-2.7-11.9-6-15.1c-4.8-4.6-10.4-6-15.6-6c-9.4,0-15.6,3.3-19.7,7.5c-3.7,3.8-6.7,9.4-6.7,16.9
						c0,6,1.9,10.5,4.4,14.5l3.2,4.8l-3.2,1.9c-4.2,2.5-9.5,5.3-14.3,10.1c-5.5,5.7-8.8,12.7-8.8,21.3c0,8.9,3.6,15.1,7.2,18.8
						c4.3,4.3,11.3,7.5,20.2,7.5c6.2,0,13.1-1.6,18.5-4.6c4-2.3,9.3-6.6,12.3-9.5l8.4,12.2h18.5l-15.5-22.9l13.4-13.6L664.6,145.9z"
						/>
					<path class="st0" d="M752.6,108.1c-1.4-3.8-4-8.5-9.4-12c-5.8-3.8-12.2-4.6-17.1-4.6c-10.5,0-18.3,3.8-23.7,9.5
						c-7.9,8.4-7.9,17.9-7.9,19.2c0,6,2.4,11,5.5,14.6c3.4,3.7,8.2,6.2,11.8,7.9l7.6,3.4c3.3,1.5,7.2,3.3,10.1,6.2
						c2.4,2.5,3.8,5.3,3.8,9.4c0,5.1-1.8,11.2-5.7,14.6c-2.7,2.4-6.5,4.2-11.8,4.2c-6.5,0-10.3-2-12.7-5.2
						c-2.7-3.6-3.6-9.5-3.4-13.4l-15.3,3.3c0.3,9.5,4.3,17.5,9.3,22.3c5.5,5.3,12.2,7,19.9,7c7.7,0,17.9-1.6,25.9-10
						c5.1-5.3,9.1-13.1,9.1-24.6c0-6.1-1.2-11.3-5.2-16.2c-2.3-2.8-6.1-6.2-12.5-9.1l-8-3.6c-3.7-1.6-6.6-2.4-9.6-5.2
						c-2-1.9-3.6-4.2-3.6-7.6c0-3.6,1.8-6.8,4.2-8.9c1.9-1.8,5.5-3.8,11.3-3.8c2.9,0,7,0.8,9.8,2.8c2,1.6,3.7,4.2,4.4,7L752.6,108.1
						z"/>
					<polygon class="st0" points="776.1,93.2 763.9,192.4 779.1,192.4 791.3,93.2 					"/>
					<path class="st0" d="M868.4,108.1c-1.4-3.8-4-8.5-9.4-12c-5.8-3.8-12.2-4.6-17.1-4.6c-10.5,0-18.3,3.8-23.7,9.5
						c-7.9,8.4-7.9,17.9-7.9,19.2c0,6,2.4,11,5.5,14.6c3.4,3.7,8.2,6.2,11.8,7.9l7.6,3.4c3.3,1.5,7.2,3.3,10.1,6.2
						c2.4,2.5,3.8,5.3,3.8,9.4c0,5.1-1.8,11.2-5.7,14.6c-2.7,2.4-6.5,4.2-11.8,4.2c-6.5,0-10.3-2-12.7-5.2
						c-2.7-3.6-3.6-9.5-3.4-13.4l-15.3,3.3c0.3,9.5,4.3,17.5,9.3,22.3c5.5,5.3,12.2,7,19.9,7c7.7,0,17.9-1.6,25.9-10
						c5.1-5.3,9.1-13.1,9.1-24.6c0-6.1-1.2-11.3-5.2-16.2c-2.3-2.8-6.1-6.2-12.5-9.1l-8-3.6c-3.7-1.6-6.6-2.4-9.6-5.2
						c-2-1.9-3.6-4.2-3.6-7.6c0-3.6,1.8-6.8,4.2-8.9c1.9-1.8,5.5-3.8,11.3-3.8c2.9,0,7,0.8,9.8,2.8c2,1.6,3.7,4.2,4.4,7L868.4,108.1
						z"/>
				</g>
			</g>
		</g>
	</g>
	<g>
		<path class="st1" d="M0,141.5C0,63.4,63.4,0,141.5,0S283,63.4,283,141.5S219.6,283,141.5,283S0,219.6,0,141.5z"/>
		<polygon class="st2" points="27.4,58 255.7,58 141.5,283.5 		"/>
		<path class="st0" d="M86,96.6h2c4.4,0,8.4,0.7,8.4,6.1c0,5.3-4.3,6-8.5,6H86V96.6z M57.2,148.5h25.4v-22.9H83l11.4,23h30
			l-15.5-23.2c-1.5-2-3.1-3.2-4.3-4.3v-0.6c9.6-3.2,13.8-7.8,13.8-18.6c0-18-13.7-24.8-29.8-24.8H57.2V148.5z"/>
		<polygon class="st0" points="120.3,100.3 134.6,99.6 134.6,148.5 160.6,148.5 160.6,99.6 174.9,100.3 174.9,77.1 120.3,77.1 		"/>
		<polygon class="st0" points="180,148.5 227.8,148.5 227.8,125.7 206,125.7 206,77.1 180,77.1 		"/>
		<path class="st0" d="M103.9,171.4c4.6,0,5.7,5.3,5.7,8.8c0,3.3-1.2,9.5-5.7,9.5s-5.7-6.2-5.7-9.5
			C98.3,176.7,99.2,171.4,103.9,171.4z M103.9,158c-13,0-20.6,9.6-20.6,21.8c0,12.9,7.2,22.6,20.6,22.6s20.6-9.7,20.6-22.6
			C124.5,167.7,116.9,158,103.9,158z"/>
		<path class="st0" d="M165.8,202v-13.2l-8.4,0.6l-7.4,1v-0.5c7.6-2.4,15.2-7.7,15.2-16.4c0-10.1-9.5-15.3-18.5-15.3
			c-13,0-18.6,5.7-19.8,18.2h15.4c0.1-2.6,0.6-5.4,3.8-5.4c1.9,0,3.5,1.5,3.5,3.4c0,3.8-6.8,10-9.5,12.3L123.1,202H165.8z"/>
		<path class="st0" d="M179.7,188.3c-4.2,0-8.5,2.7-8.5,7.2s4.3,7.1,8.5,7.1c4.2,0,8.5-2.6,8.5-7.1
			C188.1,190.9,183.8,188.3,179.7,188.3z"/>
		<polygon class="st0" points="57.4,173.1 64.1,172.6 64.1,202 79.6,202 79.6,158.7 57.4,159.4 		"/>
		<path class="st0" d="M198.7,158.7l-3.7,25.6c3.6-1.2,7.6-1.9,11.4-1.9c2.5,0,8.6,0.8,8.6,4.3c0,3.4-5,4.3-7.6,4.3
			c-3.5,0-9.7-1.8-12.9-3.5l-1.7,11.7c4.1,2,12.7,3.5,17.2,3.5c9.2,0,20.7-5,20.7-15.6c0-8.3-6.9-13.5-14.8-13.5
			c-2.2,0-5.9,0.5-7.4,2.3h-0.5c0.8-1.6,1.1-3.3,1.4-5h18.5v-12.1L198.7,158.7L198.7,158.7z"/>
	</g>
</g>
</svg>
