<?xml version="1.0" encoding="utf-8"?>
<!-- Generator: Adobe Illustrator 28.1.0, SVG Export Plug-In . SVG Version: 6.00 Build 0)  -->
<svg version="1.1" id="Layer_1" xmlns="http://www.w3.org/2000/svg" xmlns:xlink="http://www.w3.org/1999/xlink" x="0px" y="0px"
	 viewBox="0 0 1626.9 523.1" style="enable-background:new 0 0 1626.9 523.1;" xml:space="preserve">
<style type="text/css">
	.st0{display:none;}
	.st1{display:inline;}
	.st2{clip-path:url(#SVGID_00000109013134347179383860000009031457995599523205_);fill:#E52521;}
	
		.st3{clip-path:url(#SVGID_00000021809556437627006900000014369458255905301910_);fill-rule:evenodd;clip-rule:evenodd;fill:#020203;}
	
		.st4{clip-path:url(#SVGID_00000029733972740017747460000014129767091155688127_);fill-rule:evenodd;clip-rule:evenodd;fill:#FFFFFF;}
	
		.st5{clip-path:url(#SVGID_00000153699455189450682490000006050333378279840926_);fill-rule:evenodd;clip-rule:evenodd;fill:#FFFFFF;}
	
		.st6{clip-path:url(#SVGID_00000036940143457183588350000011789724074536773813_);fill-rule:evenodd;clip-rule:evenodd;fill:#FFFFFF;}
	
		.st7{clip-path:url(#SVGID_00000113352838274902612830000011096817534561901757_);fill-rule:evenodd;clip-rule:evenodd;fill:#FFFFFF;}
	
		.st8{clip-path:url(#SVGID_00000133519720976006415570000015167290908914481821_);fill-rule:evenodd;clip-rule:evenodd;fill:#FFFFFF;}
	
		.st9{clip-path:url(#SVGID_00000059992282433258690000000005695522457426910896_);fill-rule:evenodd;clip-rule:evenodd;fill:#FFFFFF;}
	
		.st10{clip-path:url(#SVGID_00000066485954059112702460000014850232870503579560_);fill-rule:evenodd;clip-rule:evenodd;fill:#FFFFFF;}
	
		.st11{clip-path:url(#SVGID_00000028309490006286088020000010153728237008233127_);fill-rule:evenodd;clip-rule:evenodd;fill:#FFFFFF;}
	.st12{fill:#FFFFFF;}
</style>
<g id="Layer_3" class="st0">
	<rect x="321.7" y="-398.6" class="st1" width="2494" height="1556.4"/>
</g>
<g id="Layer_2_00000178164123972318458780000004869005945531924916_">
	<g>
		<g>
			<g>
				<g>
					<g>
						<defs>
							<rect id="SVGID_1_" x="0.8" y="0.1" width="523" height="523"/>
						</defs>
						<clipPath id="SVGID_00000056426274376658818320000001496294665274730887_">
							<use xlink:href="#SVGID_1_"  style="overflow:visible;"/>
						</clipPath>
						<path style="clip-path:url(#SVGID_00000056426274376658818320000001496294665274730887_);fill:#E52521;" d="M0.8,261.5
							C0.8,117.1,117.9,0,262.3,0s261.5,117.1,261.5,261.5S406.7,523,262.3,523S0.8,406,0.8,261.5"/>
					</g>
				</g>
			</g>
			<g>
				<g>
					<g>
						<defs>
							<circle id="SVGID_00000104700815232380817360000003524367196192250287_" cx="262.3" cy="261.5" r="261.5"/>
						</defs>
						<clipPath id="SVGID_00000050653071155889629610000006095363118194467492_">
							<use xlink:href="#SVGID_00000104700815232380817360000003524367196192250287_"  style="overflow:visible;"/>
						</clipPath>
						
							<polygon style="clip-path:url(#SVGID_00000050653071155889629610000006095363118194467492_);fill-rule:evenodd;clip-rule:evenodd;fill:#020203;" points="
							51.4,107.2 473.3,107.2 262.4,523.9 						"/>
					</g>
				</g>
			</g>
			<g>
				<g>
					<g>
						<defs>
							<rect id="SVGID_00000083778911138922934280000009382260478273827498_" x="0.8" y="0.1" width="523" height="523"/>
						</defs>
						<clipPath id="SVGID_00000180357581696967828500000017207595038015644334_">
							<use xlink:href="#SVGID_00000083778911138922934280000009382260478273827498_"  style="overflow:visible;"/>
						</clipPath>
						
							<path style="clip-path:url(#SVGID_00000180357581696967828500000017207595038015644334_);fill-rule:evenodd;clip-rule:evenodd;fill:#FFFFFF;" d="
							M159.8,178.6h3.7c8.2,0,15.4,1.2,15.4,11.4c0,9.8-7.9,11-15.8,11h-3.3L159.8,178.6L159.8,178.6z M106.4,274.5h46.9v-42.4h0.9
							l21,42.4h55.3l-28.7-42.9c-2.6-3.9-5.6-6-8-7.9v-1c17.9-6,25.6-14.4,25.6-34.3c0-33.3-25.2-45.9-55-45.9h-58L106.4,274.5
							L106.4,274.5z"/>
					</g>
				</g>
				<g>
					<g>
						<defs>
							<rect id="SVGID_00000038372091744912893610000003163969127844398241_" x="0.8" y="0.1" width="523" height="523"/>
						</defs>
						<clipPath id="SVGID_00000074411610428294432350000001990015547278310036_">
							<use xlink:href="#SVGID_00000038372091744912893610000003163969127844398241_"  style="overflow:visible;"/>
						</clipPath>
						
							<polygon style="clip-path:url(#SVGID_00000074411610428294432350000001990015547278310036_);fill-rule:evenodd;clip-rule:evenodd;fill:#FFFFFF;" points="
							223.2,185.4 249.6,184.2 249.6,274.5 297.6,274.5 297.6,184.2 324.1,185.4 324.1,142.5 223.2,142.5 						"/>
					</g>
				</g>
				<g>
					<g>
						<defs>
							<rect id="SVGID_00000173863812514978452650000011604099611657971371_" x="0.8" y="0.1" width="523" height="523"/>
						</defs>
						<clipPath id="SVGID_00000004507845548393259720000010432495485580028810_">
							<use xlink:href="#SVGID_00000173863812514978452650000011604099611657971371_"  style="overflow:visible;"/>
						</clipPath>
						
							<polygon style="clip-path:url(#SVGID_00000004507845548393259720000010432495485580028810_);fill-rule:evenodd;clip-rule:evenodd;fill:#FFFFFF;" points="
							333.4,274.5 421.7,274.5 421.7,232.2 381.4,232.2 381.4,142.5 333.4,142.5 						"/>
					</g>
				</g>
				<g>
					<g>
						<defs>
							<rect id="SVGID_00000104689881297747774380000004538990374018085022_" x="0.8" y="0.1" width="523" height="523"/>
						</defs>
						<clipPath id="SVGID_00000056427801209564569740000006276923106577032336_">
							<use xlink:href="#SVGID_00000104689881297747774380000004538990374018085022_"  style="overflow:visible;"/>
						</clipPath>
						
							<path style="clip-path:url(#SVGID_00000056427801209564569740000006276923106577032336_);fill-rule:evenodd;clip-rule:evenodd;fill:#FFFFFF;" d="
							M192.8,316.9c8.7,0,10.4,9.8,10.4,16.4c0,6.1-2.2,17.6-10.4,17.6c-8.2,0-10.4-11.4-10.4-17.6
							C182.4,326.7,184.1,316.9,192.8,316.9 M192.8,292.1c-24.1,0-38.1,17.8-38.1,40.4c0,23.9,13.4,41.9,38.1,41.9
							s38.1-18,38.1-41.9C230.9,309.9,216.9,292.1,192.8,292.1"/>
					</g>
				</g>
				<g>
					<g>
						<defs>
							<rect id="SVGID_00000137111149122522243440000006698363988592735656_" x="0.8" y="0.1" width="523" height="523"/>
						</defs>
						<clipPath id="SVGID_00000039821995873127345310000012528051654109177223_">
							<use xlink:href="#SVGID_00000137111149122522243440000006698363988592735656_"  style="overflow:visible;"/>
						</clipPath>
						
							<path style="clip-path:url(#SVGID_00000039821995873127345310000012528051654109177223_);fill-rule:evenodd;clip-rule:evenodd;fill:#FFFFFF;" d="
							M307.3,373.2v-24.6l-15.6,1l-13.7,1.9v-0.8c14.1-4.4,28.1-14.3,28.1-30.4c0-18.5-17.6-28.1-34.2-28.1
							c-24,0-34.4,10.5-36.5,33.8h28.4c0.2-4.9,0.9-10.1,7.1-10.1c3.6,0,6.6,2.8,6.6,6.4c0,7.1-12.6,18.3-17.6,22.7L228,373.3h79.3
							L307.3,373.2L307.3,373.2z"/>
					</g>
				</g>
				<g>
					<g>
						<defs>
							<rect id="SVGID_00000039119644827436480040000002426325342346189234_" x="0.8" y="0.1" width="523" height="523"/>
						</defs>
						<clipPath id="SVGID_00000080904044069451532660000003822550664797927605_">
							<use xlink:href="#SVGID_00000039119644827436480040000002426325342346189234_"  style="overflow:visible;"/>
						</clipPath>
						
							<path style="clip-path:url(#SVGID_00000080904044069451532660000003822550664797927605_);fill-rule:evenodd;clip-rule:evenodd;fill:#FFFFFF;" d="
							M332.7,347.9c-7.7,0-15.8,5-15.8,13.4s8,13.1,15.8,13.1c7.7,0,15.8-4.8,15.8-13.1C348.5,352.8,340.4,347.9,332.7,347.9"/>
					</g>
				</g>
				<g>
					<g>
						<defs>
							<rect id="SVGID_00000030473494137834104450000008578729708592663936_" x="0.8" y="0.1" width="523" height="523"/>
						</defs>
						<clipPath id="SVGID_00000183236202866517739400000001042591025376573826_">
							<use xlink:href="#SVGID_00000030473494137834104450000008578729708592663936_"  style="overflow:visible;"/>
						</clipPath>
						
							<polygon style="clip-path:url(#SVGID_00000183236202866517739400000001042591025376573826_);fill-rule:evenodd;clip-rule:evenodd;fill:#FFFFFF;" points="
							106.9,319.8 119.2,319 119.2,373.2 148,373.2 148,293.4 106.9,294.6 						"/>
					</g>
				</g>
				<g>
					<g>
						<defs>
							<rect id="SVGID_00000062186270976842352750000014705207641926010800_" x="0.8" y="0.1" width="523" height="523"/>
						</defs>
						<clipPath id="SVGID_00000120539281651101860310000000540970743577256069_">
							<use xlink:href="#SVGID_00000062186270976842352750000014705207641926010800_"  style="overflow:visible;"/>
						</clipPath>
						
							<path style="clip-path:url(#SVGID_00000120539281651101860310000000540970743577256069_);fill-rule:evenodd;clip-rule:evenodd;fill:#FFFFFF;" d="
							M368,293.4l-7,47.2c6.7-2.3,14-3.5,21.2-3.5c4.5,0,16,1.5,16,7.9c0,6.3-9.2,7.9-14.1,7.9c-6.6,0-18-3.4-23.8-6.6l-3.2,21.6
							c7.5,3.7,23.5,6.5,31.9,6.5c16.9,0,38.2-9.2,38.2-28.8c0-15.3-12.7-25-27.3-25c-4,0-10.9,0.8-13.5,4.2h-0.7
							c1.4-2.9,2-6.1,2.5-9.2h34.2v-22.3L368,293.4L368,293.4z"/>
					</g>
				</g>
			</g>
		</g>
	</g>
	<g>
		<path class="st12" d="M728.4,188.5l-4.2,28.7c-6.5-6.8-13.6-11.9-21.2-15.2c-7.6-3.3-15.9-5-24.8-5c-9.2,0-17.7,1.6-25.5,4.8
			s-14.5,7.7-20,13.7c-6.5,7-11.5,15-15,24c-3.5,9.1-5.2,18.5-5.2,28.2c0,17.3,5.3,31.4,15.9,42.2c10.6,10.9,24.3,16.3,41.1,16.3
			c8.4,0,16.5-1.5,24.3-4.4s15.3-7.2,22.5-13l-5.9,32.1c-7.7,3-15,5.2-22,6.7s-13.8,2.2-20.3,2.2c-24.5,0-44.2-7.5-59.3-22.4
			c-15-15-22.5-34.6-22.5-58.9c0-13.5,2.4-26.3,7.2-38.4s11.6-22.6,20.4-31.4c8.2-8.2,17.6-14.4,28.1-18.7c10.6-4.3,21.9-6.4,34-6.4
			c10.9,0,20.6,1.2,29.3,3.7C713.9,179.8,721.6,183.5,728.4,188.5z"/>
		<path class="st12" d="M719.7,345.5L817,170.9l61.4,174.6h-27.3l-13.7-39.7h-66.9l-22.1,39.7H719.7z M781.1,283.5h49.1l-13-41.5
			c-0.6-2-1.3-4.6-2-7.9c-0.7-3.3-1.5-7.6-2.5-13c-1.7,4-3.3,7.7-5,11.3c-1.6,3.6-3.3,6.9-4.9,10L781.1,283.5z"/>
		<path class="st12" d="M887.1,345.5l22-168h26.4l-18.6,142.2h62.8l-3.6,25.8H887.1z"/>
		<path class="st12" d="M997.9,345.5l22-168h26.9l-22.4,168H997.9z"/>
		<path class="st12" d="M1062.9,345.5l22.1-168h94.3l-3,23.8h-68.2l-5.4,42.2h68l-3.1,23.5h-68.2l-7,54.3h68.2l-3.3,24.2H1062.9z"/>
		<path class="st12" d="M1190.7,345.5l22.7-174.6l91.7,105.1c3.3,3.8,6.3,7.5,9,10.9s5.2,6.8,7.5,10.2c0-3.5,0.2-7.2,0.5-11.2
			c0.3-3.9,0.9-8.9,1.7-14.9l12.6-93.5h24.7L1338.4,352l-91.9-105c-4.1-4.7-7.4-8.7-9.9-12c-2.5-3.2-4.6-6.4-6.5-9.4
			c-0.2,5.2-0.9,13.2-2.3,23.9c-0.2,1.1-0.3,1.9-0.3,2.4l-11.9,93.5L1190.7,345.5L1190.7,345.5z"/>
		<path class="st12" d="M1403.6,345.5l19-143.8h-45.3l3.2-24.2h114.7l-3.3,24.2h-42.8l-19,143.8H1403.6z"/>
		<path class="st12" d="M1496.7,345.5l22.1-168h94.3l-3,23.8h-68.2l-5.4,42.2h68l-3.1,23.5h-68.2l-7,54.3h68.2l-3.3,24.2H1496.7z"/>
	</g>
</g>
</svg>
