<?xml version="1.0" encoding="UTF-8"?>
<svg id="Layer_1" xmlns="http://www.w3.org/2000/svg" version="1.1" xmlns:xlink="http://www.w3.org/1999/xlink" viewBox="0 0 694.2 283.5">
  <!-- Generator: Adobe Illustrator 29.0.0, SVG Export Plug-In . SVG Version: 2.1.0 Build 186)  -->
  <defs>
    <style>
      .st0, .st1 {
        fill: #fff;
      }

      .st1, .st2 {
        fill-rule: evenodd;
      }

      .st3 {
        fill: red;
      }

      .st4, .st5 {
        display: none;
      }

      .st5 {
        fill: url(#linear-gradient);
      }
    </style>
    <linearGradient id="linear-gradient" x1="-13" y1="154" x2="764" y2="154" gradientUnits="userSpaceOnUse">
      <stop offset="0" stop-color="#fff"/>
      <stop offset="0" stop-color="#231f20"/>
    </linearGradient>
  </defs>
  <rect class="st5" x="-13" y="-26" width="777" height="360"/>
  <g id="loghi">
    <g class="st4">
      <g>
        <path class="st0" d="M310.6,193l13-99.1h55.6l-1.8,14h-40.2l-3.2,24.9h40.1l-1.8,13.9h-40.2l-4.1,32h40.2l-1.9,14.3h-55.7Z"/>
        <path class="st0" d="M376.3,193l35.5-50-24.1-49h16l14.8,30.5c0,0,.1.3.3.8,1.6,3.3,2.6,5.9,3.1,7.7.3-1.1.8-2.4,1.5-3.6.7-1.2,1.5-2.7,2.6-4.3l21.6-31h17.8l-35.5,49.8,24.1,49.1h-16.2l-15-31c-.5-1-.9-2.3-1.4-3.6-.5-1.4-.9-2.9-1.4-4.6-.6,1.5-1.1,2.8-1.8,4-.7,1.2-1.4,2.4-2.3,3.6l-22.2,31.6h-17.5,0Z"/>
        <path class="st0" d="M480.4,193l11.2-84.8h-26.7l1.9-14.3h67.7l-1.9,14.3h-25.2l-11.2,84.8h-15.8Z"/>
        <path class="st0" d="M550.9,193h-15.4l13-99.1h17.9c7.9,0,13.6.5,17.1,1.4s6.6,2.5,9.3,4.6c3.1,2.4,5.3,5.3,6.9,8.8,1.6,3.5,2.4,7.5,2.4,11.7,0,8.2-2.3,14.8-6.7,19.9s-10.8,8.4-18.9,9.6l27.4,42.9h-17.4l-26.3-42.3h-3.6l-5.7,42.5ZM558,138h3.1c9.7,0,16.4-1.2,19.9-3.6,3.5-2.5,5.3-6.7,5.3-12.6s-1.5-8.6-4.4-10.6-8.7-3.1-17.3-3.1h-2.5l-4.1,29.9Z"/>
        <path class="st0" d="M600.6,193l57.4-103,36.2,103h-16.1l-8-23.4h-39.5l-13,23.4h-17ZM636.8,156.3h29l-7.7-24.5c-.3-1.1-.8-2.7-1.1-4.6-.5-1.9-.9-4.5-1.5-7.7-1,2.4-1.9,4.5-2.9,6.7-1,2.2-1.9,4.1-2.8,5.9l-13,24.2Z"/>
      </g>
    </g>
    <g>
      <path class="st3" d="M0,141.5C0,63.4,63.4,0,141.5,0s141.5,63.4,141.5,141.5-63.4,141.5-141.5,141.5S0,219.6,0,141.5Z"/>
      <polygon class="st2" points="27.4 58 255.7 58 141.5 283.5 27.4 58"/>
      <path class="st1" d="M86,96.6h2c4.4,0,8.4.7,8.4,6.1s-4.3,6-8.5,6h-1.9v-12.1ZM57.2,148.5h25.4v-22.9h.4l11.4,23h30l-15.5-23.2c-1.5-2-3.1-3.2-4.3-4.3v-.6c9.6-3.2,13.8-7.8,13.8-18.6,0-18-13.7-24.8-29.8-24.8h-31.4v71.4Z"/>
      <polygon class="st1" points="120.3 100.3 134.6 99.6 134.6 148.5 160.6 148.5 160.6 99.6 174.9 100.3 174.9 77.1 120.3 77.1 120.3 100.3"/>
      <polygon class="st1" points="180 148.5 227.8 148.5 227.8 125.7 206 125.7 206 77.1 180 77.1 180 148.5"/>
      <path class="st1" d="M103.9,171.4c4.6,0,5.7,5.3,5.7,8.8s-1.2,9.5-5.7,9.5-5.7-6.2-5.7-9.5c0-3.5,1-8.8,5.7-8.8ZM103.9,158c-13,0-20.6,9.6-20.6,21.8s7.2,22.6,20.6,22.6,20.6-9.7,20.6-22.6-7.6-21.8-20.6-21.8Z"/>
      <path class="st1" d="M165.8,202v-13.2l-8.4.6-7.4,1v-.5c7.6-2.4,15.2-7.7,15.2-16.4s-9.5-15.3-18.5-15.3c-13,0-18.6,5.7-19.8,18.2h15.4c.1-2.6.6-5.4,3.8-5.4s3.5,1.5,3.5,3.4c0,3.8-6.8,10-9.5,12.3l-17,15.3h42.7Z"/>
      <path class="st1" d="M179.7,188.3c-4.2,0-8.5,2.7-8.5,7.2s4.3,7.1,8.5,7.1,8.5-2.6,8.5-7.1c0-4.6-4.4-7.2-8.5-7.2Z"/>
      <polygon class="st1" points="57.4 173.1 64.1 172.6 64.1 202 79.6 202 79.6 158.7 57.4 159.4 57.4 173.1"/>
      <path class="st1" d="M198.7,158.7l-3.7,25.6c3.6-1.2,7.6-1.9,11.4-1.9s8.6.8,8.6,4.3-5,4.3-7.6,4.3-9.7-1.8-12.9-3.5l-1.7,11.7c4.1,2,12.7,3.5,17.2,3.5,9.2,0,20.7-5,20.7-15.6s-6.9-13.5-14.8-13.5-5.9.5-7.4,2.3h-.5c.8-1.6,1.1-3.3,1.4-5h18.5v-12.1h-29.2Z"/>
    </g>
  </g>
  <g>
    <path class="st0" d="M311.8,188l11.6-87.9h18.4c10.4,0,17.8.3,22.1,1,4.3.7,7.9,1.8,10.9,3.3,6.2,3.2,10.9,8,14.2,14.4,3.3,6.4,4.9,14,4.9,22.8s-1.5,15.9-4.4,22c-2.9,6.1-7.6,11.5-13.8,16-4.2,3-9.1,5.2-14.7,6.5-5.6,1.3-14.2,2-26,2h-23.2ZM332.2,172.3h1.1c4.2.2,7.2.2,9,.2,6.4,0,11.5-.5,15.1-1.7,3.7-1.1,6.8-2.9,9.2-5.5,2.7-2.8,4.8-6.4,6.2-10.6,1.4-4.2,2.1-9,2.1-14.3,0-8.6-1.8-14.9-5.5-18.7-3.7-3.8-9.7-5.7-18.1-5.7h-11.8l-7.4,56.2Z"/>
    <path class="st0" d="M403.3,188l11.5-87.9h18.4l-11.5,87.9h-18.4Z"/>
    <path class="st0" d="M446.6,164.4c2.1,3.6,4.5,6.3,7.2,8,2.7,1.7,5.9,2.6,9.6,2.6s7-1.1,9.2-3.2c2.2-2.1,3.3-5,3.3-8.8s-.6-4.5-1.9-6.4-3.2-3.5-5.8-5c-.6-.4-1.6-.9-2.8-1.6-7.2-3.9-12.1-7.3-14.5-10-1.8-2-3.2-4.4-4.1-7-.9-2.6-1.4-5.5-1.4-8.5,0-7.6,2.7-13.9,8.2-18.9,5.4-5.1,12.3-7.6,20.6-7.6s9.4.9,13.3,2.8c3.9,1.9,7.2,4.7,9.9,8.4l-9.4,12.2c-1.6-2.9-3.5-5.1-5.8-6.5s-4.9-2.2-7.9-2.2-6.2,1-8.4,2.9c-2.2,2-3.3,4.5-3.3,7.5s3.6,8,10.9,12.1c1.4.8,2.5,1.4,3.2,1.9,6.6,3.9,11.1,7.7,13.5,11.4,2.4,3.7,3.5,8.5,3.5,14.4s-2.8,14.8-8.3,19.9c-5.5,5-12.9,7.6-22.1,7.6s-10.5-1.1-14.9-3.3c-4.4-2.2-8.2-5.6-11.7-10.1l10-12.6Z"/>
    <path class="st0" d="M574.4,184.8c-3.7,1.8-7.7,3.2-11.9,4.1-4.3.9-8.8,1.4-13.7,1.4-12.9,0-23.3-3.8-31.1-11.5-7.9-7.7-11.8-17.8-11.8-30.3s1.1-12.8,3.3-18.7c2.2-5.9,5.4-11.2,9.5-15.9,4.6-5.2,10.1-9.2,16.5-11.9,6.4-2.7,13.4-4.1,20.9-4.1s10.4.7,15,2c4.7,1.3,9.1,3.3,13.2,6l-2.6,17.2c-4.4-3.2-8.8-5.6-13-7.1-4.2-1.5-8.4-2.3-12.7-2.3-9.2,0-16.8,3.2-22.7,9.5-5.9,6.3-8.8,14.4-8.8,24.3s2.3,14.6,7,19.4,10.9,7.2,18.7,7.2,9.8-.7,14.1-2.1c4.3-1.4,8.4-3.5,12.1-6.3l-2.1,19Z"/>
    <path class="st0" d="M636.1,190.3c-13.2,0-23.7-3.8-31.7-11.5s-11.9-17.9-11.9-30.7,1.1-12.3,3.4-18.3c2.2-5.9,5.4-11.2,9.5-15.9,4.6-5.2,10.2-9.1,16.5-11.9,6.4-2.7,13.3-4.1,20.8-4.1,13.2,0,23.7,3.8,31.7,11.4,7.9,7.6,11.9,17.6,11.9,30.2s-1,12.7-3,18.4c-2,5.7-5,10.8-8.8,15.3-4.8,5.6-10.5,9.9-17.1,12.8-6.5,2.9-13.6,4.4-21.3,4.4ZM641.7,113.9c-8.7,0-16,3.2-21.7,9.6-5.8,6.4-8.6,14.4-8.6,24.1s2.3,14.7,7,19.5c4.7,4.8,10.9,7.2,18.7,7.2s15.9-3.2,21.7-9.7c5.8-6.5,8.7-14.5,8.7-24.1s-2.3-14.6-7-19.4c-4.6-4.8-10.9-7.2-18.7-7.2Z"/>
  </g>
</svg>