<?xml version="1.0" encoding="utf-8"?>
<!-- Generator: Adobe Illustrator 27.0.0, SVG Export Plug-In . SVG Version: 6.00 Build 0)  -->
<svg version="1.1" id="Layer_1" xmlns="http://www.w3.org/2000/svg" xmlns:xlink="http://www.w3.org/1999/xlink" x="0px" y="0px"
	 viewBox="0 0 776.9 283.5" style="enable-background:new 0 0 776.9 283.5;" xml:space="preserve">
<style type="text/css">
	.st0{fill:#FFFFFF;}
	.st1{fill:#FF0000;}
	.st2{fill-rule:evenodd;clip-rule:evenodd;}
	.st3{fill-rule:evenodd;clip-rule:evenodd;fill:#FFFFFF;}
</style>
<g id="loghi">
	<g>
		<g>
			<polygon class="st0" points="408,95.8 395.8,194.9 339.5,123.1 331.5,188.6 317.8,188.6 329.8,90.8 386,162.6 394.3,95.8 			"/>
			<path class="st0" d="M436.6,166.8l-11.3,21.8h-14.9l51.3-99.4l32,99.4h-14.4l-6.7-21.8H436.6z M442.5,154.9h26.2l-10-32.9
				L442.5,154.9z"/>
			<g>
				<path class="st0" d="M516,95.8h18.8c8.2,0,14.4,1.4,18.7,4.1c3.5,2.2,6.3,5.3,8.3,9.3c2,4.1,3.1,8.5,3.1,13
					c0,6.7-1.8,12.5-5.5,17.5c-5.5,7.5-14.3,11.2-26.2,11.2h-10.2l-4.6,37.6h-13.8L516,95.8z M528.2,108.6l-3.7,30.2h8.9
					c5.7,0,10-1.5,13-4.3c3.1-2.9,4.5-7.1,4.5-12.6c0-8.8-5.7-13.2-17-13.2h-5.8V108.6z"/>
				<path class="st0" d="M653.9,95.8l-6.7,54.9c-1.5,12.1-4.4,20.9-8.5,26.6c-6.7,8.7-16,13.1-27.8,13.1c-9.5,0-17.4-2.8-23.9-8.6
					c-6.3-5.9-9.5-13.1-9.5-21.7c0-1.8,0.1-3.7,0.2-5.8c0.1-2,0.3-4.2,0.7-6.5l6.3-51.8h13.7l-6.6,53.5c-0.2,1.6-0.3,3.1-0.5,4.4
					c-0.1,1.4-0.1,2.6-0.1,3.7c0,6.1,1.7,11,5.2,14.6c3.5,3.6,8.3,5.3,14.2,5.3c7,0,12.2-2.3,15.8-6.7c3.6-4.5,6-11.9,7.4-22.1
					l6.5-53L653.9,95.8L653.9,95.8z"/>
			</g>
			<polygon class="st0" points="689.9,95.8 680,175.8 706.3,175.8 704.7,188.6 664.7,188.6 676.2,95.8 			"/>
			<path class="st0" d="M776.9,95.8l-1.6,12.8h-34.1l-2.9,24h34.1l-1.5,11.9h-34.1l-3.8,31.2h34.1l-1.6,12.8h-47.8l11.4-92.7
				L776.9,95.8L776.9,95.8z M740,70.4l10.4-6.7l11.9,18.9l-7.2,4.4L740,70.4z"/>
		</g>
	</g>
	<g>
		<path class="st1" d="M0,141.5C0,63.4,63.4,0,141.5,0S283,63.4,283,141.5S219.6,283,141.5,283S0,219.6,0,141.5z"/>
		<polygon class="st2" points="27.4,58 255.7,58 141.5,283.5 		"/>
		<path class="st3" d="M86,96.6h2c4.4,0,8.4,0.7,8.4,6.1c0,5.3-4.3,6-8.5,6H86V96.6z M57.2,148.5h25.4v-22.9H83l11.4,23h30
			l-15.5-23.2c-1.5-2-3.1-3.2-4.3-4.3v-0.6c9.6-3.2,13.8-7.8,13.8-18.6c0-18-13.7-24.8-29.8-24.8H57.2V148.5z"/>
		<polygon class="st3" points="120.3,100.3 134.6,99.6 134.6,148.5 160.6,148.5 160.6,99.6 174.9,100.3 174.9,77.1 120.3,77.1 		"/>
		<polygon class="st3" points="180,148.5 227.8,148.5 227.8,125.7 206,125.7 206,77.1 180,77.1 		"/>
		<path class="st3" d="M103.9,171.4c4.6,0,5.7,5.3,5.7,8.8c0,3.3-1.2,9.5-5.7,9.5s-5.7-6.2-5.7-9.5
			C98.3,176.7,99.2,171.4,103.9,171.4z M103.9,158c-13,0-20.6,9.6-20.6,21.8c0,12.9,7.2,22.6,20.6,22.6s20.6-9.7,20.6-22.6
			C124.5,167.7,116.9,158,103.9,158z"/>
		<path class="st3" d="M165.8,202v-13.2l-8.4,0.6l-7.4,1v-0.5c7.6-2.4,15.2-7.7,15.2-16.4c0-10.1-9.5-15.3-18.5-15.3
			c-13,0-18.6,5.7-19.8,18.2h15.4c0.1-2.6,0.6-5.4,3.8-5.4c1.9,0,3.5,1.5,3.5,3.4c0,3.8-6.8,10-9.5,12.3L123.1,202H165.8z"/>
		<path class="st3" d="M179.7,188.3c-4.2,0-8.5,2.7-8.5,7.2s4.3,7.1,8.5,7.1c4.2,0,8.5-2.6,8.5-7.1
			C188.1,190.9,183.8,188.3,179.7,188.3z"/>
		<polygon class="st3" points="57.4,173.1 64.1,172.6 64.1,202 79.6,202 79.6,158.7 57.4,159.4 		"/>
		<path class="st3" d="M198.7,158.7l-3.7,25.6c3.6-1.2,7.6-1.9,11.4-1.9c2.5,0,8.6,0.8,8.6,4.3c0,3.4-5,4.3-7.6,4.3
			c-3.5,0-9.7-1.8-12.9-3.5l-1.7,11.7c4.1,2,12.7,3.5,17.2,3.5c9.2,0,20.7-5,20.7-15.6c0-8.3-6.9-13.5-14.8-13.5
			c-2.2,0-5.9,0.5-7.4,2.3h-0.5c0.8-1.6,1.1-3.3,1.4-5h18.5v-12.1L198.7,158.7L198.7,158.7z"/>
	</g>
</g>
</svg>
