<svg width="1055" height="390" viewBox="0 0 1055 390" fill="none" xmlns="http://www.w3.org/2000/svg">
<path d="M79.2626 76.5089C75.9499 73.4449 72.0646 71.064 67.8294 69.5028C63.2596 67.8 58.4276 66.9067 53.5506 66.8628C48.6423 66.8085 43.7506 67.4408 39.0177 68.7413C34.3404 69.9841 29.9077 72.0097 25.9076 74.732C22.036 77.3888 18.7503 80.8099 16.2529 84.7843C13.6424 88.996 12.1393 93.7985 11.8829 98.7458C11.578 103.569 12.2894 107.783 14.0679 111.336C15.8449 114.902 18.3151 118.077 21.3344 120.678C24.4762 123.401 27.9822 125.673 31.7513 127.43C35.5864 129.23 39.5226 130.807 43.5402 132.152C46.2842 133.066 49.0789 134.03 51.8737 135.096C54.5543 136.114 57.0976 137.462 59.4451 139.107C61.6139 140.655 63.3892 142.689 64.6281 145.047C65.8476 147.383 66.305 150.327 65.8477 153.779C65.5459 156.916 64.4436 159.922 62.6464 162.512C60.9418 164.877 58.7825 166.879 56.2946 168.401C53.6941 169.967 50.8393 171.067 47.8594 171.65C44.8384 172.303 41.7526 172.61 38.662 172.564C35.3352 172.548 32.0295 172.035 28.8549 171.041C26.0131 170.168 23.3832 168.716 21.1311 166.776C18.9835 164.87 17.3128 162.488 16.2529 159.821C15.135 157.079 14.6777 153.83 14.9318 150.073L0.0431913 149.972C-0.21088 155.506 0.652962 160.43 2.63472 164.695C4.56006 168.897 7.38793 172.623 10.9174 175.61C14.5624 178.655 18.7525 180.98 23.2653 182.464C28.0252 184.094 33.0204 184.935 38.0523 184.952C43.0338 185.05 48.0063 184.487 52.8392 183.276C57.5675 182.149 62.0695 180.226 66.1525 177.59C70.1039 175.03 73.4784 171.675 76.0613 167.741C78.7037 163.781 80.2281 159.059 80.6346 153.576C80.9903 148.499 80.3297 144.133 78.6528 140.376C76.9976 136.689 74.5922 133.387 71.5897 130.679C68.4254 127.896 64.8845 125.571 61.0711 123.775C57.0385 121.877 52.8985 120.216 48.6724 118.8C46.2333 117.987 43.6926 117.073 40.9487 116.058C38.3316 115.084 35.8543 113.769 33.5806 112.149C31.4266 110.644 29.6096 108.707 28.2451 106.463C26.8731 104.229 26.4158 101.538 26.7715 98.3904C27.0463 95.2954 28.0756 92.3147 29.7695 89.7089C31.3596 87.3245 33.4166 85.2866 35.8164 83.7181C38.2803 82.1149 40.9934 80.9311 43.8451 80.2151C46.8218 79.4935 49.8781 79.1523 52.9408 79.1997C60.004 79.3012 65.3903 81.332 69.0489 85.1904C72.7584 89.0997 74.3844 94.5319 73.9779 101.538H88.9173C89.1766 96.6624 88.4151 91.7862 86.6815 87.2212C84.9835 83.1725 82.4564 79.5235 79.2626 76.5089Z" fill="#FFFFFF"/>
<path d="M168.95 68.4874L155.687 146.469C155.121 150.306 153.937 154.026 152.181 157.486C150.564 160.665 148.357 163.508 145.677 165.862C142.996 168.193 139.89 169.985 136.53 171.142C132.834 172.377 128.939 172.91 125.046 172.716C121.083 172.615 117.729 171.904 114.934 170.533C112.256 169.301 109.932 167.416 108.176 165.05C106.398 162.616 105.214 159.799 104.721 156.826C104.102 153.408 103.999 149.917 104.416 146.469L117.627 68.4874H102.993L89.7304 146.367C89.019 152.104 89.3747 157.333 90.7466 162.055C92.0127 166.568 94.289 170.734 97.4033 174.239C100.569 177.728 104.5 180.439 108.887 182.159C113.787 184.111 119.009 185.127 124.284 185.155C130.046 185.293 135.788 184.435 141.256 182.616C146.348 180.898 151.084 178.265 155.23 174.849C159.359 171.42 162.792 167.232 165.342 162.512C168.09 157.464 169.898 151.959 170.677 146.266L183.94 68.4367L168.95 68.4874Z" fill="#FFFFFF"/>
<path d="M262.397 118.85C264.938 114.383 266.462 109.103 266.97 103.061C267.428 97.6288 266.92 92.8058 265.395 88.5412C263.982 84.4672 261.632 80.7809 258.535 77.7782C255.351 74.7592 251.556 72.4568 247.407 71.0259C242.802 69.4013 237.961 68.5437 233.077 68.4874L192.832 68.3859L172.812 183.429H187.7L195.526 138.396L222.864 138.498C228.335 138.517 233.785 137.817 239.073 136.416C243.964 135.144 248.568 132.956 252.641 129.969C256.66 127.012 259.989 123.218 262.397 118.85ZM252.184 103.163C251.813 106.735 250.706 110.193 248.931 113.316C247.303 116.095 245.145 118.527 242.58 120.475C239.925 122.405 236.949 123.849 233.789 124.74C230.368 125.712 226.826 126.19 223.27 126.161L197.66 126.11L205.485 80.9766L232.772 81.0781C235.819 81.1326 238.832 81.7345 241.665 82.8551C244.13 83.8028 246.334 85.3243 248.092 87.2933C249.851 89.2623 251.114 91.622 251.777 94.1766C252.462 97.1219 252.599 100.168 252.184 103.163Z" fill="#FFFFFF"/>
<path d="M333.029 183.479L335.265 171.092H278.963L286.077 130.324H334.452L336.586 117.936H288.211L294.613 80.9258H350.052L352.237 68.4367H281.961L261.94 183.479H333.029Z" fill="#FFFFFF"/>
<path d="M757.226 114.332L742.185 201.147L709.41 114.332H677.804L653.972 251.865H686.341L701.483 165.05L734.36 251.865H765.611L789.544 114.332H757.226Z" fill="#FFFFFF"/>
<path d="M877.809 114.332L862.768 201.147L829.992 114.332H798.437L774.605 251.865H806.923L822.065 165.05L854.942 251.865H886.244L910.127 114.332H877.809Z" fill="#FFFFFF"/>
<path d="M919.019 114.332L895.086 251.865H927.403L951.235 114.332H919.019Z" fill="#FFFFFF"/>
<path d="M1033.81 185.713C1029.97 182.069 1025.64 178.977 1020.95 176.524C1016.07 173.948 1011.03 171.676 1005.86 169.721C1004.03 169.01 1001.85 168.198 999.407 167.284C996.966 166.373 994.631 165.199 992.446 163.781C990.362 162.522 988.563 160.845 987.161 158.856C985.789 156.978 985.332 154.693 985.789 152.053C986.089 149.67 987.018 147.41 988.482 145.504C989.891 143.687 991.633 142.154 993.614 140.986C995.659 139.803 997.868 138.93 1000.17 138.396C1002.45 137.845 1004.79 137.589 1007.13 137.635C1012.72 137.787 1016.79 139.412 1019.28 142.61C1021.77 145.809 1022.93 149.972 1022.83 155.201L1055 155.302C1055.05 148.55 1053.93 142.559 1051.64 137.279C1049.48 132.181 1046.2 127.635 1042.04 123.978C1037.78 120.283 1032.84 117.439 1027.51 115.601C1021.68 113.615 1015.57 112.57 1009.42 112.504C1005.24 112.449 1001.06 112.721 996.917 113.316C992.686 113.913 988.518 114.898 984.468 116.261C980.471 117.608 976.623 119.36 972.984 121.49C969.437 123.559 966.217 126.142 963.431 129.156C960.658 132.136 958.392 135.548 956.723 139.259C954.936 143.245 953.936 147.537 953.776 151.901C953.471 157.942 954.437 163.273 956.723 167.792C958.982 172.344 962.106 176.413 965.921 179.773C969.897 183.3 974.322 186.288 979.081 188.658C983.855 191.103 988.758 193.289 993.767 195.207C996.104 196.07 998.493 197.035 1000.98 198.101C1003.33 199.086 1005.54 200.347 1007.59 201.858C1009.48 203.253 1011.02 205.058 1012.11 207.138C1013.18 209.219 1013.48 211.758 1012.97 214.804C1012.6 217.079 1011.74 219.246 1010.43 221.15C1009.19 222.892 1007.62 224.375 1005.81 225.516C1003.94 226.663 1001.9 227.503 999.763 228.004C997.532 228.533 995.247 228.805 992.954 228.816C985.636 228.816 980.403 227.039 977.252 223.435C974.102 219.83 972.679 214.499 972.984 207.391L940.564 207.29C940.412 214.855 941.682 221.505 944.274 227.293C946.744 232.884 950.443 237.847 955.097 241.813C959.91 245.809 965.448 248.843 971.409 250.748C977.88 252.834 984.63 253.929 991.429 253.997C997.741 254.064 1004.04 253.365 1010.18 251.916C1016.15 250.558 1021.86 248.206 1027.05 244.961C1032.05 241.809 1036.31 237.618 1039.55 232.674C1042.85 227.648 1044.68 221.658 1045.14 214.601C1045.55 208.356 1044.63 202.924 1042.6 198.202C1040.51 193.51 1037.52 189.269 1033.81 185.713Z" fill="#FFFFFF"/>
<path d="M645.943 193.582L650.212 168.959H599.55L604.682 139.97H664.592L669.013 114.383H474.902L474.953 114.332C475.157 113.875 475.411 113.418 475.614 112.961C476.02 112.098 476.478 111.286 476.833 110.423L478.51 106.513C478.917 105.6 479.272 104.686 479.679 103.772C480.39 102.097 481.102 100.472 481.762 98.7458L484.557 91.0796C484.71 90.6227 484.913 90.2166 485.065 89.7597C485.37 88.9473 485.675 88.135 485.929 87.272L489.385 76.1028C489.74 74.6305 490.096 73.1582 490.502 71.6859C491.366 68.2843 492.179 65.0859 492.84 61.8875L494.212 54.8813C494.618 52.749 495.025 50.7183 495.279 48.6875C495.482 47.2152 495.685 45.7429 495.889 44.3214C496.244 41.6814 496.6 39.1429 496.803 36.706L497.667 26.0953L497.972 13.2507L497.464 0.152307L495.076 0L493.907 12.9969L492.281 25.4861L490.502 35.7414C489.029 43.4075 487.047 51.5306 484.76 59.8567C483.897 62.8521 482.931 65.8474 481.864 69.0459L480.492 73.3105L476.579 83.9212C476.274 84.6827 475.97 85.4443 475.614 86.2058C475.423 86.6199 475.253 87.0435 475.106 87.475L472.006 94.735C471.295 96.3089 470.583 97.8319 469.821 99.355C469.415 100.218 468.957 101.132 468.551 101.995C467.026 105.346 465.299 108.544 463.469 111.946C462.605 113.52 461.792 115.093 460.929 116.667C455.145 126.675 448.782 136.337 441.873 145.606C434.778 154.878 427.107 163.695 418.905 172.005L404.931 133.929C408.413 132.696 411.739 131.061 414.84 129.055C417.86 127.144 420.596 124.82 422.97 122.15C425.317 119.51 427.252 116.532 428.712 113.316C430.237 109.897 431.149 106.237 431.405 102.503C431.964 96.9181 431.456 92.0443 429.932 87.8304C428.522 83.8159 426.149 80.2077 423.021 77.3212C419.778 74.4116 415.949 72.2303 411.791 70.9243C407.088 69.4383 402.191 68.6514 397.258 68.589L361.18 68.5382L341.159 183.581H356.099L364.178 137.026H390.754L406.811 183.276C401.882 187.592 396.801 191.856 391.465 195.918C382.206 202.819 372.551 209.176 362.552 214.956L357.979 217.393C354.523 219.271 351.221 221.048 347.765 222.622C346.901 223.028 345.987 223.485 345.123 223.891C343.548 224.653 342.023 225.414 340.499 226.074L333.232 229.171C332.775 229.374 332.368 229.527 331.911 229.73C331.149 230.034 330.437 230.39 329.675 230.644L319.106 234.553C317.632 235.01 316.209 235.518 314.787 235.974C311.636 237.041 308.638 238.005 305.64 238.818C297.408 241.153 289.278 243.082 281.554 244.554L271.341 246.331L262.55 247.499L245.781 249.174L245.832 251.459L255.588 251.865L258.993 251.967L271.899 251.662L282.418 250.799C284.908 250.596 287.398 250.241 290.04 249.885C291.463 249.682 292.937 249.479 294.41 249.276C296.392 249.073 298.323 248.667 300.406 248.261L307.673 246.839C310.874 246.179 314.075 245.367 317.48 244.504C318.903 244.148 320.376 243.742 321.901 243.387L333.029 239.934C333.842 239.681 334.706 239.376 335.519 239.071C335.968 238.924 336.408 238.755 336.84 238.564L344.513 235.771C346.19 235.111 347.867 234.401 349.544 233.69C350.458 233.284 351.373 232.928 352.288 232.522L356.2 230.847L358.792 229.628C359.249 229.374 359.656 229.171 360.113 228.968L367.989 225.059C378.716 219.378 389.039 212.966 398.884 205.868C408.957 198.397 418.499 190.238 427.442 181.449C436.206 172.483 444.371 162.952 451.884 152.916L457.168 145.402C458.388 143.727 459.455 141.95 460.522 140.275C460.573 140.173 460.674 140.021 460.725 139.919H499.852L480.39 251.814H512.81L530.9 147.484L516.367 139.869H572.313L552.852 251.865H645.029L649.449 226.379H589.59L595.383 193.582H645.943ZM388.112 124.638L366.262 124.536L373.833 80.9258L396.852 81.0274C399.898 81.0729 402.917 81.6042 405.795 82.6012C408.255 83.4445 410.483 84.853 412.299 86.7135C414.06 88.5671 415.32 90.8386 415.958 93.3135C416.738 96.2784 416.894 99.3729 416.415 102.401C416.037 105.804 414.909 109.081 413.112 111.996C411.432 114.695 409.261 117.054 406.71 118.952C404.096 120.845 401.173 122.271 398.071 123.166C394.849 124.172 391.488 124.669 388.112 124.638Z" fill="#FFFFFF"/>
<path d="M505.025 347.673L475.824 347.596L478.745 331.006L505.716 331.082C509.764 331.082 513.452 330.391 516.782 329.009C520.163 327.575 522.955 325.475 525.158 322.71C527.361 319.894 528.744 316.386 529.307 312.187C529.82 308.654 529.563 305.505 528.539 302.74C527.566 299.924 525.875 297.696 523.467 296.058C521.111 294.368 518.088 293.446 514.4 293.292L492.192 293.216L475.671 388.382H455L474.364 276.548L515.015 276.625C522.033 276.778 528.283 278.289 533.764 281.157C539.297 283.973 543.549 287.993 546.52 293.216C549.491 298.387 550.67 304.66 550.055 312.034C549.389 320.124 546.904 326.832 542.601 332.158C538.298 337.432 532.842 341.349 526.234 343.91C519.625 346.419 512.556 347.673 505.025 347.673Z" fill="#FFFFFF"/>
<path d="M615.381 371.791L612.461 388.382H557.749L560.669 371.791H615.381ZM583.568 276.548L564.127 388.382H543.456L562.82 276.548H583.568Z" fill="#FFFFFF"/>
<path d="M693.463 276.548H714.057L701.378 350.746C700.199 358.939 697.484 366.005 693.232 371.945C689.031 377.834 683.627 382.34 677.018 385.463C670.41 388.587 662.982 390.098 654.734 389.995C646.998 389.841 640.287 388.152 634.601 384.926C628.966 381.7 624.739 377.194 621.922 371.407C619.155 365.57 618.233 358.708 619.155 350.822L631.835 276.548H652.429L639.826 350.899C639.314 354.996 639.493 358.708 640.364 362.037C641.235 365.365 642.926 368.053 645.436 370.102C647.946 372.099 651.455 373.174 655.963 373.328C660.728 373.481 664.826 372.636 668.258 370.793C671.691 368.898 674.457 366.235 676.557 362.805C678.709 359.374 680.118 355.38 680.784 350.822L693.463 276.548Z" fill="#FFFFFF"/>
<path d="M766.473 358.811C766.934 355.943 766.678 353.536 765.705 351.591C764.782 349.594 763.399 347.929 761.555 346.598C759.711 345.215 757.636 344.063 755.331 343.142C753.025 342.169 750.746 341.273 748.492 340.453C744.547 339.019 740.679 337.355 736.888 335.461C733.097 333.515 729.665 331.211 726.591 328.548C723.518 325.885 721.11 322.762 719.368 319.177C717.678 315.593 716.986 311.394 717.293 306.58C717.652 301.153 719.163 296.442 721.827 292.447C724.542 288.402 728 285.074 732.201 282.462C736.402 279.851 740.961 277.931 745.879 276.702C750.848 275.473 755.766 274.909 760.633 275.012C767.498 275.114 773.619 276.574 778.998 279.39C784.429 282.155 788.655 286.098 791.678 291.219C794.751 296.288 796.186 302.33 795.981 309.346H775.464C775.669 305.71 775.182 302.586 774.004 299.975C772.877 297.312 771.084 295.264 768.625 293.83C766.166 292.345 763.066 291.551 759.327 291.449C756.048 291.398 752.872 291.91 749.798 292.985C746.724 294.06 744.086 295.725 741.883 297.978C739.68 300.231 738.323 303.098 737.811 306.58C737.401 309.141 737.759 311.343 738.886 313.186C740.013 315.029 741.55 316.591 743.497 317.871C745.495 319.151 747.621 320.252 749.875 321.174C752.18 322.045 754.281 322.813 756.176 323.478C760.326 324.963 764.321 326.704 768.164 328.701C772.006 330.698 775.412 333.08 778.384 335.845C781.355 338.61 783.635 341.861 785.223 345.599C786.811 349.337 787.426 353.69 787.067 358.657C786.657 364.187 785.146 368.949 782.533 372.943C779.921 376.938 776.539 380.215 772.39 382.775C768.292 385.284 763.784 387.128 758.866 388.305C753.999 389.483 749.081 390.046 744.112 389.995C738.681 389.893 733.584 389.048 728.82 387.46C724.056 385.822 719.855 383.466 716.218 380.394C712.632 377.322 709.865 373.584 707.919 369.18C705.972 364.725 705.101 359.63 705.306 353.895L725.9 353.972C725.695 357.198 725.977 360.04 726.745 362.497C727.514 364.904 728.743 366.927 730.434 368.565C732.124 370.153 734.199 371.382 736.658 372.252C739.117 373.071 741.934 373.507 745.111 373.558C748.389 373.609 751.54 373.123 754.562 372.099C757.636 371.074 760.249 369.487 762.4 367.336C764.552 365.135 765.91 362.293 766.473 358.811Z" fill="#FFFFFF"/>
</svg>
