<svg xmlns="http://www.w3.org/2000/svg" xmlns:xlink="http://www.w3.org/1999/xlink" width="235.503" height="48.959" viewBox="0 0 235.503 48.959">
  <defs>
    <clipPath id="clip-path">
      <path id="Clip_14" data-name="Clip 14" d="M0,0H21.663V22.791H0Z" transform="translate(0.116 0.238)" fill="none"/>
    </clipPath>
    <clipPath id="clip-path-2">
      <path id="Clip_18" data-name="Clip 18" d="M2.347.269C2.707,8.041,2.564,19.084,0,25.263H0a4.1,4.1,0,0,0,1.368.5h0c3.432.457,7.781-2.544,12.1-6.853h0c-.827-2.668-.568-4.98-.778-5.446h0c-.138-.3-.456-.111-.7.08h0c-.191.149-.334.3-.309.21h0c.833-2.827.179-3.261.179-3.261h0c-.251-.253-.682-.052-1.013.151h0c-.3.182-.516.366-.442.209h0c.441-1.185.8-3.872.06-4.332h0c-.342-.21-.717.007-1.009.223h0c-.246.183-.433.366-.489.291h0c.2-3.537-1.028-3.678-1.028-3.678h0c-.477-.042-.821,1.207-.893,1.26h0C5.833-1.267,5.1.78,5.1.78h0s-.6,4.667-.58,4.173h0C3.769.775,3.1,0,2.712,0h0c-.229,0-.364.269-.364.269" transform="translate(0.42 0.041)" fill="none"/>
    </clipPath>
    <linearGradient id="linear-gradient" y1="0.483" x2="1" y2="0.483" gradientUnits="objectBoundingBox">
      <stop offset="0" stop-color="#2aac75"/>
      <stop offset="1" stop-color="#1b5a9c"/>
    </linearGradient>
    <clipPath id="clip-path-3">
      <path id="Clip_21" data-name="Clip 21" d="M6.978,6.662c-.814,1.485-1.709,3.435-2,4.026h0c.683-2.763.542-4.4.452-9.075h0c-3.576,5.909-1.515,8.366-.806,9.9h0c-.5,1.149-.972,2.6-1.049,2.839h0c-.26-1.976-1.92-4.094-3.1-8.531h0C-1.148,11.939,1.841,15,3.106,16.13h0c-.038.166-.076.332-.115.5h0c-.033.171-.073.382-.112.627h0c0,.03-.009.059-.014.09h0c0,.032-.01.067-.014.1h0c-.013.089-.026.178-.038.267h0a16.486,16.486,0,0,0-.081,3.566h0a22.34,22.34,0,0,0-1.638,1.968h0A5.829,5.829,0,0,1,3,23.011H3a10.292,10.292,0,0,0,1.875,4.1h0c.064.079.125.154.181.224h0l.023.026h0a6.975,6.975,0,0,0,.511.538h0a.331.331,0,0,0,.042.038h0c.1.08.168.12.19.111h0l.008-.007c.006-.015-.007-.051-.049-.115h0a14.3,14.3,0,0,1-1.8-4.758h0c2.346.714,3.523,3.554,4.811,7.007h0c1.447,3.879,3.035,8.526,6.584,11.8h0a12.071,12.071,0,0,0,1.511,1.217h0c6.327,4.341,16.1,2.7,16.758,2.6h0a18.468,18.468,0,0,0,7.783,2.094h.009c1.209,0,1.909-.237,1.937-.477h0c.305-.482-1.763-1.445-1.763-1.445h0s2.643.688,2.643-.034h0c0-.723-1.8-1.274-1.694-1.377h0a2.03,2.03,0,0,1,.565-.006h0c.723.028,1.875.056,1.875-.476h0c.069-1.067-1.525-1.41-1.525-1.41h0s2.169-.068,2.2-.86h0c0-1.067-2.3-.861-1.592-1.377h0c2.609-1.411-.136-1.79-3.865-1.376h0a24.361,24.361,0,0,1-7.027-.5h0c-.949-.22-1.348-.435-.7-.5h0c1.2-.12,5.2-2.5,8.27-6.7h0q.081-.111.162-.226h0c.367-.516.719-1.058,1.049-1.625h0a29.309,29.309,0,0,0,1.936-4.591h0c.529-1.195,1.745-1.456,1.94-2.442h0c.09-.629-1.291-.345-1.087-.482h0c2.746-1.859,2.2-2.753,2.2-2.753h0c-.066-.517-.874-.5-1.318-.491h0c-.236.007-.37.014-.24-.058h0c1.152-.448,3.185-3.406,2.982-4.4h0c-.2-1-1.526-.55-1.526-.792h0c2.645-3.235,1.594-3.991,1.594-3.991h0c-.273-.447-1.594.586-1.695.586h0c3.017-6.264.881-5,.881-5h0s-3.8,4.038-3.435,3.579h0c3.525-7.157,1.266-5.964,1.266-5.964h0a121.114,121.114,0,0,1-13.15,16.844h0c-4.386,4.49-8.792,7.608-12.249,7.106h0A4.082,4.082,0,0,1,18.7,26.11h0c-4.234-2.484-8.223-11.97-15.137-5.651h0c.01-.182.032-.586.057-1.018h0a18.949,18.949,0,0,1,.141-2.159h0c.046-.375.1-.757.172-1.146h0c1.761-.224,4.869-.124,7.682-6.935h0C7.5,12.113,6.065,12.968,4.04,15.5h0a5.033,5.033,0,0,1,.139-.629h0c.31-1.289,1-3.284,1.206-3.874h0c.007-.015.012-.028.019-.043h0C6.93,10.736,10.5,9.8,12.6,4.989h0A43.376,43.376,0,0,0,6.116,9.326h0c.107-.247,1.21-2.373,1.21-2.373h0C9.415,6.146,9.582,4.477,11.952,0h0C7.232,3.117,7.016,5.6,6.978,6.662" transform="translate(0.288 0.11)" fill="none"/>
    </clipPath>
    <linearGradient id="linear-gradient-2" x1="0" y1="0.5" x2="1" y2="0.5" xlink:href="#linear-gradient"/>
  </defs>
  <g id="Group_23" data-name="Group 23" transform="translate(-0.288 -1.031)">
    <path id="Fill_1" data-name="Fill 1" d="M8.086,5.286H0V0H23V5.286H14.914V30H8.086Z" transform="translate(66 11.99)" fill="#1f599c"/>
    <path id="Fill_2" data-name="Fill 2" d="M11.462,23a11.687,11.687,0,0,1-8.218-2.965A10.982,10.982,0,0,1,0,11.795v-.337A12.655,12.655,0,0,1,.867,6.735,10.518,10.518,0,0,1,3.254,3.122,11.323,11.323,0,0,1,11.293,0a10.778,10.778,0,0,1,7.479,2.649,9.367,9.367,0,0,1,2.352,3.482A13.8,13.8,0,0,1,22,11.2V12.89H6.172c.167,3.668,2.156,5.772,5.458,5.772a5.4,5.4,0,0,0,3.2-.843,3.5,3.5,0,0,0,1.375-2.233h5.752a7.857,7.857,0,0,1-3.264,5.492A12.361,12.361,0,0,1,11.462,23ZM11.293,4.212a4.7,4.7,0,0,0-3.369,1.3A6.3,6.3,0,0,0,6.255,9.141H16.08a5.626,5.626,0,0,0-1.386-3.712A4.592,4.592,0,0,0,11.293,4.212Z" transform="translate(87 19.99)" fill="#1f599c"/>
    <path id="Fill_4" data-name="Fill 4" d="M0,31H6V0H0Z" transform="translate(112 10.99)" fill="#1f599c"/>
    <g id="Group_16" data-name="Group 16" transform="translate(121 19.99)">
      <path id="Fill_5" data-name="Fill 5" d="M11.286,22.792a11.465,11.465,0,0,1-8.092-2.938A10.918,10.918,0,0,1,0,11.687v-.333a12.61,12.61,0,0,1,.854-4.68A10.428,10.428,0,0,1,3.2,3.094,11.112,11.112,0,0,1,11.12,0a10.575,10.575,0,0,1,7.365,2.625A9.285,9.285,0,0,1,20.8,6.075a13.745,13.745,0,0,1,.862,5.028v1.669H6.078c.165,3.634,2.123,5.719,5.375,5.719a5.3,5.3,0,0,0,3.152-.835,3.479,3.479,0,0,0,1.354-2.212h5.663a7.794,7.794,0,0,1-3.214,5.442A12.115,12.115,0,0,1,11.286,22.792ZM11.12,4.174A4.609,4.609,0,0,0,7.8,5.458a6.258,6.258,0,0,0-1.644,3.6h9.675A5.6,5.6,0,0,0,14.469,5.38,4.506,4.506,0,0,0,11.12,4.174Z" transform="translate(0.256 0.238)" fill="#1f599c"/>
      <path id="Fill_7" data-name="Fill 7" d="M5.995,29.762H0V.5H5.995V3.923A7.917,7.917,0,0,1,8.7,1.179,8.044,8.044,0,0,1,12.9,0,9.356,9.356,0,0,1,16.6.732,8.458,8.458,0,0,1,19.6,2.885a12.209,12.209,0,0,1,2.729,8.3v.333a12.407,12.407,0,0,1-2.7,8.344A8.683,8.683,0,0,1,12.9,22.791a8.488,8.488,0,0,1-4.289-1.1,6.809,6.809,0,0,1-2.615-2.7V29.761ZM11.08,4.633A4.823,4.823,0,0,0,7.256,6.287a7.479,7.479,0,0,0-1.468,4.941v.334a7.369,7.369,0,0,0,1.442,4.9,4.865,4.865,0,0,0,3.891,1.612,4.586,4.586,0,0,0,3.8-1.659,7.71,7.71,0,0,0,1.323-4.852v-.334A7.567,7.567,0,0,0,14.8,6.271,4.664,4.664,0,0,0,11.08,4.633Z" transform="translate(24.611 0.238)" fill="#1f599c"/>
      <path id="Fill_9" data-name="Fill 9" d="M7.235,22.792a8.055,8.055,0,0,1-5.09-1.534A6.024,6.024,0,0,1,0,16.279a5.835,5.835,0,0,1,3.142-5.416c1.883-1.06,4.609-1.6,8.1-1.6h2.439V8.39a4.693,4.693,0,0,0-.734-2.974,3.321,3.321,0,0,0-2.781-1.032C8,4.384,6.762,5.423,6.491,7.472H.827A7.235,7.235,0,0,1,3.84,1.795,11.558,11.558,0,0,1,10.542,0a10.238,10.238,0,0,1,6.512,1.826C18.741,3.178,19.6,5.288,19.6,8.1V22.333h-5.83V19.7a6.912,6.912,0,0,1-2.46,2.2A8.584,8.584,0,0,1,7.235,22.792Zm4.134-9.934a9.241,9.241,0,0,0-4.052.668A2.5,2.5,0,0,0,5.87,15.946c0,1.72,1.087,2.63,3.143,2.63a5.336,5.336,0,0,0,3.328-1.033,3.52,3.52,0,0,0,1.343-2.848V12.857Z" transform="translate(48.304 0.237)" fill="#1f599c"/>
      <path id="Fill_11" data-name="Fill 11" d="M0,11.688v-.333C0,4.3,5,0,11.163,0c5,0,9.631,2.213,10.169,8.474H15.669a3.992,3.992,0,0,0-4.382-3.716c-3.1,0-5.168,2.337-5.168,6.513V11.6c0,4.383,1.943,6.637,5.291,6.637a4.4,4.4,0,0,0,4.631-4.216h5.415c-.33,5.177-4.051,8.766-10.336,8.766C4.8,22.791,0,18.826,0,11.688" transform="translate(70.468 0.238)" fill="#1f599c"/>
      <g id="Group_15" data-name="Group 15" transform="translate(93.012)">
        <path id="Clip_14-2" data-name="Clip 14" d="M0,0H21.663V22.791H0Z" transform="translate(0.116 0.238)" fill="none"/>
        <g id="Group_15-2" data-name="Group 15" clip-path="url(#clip-path)">
          <path id="Fill_13" data-name="Fill 13" d="M11.286,22.792a11.465,11.465,0,0,1-8.092-2.938A10.918,10.918,0,0,1,0,11.687v-.333a12.611,12.611,0,0,1,.854-4.68A10.428,10.428,0,0,1,3.2,3.094,11.112,11.112,0,0,1,11.12,0a10.575,10.575,0,0,1,7.365,2.625A9.285,9.285,0,0,1,20.8,6.075a13.745,13.745,0,0,1,.862,5.028v1.669H6.078c.165,3.634,2.123,5.719,5.375,5.719a5.3,5.3,0,0,0,3.152-.835,3.482,3.482,0,0,0,1.355-2.212h5.663a7.8,7.8,0,0,1-3.214,5.442A12.114,12.114,0,0,1,11.286,22.792ZM11.12,4.174A4.61,4.61,0,0,0,7.8,5.458a6.254,6.254,0,0,0-1.643,3.6h9.675A5.6,5.6,0,0,0,14.469,5.38,4.506,4.506,0,0,0,11.12,4.174Z" transform="translate(0.116 0.238)" fill="#1f599c"/>
        </g>
      </g>
    </g>
    <g id="Group_19" data-name="Group 19" transform="translate(18 0.99)">
      <path id="Clip_18-2" data-name="Clip 18" d="M2.347.269C2.707,8.041,2.564,19.084,0,25.263H0a4.1,4.1,0,0,0,1.368.5h0c3.432.457,7.781-2.544,12.1-6.853h0c-.827-2.668-.568-4.98-.778-5.446h0c-.138-.3-.456-.111-.7.08h0c-.191.149-.334.3-.309.21h0c.833-2.827.179-3.261.179-3.261h0c-.251-.253-.682-.052-1.013.151h0c-.3.182-.516.366-.442.209h0c.441-1.185.8-3.872.06-4.332h0c-.342-.21-.717.007-1.009.223h0c-.246.183-.433.366-.489.291h0c.2-3.537-1.028-3.678-1.028-3.678h0c-.477-.042-.821,1.207-.893,1.26h0C5.833-1.267,5.1.78,5.1.78h0s-.6,4.667-.58,4.173h0C3.769.775,3.1,0,2.712,0h0c-.229,0-.364.269-.364.269" transform="translate(0.42 0.041)" fill="none"/>
      <g id="Group_19-2" data-name="Group 19" clip-path="url(#clip-path-2)">
        <path id="Fill_17" data-name="Fill 17" d="M2.347.269C2.707,8.041,2.564,19.084,0,25.263H0a4.1,4.1,0,0,0,1.368.5h0c3.432.457,7.781-2.544,12.1-6.853h0c-.827-2.668-.568-4.98-.778-5.446h0c-.138-.3-.456-.111-.7.08h0c-.191.149-.334.3-.309.21h0c.833-2.827.179-3.261.179-3.261h0c-.251-.253-.682-.052-1.013.151h0c-.3.182-.516.366-.442.209h0c.441-1.185.8-3.872.06-4.332h0c-.342-.21-.717.007-1.009.223h0c-.246.183-.433.366-.489.291h0c.2-3.537-1.028-3.678-1.028-3.678h0c-.477-.042-.821,1.207-.893,1.26h0C5.833-1.267,5.1.78,5.1.78h0s-.6,4.667-.58,4.173h0C3.769.775,3.1,0,2.712,0h0c-.229,0-.364.269-.364.269" transform="translate(0.42 0.041)" fill="url(#linear-gradient)"/>
      </g>
    </g>
    <g id="Group_22" data-name="Group 22" transform="translate(0 0.99)">
      <path id="Clip_21-2" data-name="Clip 21" d="M6.978,6.662c-.814,1.485-1.709,3.435-2,4.026h0c.683-2.763.542-4.4.452-9.075h0c-3.576,5.909-1.515,8.366-.806,9.9h0c-.5,1.149-.972,2.6-1.049,2.839h0c-.26-1.976-1.92-4.094-3.1-8.531h0C-1.148,11.939,1.841,15,3.106,16.13h0c-.038.166-.076.332-.115.5h0c-.033.171-.073.382-.112.627h0c0,.03-.009.059-.014.09h0c0,.032-.01.067-.014.1h0c-.013.089-.026.178-.038.267h0a16.486,16.486,0,0,0-.081,3.566h0a22.34,22.34,0,0,0-1.638,1.968h0A5.829,5.829,0,0,1,3,23.011H3a10.292,10.292,0,0,0,1.875,4.1h0c.064.079.125.154.181.224h0l.023.026h0a6.975,6.975,0,0,0,.511.538h0a.331.331,0,0,0,.042.038h0c.1.08.168.12.19.111h0l.008-.007c.006-.015-.007-.051-.049-.115h0a14.3,14.3,0,0,1-1.8-4.758h0c2.346.714,3.523,3.554,4.811,7.007h0c1.447,3.879,3.035,8.526,6.584,11.8h0a12.071,12.071,0,0,0,1.511,1.217h0c6.327,4.341,16.1,2.7,16.758,2.6h0a18.468,18.468,0,0,0,7.783,2.094h.009c1.209,0,1.909-.237,1.937-.477h0c.305-.482-1.763-1.445-1.763-1.445h0s2.643.688,2.643-.034h0c0-.723-1.8-1.274-1.694-1.377h0a2.03,2.03,0,0,1,.565-.006h0c.723.028,1.875.056,1.875-.476h0c.069-1.067-1.525-1.41-1.525-1.41h0s2.169-.068,2.2-.86h0c0-1.067-2.3-.861-1.592-1.377h0c2.609-1.411-.136-1.79-3.865-1.376h0a24.361,24.361,0,0,1-7.027-.5h0c-.949-.22-1.348-.435-.7-.5h0c1.2-.12,5.2-2.5,8.27-6.7h0q.081-.111.162-.226h0c.367-.516.719-1.058,1.049-1.625h0a29.309,29.309,0,0,0,1.936-4.591h0c.529-1.195,1.745-1.456,1.94-2.442h0c.09-.629-1.291-.345-1.087-.482h0c2.746-1.859,2.2-2.753,2.2-2.753h0c-.066-.517-.874-.5-1.318-.491h0c-.236.007-.37.014-.24-.058h0c1.152-.448,3.185-3.406,2.982-4.4h0c-.2-1-1.526-.55-1.526-.792h0c2.645-3.235,1.594-3.991,1.594-3.991h0c-.273-.447-1.594.586-1.695.586h0c3.017-6.264.881-5,.881-5h0s-3.8,4.038-3.435,3.579h0c3.525-7.157,1.266-5.964,1.266-5.964h0a121.114,121.114,0,0,1-13.15,16.844h0c-4.386,4.49-8.792,7.608-12.249,7.106h0A4.082,4.082,0,0,1,18.7,26.11h0c-4.234-2.484-8.223-11.97-15.137-5.651h0c.01-.182.032-.586.057-1.018h0a18.949,18.949,0,0,1,.141-2.159h0c.046-.375.1-.757.172-1.146h0c1.761-.224,4.869-.124,7.682-6.935h0C7.5,12.113,6.065,12.968,4.04,15.5h0a5.033,5.033,0,0,1,.139-.629h0c.31-1.289,1-3.284,1.206-3.874h0c.007-.015.012-.028.019-.043h0C6.93,10.736,10.5,9.8,12.6,4.989h0A43.376,43.376,0,0,0,6.116,9.326h0c.107-.247,1.21-2.373,1.21-2.373h0C9.415,6.146,9.582,4.477,11.952,0h0C7.232,3.117,7.016,5.6,6.978,6.662" transform="translate(0.288 0.11)" fill="none"/>
      <g id="Group_22-2" data-name="Group 22" clip-path="url(#clip-path-3)">
        <path id="Fill_20" data-name="Fill 20" d="M6.978,6.662c-.814,1.485-1.709,3.435-2,4.026h0c.683-2.763.542-4.4.452-9.075h0c-3.576,5.909-1.515,8.366-.806,9.9h0c-.5,1.149-.972,2.6-1.049,2.839h0c-.26-1.976-1.92-4.094-3.1-8.531h0C-1.148,11.939,1.841,15,3.106,16.13h0c-.038.166-.076.332-.115.5h0c-.033.171-.073.382-.112.627h0c0,.03-.009.059-.014.09h0c0,.032-.01.067-.014.1h0c-.013.089-.026.178-.038.267h0a16.486,16.486,0,0,0-.081,3.566h0a22.34,22.34,0,0,0-1.638,1.968h0A5.829,5.829,0,0,1,3,23.011H3a10.292,10.292,0,0,0,1.875,4.1h0c.064.079.125.154.181.224h0l.023.026h0a6.975,6.975,0,0,0,.511.538h0a.331.331,0,0,0,.042.038h0c.1.08.168.12.19.111h0l.008-.007c.006-.015-.007-.051-.049-.115h0a14.3,14.3,0,0,1-1.8-4.758h0c2.346.714,3.523,3.554,4.811,7.007h0c1.447,3.879,3.035,8.526,6.584,11.8h0a12.071,12.071,0,0,0,1.511,1.217h0c6.327,4.341,16.1,2.7,16.758,2.6h0a18.468,18.468,0,0,0,7.783,2.094h.009c1.209,0,1.909-.237,1.937-.477h0c.305-.482-1.763-1.445-1.763-1.445h0s2.643.688,2.643-.034h0c0-.723-1.8-1.274-1.694-1.377h0a2.03,2.03,0,0,1,.565-.006h0c.723.028,1.875.056,1.875-.476h0c.069-1.067-1.525-1.41-1.525-1.41h0s2.169-.068,2.2-.86h0c0-1.067-2.3-.861-1.592-1.377h0c2.609-1.411-.136-1.79-3.865-1.376h0a24.361,24.361,0,0,1-7.027-.5h0c-.949-.22-1.348-.435-.7-.5h0c1.2-.12,5.2-2.5,8.27-6.7h0q.081-.111.162-.226h0c.367-.516.719-1.058,1.049-1.625h0a29.309,29.309,0,0,0,1.936-4.591h0c.529-1.195,1.745-1.456,1.94-2.442h0c.09-.629-1.291-.345-1.087-.482h0c2.746-1.859,2.2-2.753,2.2-2.753h0c-.066-.517-.874-.5-1.318-.491h0c-.236.007-.37.014-.24-.058h0c1.152-.448,3.185-3.406,2.982-4.4h0c-.2-1-1.526-.55-1.526-.792h0c2.645-3.235,1.594-3.991,1.594-3.991h0c-.273-.447-1.594.586-1.695.586h0c3.017-6.264.881-5,.881-5h0s-3.8,4.038-3.435,3.579h0c3.525-7.157,1.266-5.964,1.266-5.964h0a121.114,121.114,0,0,1-13.15,16.844h0c-4.386,4.49-8.792,7.608-12.249,7.106h0A4.082,4.082,0,0,1,18.7,26.11h0c-4.234-2.484-8.223-11.97-15.137-5.651h0c.01-.182.032-.586.057-1.018h0a18.949,18.949,0,0,1,.141-2.159h0c.046-.375.1-.757.172-1.146h0c1.761-.224,4.869-.124,7.682-6.935h0C7.5,12.113,6.065,12.968,4.04,15.5h0a5.033,5.033,0,0,1,.139-.629h0c.31-1.289,1-3.284,1.206-3.874h0c.007-.015.012-.028.019-.043h0C6.93,10.736,10.5,9.8,12.6,4.989h0A43.376,43.376,0,0,0,6.116,9.326h0c.107-.247,1.21-2.373,1.21-2.373h0C9.415,6.146,9.582,4.477,11.952,0h0C7.232,3.117,7.016,5.6,6.978,6.662" transform="translate(0.288 0.11)" fill="url(#linear-gradient-2)"/>
      </g>
    </g>
  </g>
</svg>
