<svg width="804" height="360" viewBox="0 0 804 360" fill="none" xmlns="http://www.w3.org/2000/svg">
<g clip-path="url(#clip0_1_2)">
<path d="M571.905 167.593H566.047V179.408H571.571C576.231 179.408 578.616 177.023 578.616 173.5C578.616 169.978 576.28 167.593 571.893 167.593H571.905Z" fill="white"/>
<path d="M493.45 167.593H487.926V179.408H493.079C497.85 179.408 500.124 177.023 500.124 173.5C500.124 169.978 497.85 167.593 493.45 167.593Z" fill="white"/>
<path d="M437.983 154.134L411.424 206.474H658.393L684.953 154.134H437.983ZM460.427 199.8C455.496 199.8 450.453 197.847 446.387 193.67L450.997 188.034C453.864 191.285 457.56 192.854 460.6 192.854C464.283 192.854 466.075 191.174 466.075 188.788C466.075 185.971 464.073 184.945 459.401 183.313C453.543 181.311 447.747 178.654 447.747 171.325C447.747 165.146 453.222 160.375 460.106 160.313C464.876 160.313 469.264 162.044 473.12 165.195L468.67 170.942C465.47 168.334 462.652 167.148 460.266 167.148C457.609 167.148 455.656 168.557 455.607 170.991C455.607 173.377 457.671 174.353 462.12 176.083C468.794 178.691 474.108 180.421 474.108 187.849C474.108 196.303 466.681 199.775 460.439 199.775L460.427 199.8ZM493.883 186.131H487.913V199.306H480.374V160.808H494.637C503.968 160.808 508.034 166.233 508.034 173.599C508.034 182.053 502.336 186.119 493.883 186.119V186.131ZM532.171 199.8C520.516 199.8 512.545 191.507 512.545 180.063C512.545 168.619 520.516 160.326 532.171 160.326C543.825 160.326 551.747 168.297 551.747 180.063C551.747 191.829 543.455 199.8 532.171 199.8ZM579.073 199.318L570.459 186.144H566.072V199.318H558.533V160.82H573.116C582.385 160.82 586.513 166.246 586.513 173.612C586.513 179.47 583.807 183.474 578.492 185.217L588.145 199.318H579.086H579.073ZM619.079 167.593H608.401V199.306H600.701V167.593H590.184V160.82H619.079V167.593ZM636.332 200.282C631.401 200.282 626.359 198.329 622.293 194.152L626.902 188.516C629.77 191.767 633.465 193.336 636.505 193.336C640.188 193.336 641.98 191.656 641.98 189.27C641.98 186.453 639.978 185.427 635.307 183.795C629.448 181.793 623.652 179.136 623.652 171.807C623.652 165.628 629.127 160.857 636.011 160.795C640.782 160.795 645.169 162.526 649.025 165.677L644.576 171.424C641.375 168.816 638.557 167.63 636.172 167.63C633.514 167.63 631.562 169.039 631.512 171.473C631.512 173.859 633.576 174.835 638.013 176.565C644.687 179.173 650.001 180.903 650.001 188.331C650.001 196.785 642.574 200.257 636.332 200.257V200.282Z" fill="white"/>
<path d="M532.171 167.482C525.225 167.482 520.455 173.068 520.455 180.063C520.455 187.058 525.225 192.644 532.171 192.644C539.117 192.644 543.776 187.33 543.776 180.063C543.776 172.796 538.783 167.482 532.171 167.482Z" fill="white"/>
<path d="M91.0791 158.509V170.571H103.29V202.692H116.613V170.571H128.984V158.509H91.0914H91.0791ZM184.871 169.385H190.729C194.314 169.385 195.723 171.325 195.723 173.723C195.723 176.12 194.314 178.061 190.729 178.061H184.871V169.397V169.385ZM190.705 158.509H171.548V202.692H184.871V184.092L195.945 202.692H211.74L200.456 186.354C206.475 183.647 208.984 178.357 208.984 172.957C208.984 164.973 203.719 158.509 190.742 158.509C190.742 158.509 190.729 158.509 190.717 158.509H190.705ZM297.758 158.509V202.692H327.667V190.63H311.081V158.509H297.758ZM397.1 158.509L387.67 176.677L378.24 158.509H364.311L381.008 189.493V202.692H394.331V189.48L411.028 158.509H397.1ZM145.323 174.613L150.106 189.036H140.527L145.31 174.613H145.323ZM139.378 158.509L121.89 202.692H136.004L137.598 197.897H153.047L154.641 202.692H168.755L151.267 158.509H139.378ZM213.927 158.509V170.571H231.44L212.333 202.692H248.273L254.971 190.63H233.887L252.994 158.509H213.927ZM271.211 169.385H275.92C279.998 169.385 281.605 171.585 281.605 174.316C281.605 177.047 279.998 179.247 275.92 179.247H271.211V169.372V169.385ZM277.452 158.509H257.888V202.692H271.211V189.036H277.452C292.988 189.036 295.052 178.765 295.052 173.772C295.052 168.779 292.988 158.509 277.452 158.509ZM352.484 174.613L357.267 189.036H347.688L352.471 174.613H352.484ZM346.539 158.509L329.051 202.692H343.165L344.759 197.897H360.208L361.802 202.692H375.916L358.428 158.509H346.539ZM53.1247 170.571C53.1247 189.468 78.3246 182.572 78.3246 189.789C78.3246 191.569 76.9033 193.472 71.9845 193.472C66.5589 193.472 65.4466 190.988 65.4466 189.097H52C52.0494 192.558 53.4336 203.94 71.9968 203.94C85.74 203.94 91.66 197.489 91.66 189.307C91.66 170.571 65.9038 177.653 65.9038 170.571C65.9038 169.175 67.0038 167.074 71.3294 167.074C75.6551 167.074 76.755 169.175 76.755 170.571H89.5589C89.5589 167.21 87.7792 157.248 71.5272 157.248C55.2751 157.248 53.1247 167.457 53.1247 170.571Z" fill="url(#paint0_linear_1_2)"/>
<path d="M752 133H733.758L704.974 153.38L713.106 167.284L727.146 156.816L703.689 227.608H722.005L752 133Z" fill="white"/>
</g>
<defs>
<linearGradient id="paint0_linear_1_2" x1="115.686" y1="47.8343" x2="322.451" y2="277.476" gradientUnits="userSpaceOnUse">
<stop stop-color="#FFF242"/>
<stop offset="0.12" stop-color="#FFF242"/>
<stop offset="0.15" stop-color="#FFF24C"/>
<stop offset="0.2" stop-color="#FFF567"/>
<stop offset="0.26" stop-color="#FFF994"/>
<stop offset="0.33" stop-color="#FFFED2"/>
<stop offset="0.34" stop-color="#FFFFD9"/>
<stop offset="0.98" stop-color="#51E9F8"/>
<stop offset="1" stop-color="#51E9F8"/>
</linearGradient>
<clipPath id="clip0_1_2">
<rect width="700" height="94.6203" fill="white" transform="translate(52 133)"/>
</clipPath>
</defs>
</svg>
