<svg width="804" height="360" viewBox="0 0 804 360" fill="none" xmlns="http://www.w3.org/2000/svg">
<g clip-path="url(#clip0_1_23)">
<path d="M678.341 215.051L711.252 184.141C718.618 176.714 732.646 167.951 732.646 158.645C732.646 153.38 729.618 149.462 723.982 149.462C718.346 149.462 711.561 152.972 707.223 159.992L693.937 150.414C700.006 140.428 712.291 133 726.293 133C740.296 133 752.012 141.911 752.012 156.754C752.012 170.25 736.279 181.188 724.86 192.249L706.074 210.33V210.602H738.294L736.131 226.792H677.191L678.341 215.051Z" fill="white"/>
<path d="M566.319 167.321H560.522V179.013H565.997C570.607 179.013 572.968 176.652 572.968 173.167C572.968 169.681 570.657 167.321 566.319 167.321Z" fill="white"/>
<path d="M488.704 167.321H483.229V179.013H488.321C493.042 179.013 495.292 176.652 495.292 173.167C495.292 169.681 493.042 167.321 488.692 167.321H488.704Z" fill="white"/>
<path d="M433.831 154.01L407.555 205.794H651.868L678.143 154.01H433.831ZM456.04 199.182C451.158 199.182 446.165 197.254 442.148 193.126L446.709 187.553C449.551 190.766 453.197 192.323 456.2 192.323C459.846 192.323 461.614 190.655 461.614 188.294C461.614 185.501 459.624 184.487 455.014 182.881C449.217 180.891 443.483 178.271 443.483 171.029C443.483 164.911 448.896 160.19 455.718 160.14C460.439 160.14 464.777 161.858 468.596 164.973L464.197 170.658C461.033 168.087 458.24 166.901 455.879 166.901C453.246 166.901 451.318 168.297 451.269 170.707C451.269 173.068 453.308 174.032 457.708 175.75C464.308 178.32 469.56 180.038 469.56 187.392C469.56 195.759 462.207 199.195 456.04 199.195V199.182ZM489.137 185.662H483.242V198.7H475.789V160.622H489.891C499.111 160.622 503.14 165.986 503.14 173.278C503.14 181.645 497.504 185.674 489.137 185.674V185.662ZM527.005 199.182C515.474 199.182 507.589 190.976 507.589 179.655C507.589 168.334 515.474 160.128 527.005 160.128C538.536 160.128 546.371 168.013 546.371 179.655C546.371 191.297 538.165 199.182 527.005 199.182ZM573.4 198.7L564.873 185.662H560.522V198.7H553.07V160.622H567.493C576.663 160.622 580.742 165.986 580.742 173.278C580.742 179.074 578.06 183.041 572.807 184.759L582.361 198.7H573.4ZM612.986 167.321H602.419V198.7H594.806V167.321H584.4V160.622H612.986V167.321ZM630.042 199.664C625.16 199.664 620.167 197.736 616.15 193.608L620.711 188.035C623.553 191.248 627.199 192.805 630.202 192.805C633.848 192.805 635.616 191.137 635.616 188.776C635.616 185.983 633.626 184.969 629.016 183.363C623.219 181.373 617.485 178.753 617.485 171.511C617.485 165.393 622.898 160.672 629.72 160.622C634.441 160.622 638.779 162.34 642.598 165.455L638.199 171.14C635.035 168.569 632.242 167.383 629.881 167.383C627.248 167.383 625.321 168.779 625.271 171.189C625.271 173.55 627.31 174.514 631.71 176.232C638.31 178.802 643.562 180.52 643.562 187.874C643.562 196.241 636.209 199.677 630.042 199.677V199.664Z" fill="white"/>
<path d="M527.005 167.21C520.133 167.21 515.424 172.734 515.424 179.655C515.424 186.576 520.146 192.101 527.005 192.101C533.864 192.101 538.486 186.848 538.486 179.655C538.486 172.462 533.555 167.21 527.005 167.21Z" fill="white"/>
<path d="M90.6589 158.336V170.275H102.734V202.05H115.908V170.275H128.144V158.336H90.6589ZM183.45 169.101H189.246C192.793 169.101 194.178 171.016 194.178 173.389C194.178 175.762 192.781 177.678 189.246 177.678H183.45V169.101ZM189.209 158.336H170.263V202.05H183.438V183.647L194.388 202.05H210.009L198.837 185.884C204.782 183.215 207.266 177.974 207.266 172.635C207.266 164.738 202.05 158.336 189.222 158.336C189.222 158.336 189.209 158.336 189.197 158.336H189.209ZM295.113 158.336V202.05H324.701V190.111H308.3V158.336H295.126H295.113ZM393.392 158.336L384.061 176.306L374.73 158.336H360.95L377.474 188.986V202.05H390.648V188.986L407.172 158.348H393.392V158.336ZM144.322 174.267L149.055 188.529H139.588L144.322 174.267ZM138.439 158.336L121.136 202.05H135.102L136.671 197.304H151.959L153.541 202.05H167.507L150.204 158.336H138.451H138.439ZM212.185 158.336V170.275H229.512L210.603 202.05H246.147L252.772 190.111H231.922L250.831 158.336H212.185ZM268.863 169.101H273.522C277.564 169.101 279.146 171.288 279.146 173.982C279.146 176.677 277.564 178.864 273.522 178.864H268.863V169.101ZM275.03 158.336H255.676V202.05H268.851V188.541H275.018C290.38 188.541 292.431 178.382 292.431 173.439C292.431 168.495 290.38 158.336 275.018 158.336H275.03ZM349.258 174.267L353.992 188.529H344.525L349.258 174.267ZM343.375 158.336L326.073 202.05H340.038L341.62 197.304H356.908L358.49 202.05H372.456L355.153 158.336H343.4H343.375ZM53.1123 170.262C53.1123 188.961 78.0404 182.127 78.0404 189.283C78.0404 191.05 76.6438 192.916 71.7744 192.916C66.3982 192.916 65.3106 190.457 65.3106 188.578H52C52.0494 192.002 53.4213 203.273 71.7744 203.273C85.3692 203.273 91.2274 196.896 91.2274 188.801C91.2274 170.262 65.7432 177.27 65.7432 170.262C65.7432 168.878 66.8431 166.802 71.107 166.802C75.3708 166.802 76.4708 168.878 76.4708 170.262H89.1387C89.1387 166.925 87.3837 157.088 71.2924 157.088C55.201 157.088 53.1123 167.185 53.1123 170.262Z" fill="url(#paint0_linear_1_23)"/>
</g>
<defs>
<linearGradient id="paint0_linear_1_23" x1="115.006" y1="48.8477" x2="319.535" y2="276.018" gradientUnits="userSpaceOnUse">
<stop stop-color="#FFF242"/>
<stop offset="0.12" stop-color="#FFF242"/>
<stop offset="0.15" stop-color="#FFF24C"/>
<stop offset="0.2" stop-color="#FFF567"/>
<stop offset="0.26" stop-color="#FFF994"/>
<stop offset="0.33" stop-color="#FFFED2"/>
<stop offset="0.34" stop-color="#FFFFD9"/>
<stop offset="0.98" stop-color="#51E9F8"/>
<stop offset="1" stop-color="#51E9F8"/>
</linearGradient>
<clipPath id="clip0_1_23">
<rect width="700" height="93.7923" fill="white" transform="translate(52 133)"/>
</clipPath>
</defs>
</svg>
