<svg id="rtlhu_cool" viewBox="0 0 35 24" xmlns="http://www.w3.org/2000/svg"><g fill="none"><path d="M23.68 14.701c1.606 0 2.908-1.3 2.908-2.903a2.906 2.906 0 0 0-2.908-2.903 2.906 2.906 0 0 0-2.909 2.903A2.906 2.906 0 0 0 23.68 14.7Zm-11.724 0c1.606 0 2.908-1.3 2.908-2.903a2.906 2.906 0 0 0-2.908-2.903 2.906 2.906 0 0 0-2.908 2.903 2.906 2.906 0 0 0 2.908 2.903Z" fill="#D63020"/><path d="M17.17 17.348a7.494 7.494 0 0 1-10.622-.028 7.561 7.561 0 0 1 .02-10.661 7.494 7.494 0 0 1 10.622.012l3.149-3.227a11.925 11.925 0 0 0-16.862.096c-4.638 4.682-4.636 12.245.004 16.924a11.925 11.925 0 0 0 16.862.088l-3.173-3.204Zm17.826-5.288a11.989 11.989 0 0 0-3.407-8.677l-3.099 3.11a7.56 7.56 0 0 1-.04 10.61l3.107 3.097a11.984 11.984 0 0 0 3.44-8.14Z" fill="#C7C5C8"/></g></svg>