<svg id="rtlhu_cool_ghost" viewBox="0 0 35 24" xmlns="http://www.w3.org/2000/svg"><path d="M3.477 3.54a11.925 11.925 0 0 1 16.862-.096l-3.15 3.227a7.494 7.494 0 0 0-10.622-.012 7.561 7.561 0 0 0-.02 10.661 7.494 7.494 0 0 0 10.623.028l3.173 3.204a11.925 11.925 0 0 1-16.862-.088c-4.64-4.68-4.642-12.242-.004-16.924Zm28.112-.157a11.989 11.989 0 0 1 3.407 8.677 11.984 11.984 0 0 1-3.439 8.14l-3.106-3.097.19-.198a7.561 7.561 0 0 0-.15-10.412Zm-7.91 5.512c1.607 0 2.909 1.3 2.909 2.903A2.906 2.906 0 0 1 23.68 14.7a2.906 2.906 0 0 1-2.909-2.903 2.906 2.906 0 0 1 2.909-2.903Zm-11.723 0c1.606 0 2.908 1.3 2.908 2.903a2.906 2.906 0 0 1-2.908 2.903 2.906 2.906 0 0 1-2.908-2.903 2.906 2.906 0 0 1 2.908-2.903Z" fill="#FFF"/></svg>