<svg id="rtlhu_film_plus" viewBox="0 0 94 24" xmlns="http://www.w3.org/2000/svg"><defs><linearGradient id="adc" x1="-16.675%" x2="98.322%" y1="50.004%" y2="50.004%"><stop offset="13.98%" stop-color="#B2E0F9"/><stop offset="100%" stop-color="#37A5DD"/></linearGradient><linearGradient id="ade" x1="22.639%" x2="77.279%" y1="22.809%" y2="77.12%"><stop offset="0%" stop-color="#36A5DD"/><stop offset="100%" stop-color="#B1DFF9"/></linearGradient><path d="M69.965 10.796h10.828V0H69.965v10.796Zm0 2.373v10.796l10.828-10.796H69.965Z" id="ada"/><path d="M83.173 10.796h7.029a8.295 8.295 0 0 0-7.03-7.024v7.024Zm-9.41 0h7.03V3.772a8.295 8.295 0 0 0-7.03 7.024Zm9.41 2.374v6.989c3.627-.519 6.496-3.376 7.024-6.989h-7.024Zm-9.404 0a8.293 8.293 0 0 0 7.024 6.989V13.17h-7.024Z" id="add"/></defs><g fill="none" fill-rule="evenodd"><path d="M0 0v24h6.017v-9.879h10.512V9.708H6.017V4.414h10.512V0zm18.467 23.998h6.016V0h-6.016zM27.172 0h6.016v19.586h9.873V24H27.17zm16.962 0h5.272l7.643 8.897L64.693 0h5.272v24H63.95V8.966L57.515 16.5h-.933L50.15 8.966V24h-6.016zm39.038 23.965H94V13.169H83.172zm-13.207 0h10.828V13.169H69.965zm13.207-13.169H94V0H83.172zm-13.207 0h10.828V0H69.965z" fill="#37A5DD"/><mask fill="#fff" id="adb"><use href="#ada"/></mask><path d="M69.965 10.796h10.828V0H69.965v10.796Zm0 2.373v10.796l10.828-10.796H69.965Z" mask="url(#adb)"/><path d="M69.932.019h10.915v23.903H69.932z" fill="url(#adc)" fill-rule="nonzero" mask="url(#adb)"/><mask fill="#fff" id="adf"><use href="#add"/></mask><path d="M83.173 10.796h7.029a8.295 8.295 0 0 0-7.03-7.024v7.024Zm-9.41 0h7.03V3.772a8.295 8.295 0 0 0-7.03 7.024Zm9.41 2.374v6.989c3.627-.519 6.496-3.376 7.024-6.989h-7.024Zm-9.404 0a8.293 8.293 0 0 0 7.024 6.989V13.17h-7.024Z" fill="url(#ade)" mask="url(#adf)"/></g></svg>