<svg id="rtlhu_film_plus_dark" viewBox="0 0 94 24" xmlns="http://www.w3.org/2000/svg"><path d="M0 0v24h6.017v-9.879h10.512V9.708H6.017V4.414h10.512V0H0Zm18.467 23.998h6.016V0h-6.016v23.998ZM27.172 0h6.016v19.586h9.873V24H27.17V0Zm16.962 0h5.272l7.643 8.897L64.693 0h5.272v24H63.95V8.966L57.515 16.5h-.933L50.15 8.966V24h-6.016V0Zm39.038 23.965H94V13.169H83.172v10.796Zm-13.207 0h10.828V13.169H69.965v10.796Zm13.207-13.169H94V0H83.172v10.796Zm-13.207 0h10.828V0H69.965v10.796Z" fill="#0D0D0D" fill-rule="evenodd"/></svg>