<svg id="rtlhu_muzsika_tv_ghost" viewBox="0 0 111 24" xmlns="http://www.w3.org/2000/svg"><path d="M94.078 0 111 7.151 103.817 24l-16.922-7.151L94.078 0Zm1.933 5.304h-.213l-4.144 4.39v.45h1.62v4.973c0 1.085.32 1.957.983 2.592.664.635 1.568.952 2.763.952.877 0 1.807-.211 2.79-.66v-2.196c-.824.45-1.568.687-2.205.687-.505 0-.877-.158-1.17-.423-.292-.264-.424-.661-.424-1.137v-4.788h2.045l3.852 8.517h1.329l4.728-10.606-2.948.026-2.444 6.03-2.498-6.03h-4.064V5.304Zm-11.238 13.78h-1.488l-.053-2.063c-1.275 1.402-3.028 2.302-5.047 2.302-2.923 0-4.676-1.773-4.676-4.18s2.47-4.073 5.685-4.285l3.852-.238V9.51c0-2.037-1.7-3.254-3.719-3.254-1.992 0-3.666.45-4.729 1.085V5.833c1.488-.609 2.976-.926 4.809-.926 3.32 0 5.366 1.799 5.366 4.523v9.655Zm-5.26-7.062c-2.736.212-4.357 1.429-4.357 3.069s1.169 2.856 3.161 2.856c1.913 0 3.72-.952 4.73-2.354v-3.809l-3.534.238Zm-14.16.185v6.878h-1.727V.78h1.727v11.03l5.26-6.692H72.5l-5.393 6.798 6.43 7.194h-1.993l-6.19-6.904ZM61.873.86h-1.727v1.56h1.727V.86Zm0 4.259h-1.727v13.966h1.727V5.119Zm-3.347 10.395c0 2.327-2.285 3.782-5.101 3.782-2.843 0-4.091-.767-4.995-1.322v-1.56c1.222.872 2.577 1.56 4.73 1.56 2.071 0 3.639-.953 3.639-2.38 0-3.413-7.837-2.567-7.837-7.222 0-2.169 1.992-3.518 4.543-3.518 2.125 0 3.24.397 4.303.9v1.375c-1.089-.556-2.284-.979-4.09-.979-1.78 0-3.003.9-3.003 2.09 0 3.438 7.81 2.301 7.81 7.274Zm-21.599 3.57 7.386-12.59h-6.748V5.12h9.43l-7.358 12.564h7.651v1.402h-10.36Zm-2.949-2.909c-1.169 2.248-2.949 3.148-5.074 3.148-2.763 0-5.154-1.376-5.154-5.079V5.12h1.727v8.94c0 2.83 1.753 3.835 3.8 3.835 1.885 0 3.586-1.216 4.542-3.73V5.12h1.727v13.966H34.11l-.133-2.91ZM1.594 7.87c1.142-2.25 2.922-3.095 5.021-3.095 2.152 0 4.091.952 4.755 3.147 1.196-2.221 3.056-3.147 5.234-3.147 2.71 0 5.1 1.56 5.1 5.29v8.914h-1.726v-8.782c0-2.83-1.7-4.047-3.773-4.047-1.886 0-3.533 1.217-4.49 3.756v9.046H9.99v-8.755c0-2.83-1.7-4.047-3.746-4.047-1.886 0-3.56 1.217-4.516 3.756v9.046H0V4.986h1.461l.133 2.884Z" fill="#FFF"/></svg>