<svg id="rtlhu_muzsika_tv" viewBox="0 0 111 24" xmlns="http://www.w3.org/2000/svg"><defs><linearGradient id="aya" x1=".004%" x2="99.948%" y1="50.027%" y2="50.027%"><stop offset="0%" stop-color="#F68B29"/><stop offset="32.15%" stop-color="#EF7A27" stop-opacity=".678"/><stop offset="74.15%" stop-color="#E96725" stop-opacity=".259"/><stop offset="100%" stop-color="#E66025" stop-opacity="0"/></linearGradient><linearGradient id="ayb" x1=".053%" x2="100.053%" y1="50.092%" y2="50.092%"><stop offset="0%" stop-color="#F68B29" stop-opacity="0"/><stop offset="60.91%" stop-color="#F68B29" stop-opacity=".7"/><stop offset="69.37%" stop-color="#EF7A27" stop-opacity=".548"/><stop offset="78.99%" stop-color="#EA6C26" stop-opacity=".376"/><stop offset="89.02%" stop-color="#E76325" stop-opacity=".197"/><stop offset="100%" stop-color="#E66025" stop-opacity="0"/></linearGradient><linearGradient id="ayc" x1="52.789%" x2="47.727%" y1="53.444%" y2="46.855%"><stop offset="0%" stop-color="#F8C263"/><stop offset="100%" stop-color="#F8C263" stop-opacity="0"/></linearGradient><linearGradient id="ayd" x1="51.828%" x2="48.296%" y1="47.36%" y2="52.604%"><stop offset="0%" stop-color="#F8C263"/><stop offset="100%" stop-color="#F8C263" stop-opacity="0"/></linearGradient><linearGradient id="aye" x1="-.145%" x2="99.833%" y1="49.953%" y2="49.953%"><stop offset="0%" stop-color="#F8C263"/><stop offset="100%" stop-color="#F8C263" stop-opacity="0"/></linearGradient><linearGradient id="ayf" x1="-.163%" x2="99.61%" y1="50.059%" y2="50.059%"><stop offset="0%" stop-color="#B94E27" stop-opacity=".5"/><stop offset="8.7%" stop-color="#B14A25" stop-opacity=".585"/><stop offset="34.22%" stop-color="#9E4122" stop-opacity=".834"/><stop offset="51.23%" stop-color="#983D21"/><stop offset="78.52%" stop-color="#A94624" stop-opacity=".72"/><stop offset="100%" stop-color="#B94E27" stop-opacity=".5"/></linearGradient><linearGradient id="ayg" x1="49.819%" x2="49.819%" y1="-.139%" y2="100.04%"><stop offset="0%" stop-color="#B94E27" stop-opacity=".1"/><stop offset="50.87%" stop-color="#B94E27" stop-opacity=".7"/><stop offset="100%" stop-color="#B94E27" stop-opacity=".1"/></linearGradient><linearGradient id="ayh" x1="49.976%" x2="49.976%" y1=".079%" y2="100.04%"><stop offset="50%" stop-color="#F1F2F2"/><stop offset="100%" stop-color="#E6E7E8"/></linearGradient></defs><g fill="none"><path d="M84.773 19.085h-1.488l-.053-2.064c-1.275 1.402-3.028 2.302-5.047 2.302-2.923 0-4.676-1.773-4.676-4.18s2.47-4.073 5.685-4.285l3.852-.238V9.51c0-2.037-1.7-3.254-3.719-3.254-1.992 0-3.666.45-4.729 1.085V5.833c1.488-.609 2.976-.926 4.809-.926 3.32 0 5.366 1.799 5.366 4.523v9.655Zm-5.26-7.063c-2.736.212-4.357 1.429-4.357 3.069s1.169 2.856 3.161 2.856c1.913 0 3.72-.952 4.73-2.354v-3.809l-3.534.238Zm-14.16.185v6.878h-1.727V.78h1.727v11.03l5.26-6.692H72.5l-5.393 6.798 6.43 7.194h-1.993l-6.19-6.904ZM61.873.86h-1.727v1.56h1.727V.86Zm0 4.259h-1.727v13.966h1.727V5.119Zm-3.347 10.395c0 2.327-2.285 3.782-5.101 3.782-2.843 0-4.091-.767-4.995-1.322v-1.56c1.222.872 2.577 1.56 4.73 1.56 2.071 0 3.639-.953 3.639-2.38 0-3.413-7.837-2.567-7.837-7.222 0-2.169 1.992-3.518 4.543-3.518 2.125 0 3.24.397 4.303.9v1.375c-1.089-.556-2.284-.979-4.09-.979-1.78 0-3.003.9-3.003 2.09 0 3.438 7.81 2.301 7.81 7.274Zm-21.599 3.57 7.386-12.59h-6.748V5.12h9.43l-7.358 12.564h7.651v1.402h-10.36Zm-2.949-2.909c-1.169 2.248-2.949 3.148-5.074 3.148-2.763 0-5.154-1.376-5.154-5.079V5.12h1.727v8.94c0 2.83 1.753 3.835 3.8 3.835 1.885 0 3.586-1.216 4.542-3.73V5.12h1.727v13.966H34.11l-.133-2.91ZM1.594 7.87c1.142-2.25 2.922-3.095 5.021-3.095 2.152 0 4.091.952 4.755 3.147 1.196-2.221 3.056-3.147 5.234-3.147 2.71 0 5.1 1.56 5.1 5.29v8.914h-1.726v-8.782c0-2.83-1.7-4.047-3.773-4.047-1.886 0-3.533 1.217-4.49 3.756v9.046H9.99v-8.755c0-2.83-1.7-4.047-3.746-4.047-1.886 0-3.56 1.217-4.516 3.756v9.046H0V4.986h1.461l.133 2.884Z" fill="#FFF"/><path d="M86.9 16.836 94.081.031 111 7.164l-7.181 16.805z" fill="#C64727"/><path d="M16.338 23.024 1.066 16.587c-.133-.053-.213-.212-.133-.343l6.48-15.17C7.468.94 7.627.861 7.76.94l15.272 6.44c.132.053.212.21.132.343l-6.48 15.17c-.054.132-.213.211-.346.132Z" fill="url(#aya)" transform="translate(86.9)"/><path d="M22.129 7.933 7.945 1.943 1.942 16.007l14.184 5.989 6.003-14.062Zm-3.135 6.332-.77 1.767c-1.275 3.008-4.78 4.406-7.782 3.14-4.383-1.847-6.428-6.886-4.569-11.24l1.461-3.429a2.211 2.211 0 0 1 2.895-1.16l5.233 2.215c3.373 1.425 4.967 5.33 3.532 8.707Z" fill="url(#ayb)" transform="translate(86.9)"/><path d="M16.843 23.63a2.203 2.203 0 0 1 .16-1.424l7.091-15.065-7.039 16.49c-.053.132-.186.105-.212 0Z" fill="url(#ayc)" transform="translate(86.9)"/><path d="M7.467.335c.053.184.744.5 1.195.686l15.273 6.068L7.6.176c-.106-.026-.16.08-.133.159Z" fill="url(#ayd)" transform="translate(86.9)"/><path d="M7.308.229a2.362 2.362 0 0 1-.16 1.477L.056 16.718 7.096.203c.026-.08.185-.08.212.026Z" fill="url(#aye)" transform="translate(86.9)"/><path d="m17.8 8.276-2.365 5.804-2.23-6.015H9.14V5.32h-.212L4.784 9.7v.448h.213c.77 0 1.142.633 1.142 1.398v3.562c0 1.082.319 1.952.983 2.586.664.633 1.567.95 2.762.95.876 0 2.072-.212 3.054-.66v-2.19c-.823.449-1.567.686-2.204.686-.505 0-.877-.158-1.169-.422-.292-.264-.425-.66-.425-1.135v-3.588c0-.66.531-1.187 1.196-1.187.371 0 .717.29.876.607l3.426 7.572c.08.184.16.316.32.316h1.433l4.728-10.58h-2.895c-.186.027-.398.106-.425.212Z" fill="url(#ayf)" transform="translate(86.9)"/><path d="m17.879 8.698-1.275 3.166c-.345.87-.93.87-1.302 0l-1.328-3.192c-.132-.317-.53-.58-.876-.58h-2.975a.446.446 0 0 1-.452-.45V5.348h-.743L4.864 9.621a.298.298 0 0 0-.08.211c0 .159.133.317.319.317h.319c.558 0 .983.449.983.976v3.984c0 1.082.318 1.952.982 2.586.664.633 1.567.95 2.763.95.69 0 1.939-.133 2.682-.396.399-.132.638-.502.638-.924V17.3c0-.66-.425-1.293-1.063-1.135-.318.08-.85.317-1.142.317-.505 0-.876-.158-1.169-.422-.292-.264-.425-.66-.425-1.135V11.02c0-.475.399-.87.877-.87.398 0 .744.237.903.58l3.32 7.334c.16.343.505.58.903.58h.611c.345 0 .717-.237.85-.554l4.223-9.445c.133-.264-.08-.58-.372-.58h-2.151c-.452.026-.797.264-.956.633Z" fill="url(#ayg)" transform="translate(86.9)"/><path d="m18.118 8.091-2.444 6.016-2.496-6.016H9.114v-2.77H8.9l-4.143 4.38v.448h1.62v4.96c0 1.082.319 1.952.983 2.586.664.633 1.567.95 2.762.95.877 0 1.806-.212 2.789-.66v-2.19c-.823.449-1.567.686-2.205.686-.504 0-.876-.158-1.168-.422-.292-.264-.425-.66-.425-1.135V10.15h2.045l3.851 8.495h1.328l4.728-10.58-2.948.027Z" fill="url(#ayh)" transform="translate(86.9)"/></g></svg>