<svg id="rtlhu_nevessmost_dark" viewBox="0 0 86 24" xmlns="http://www.w3.org/2000/svg"><g fill="#0D0D0D" fill-rule="evenodd"><path d="M11.956 24c6.548 0 11.88-5.283 11.96-11.85v-.63C23.657 4.96 18.187-.17 11.645.004 5.102.18-.086 5.596.001 12.16.09 18.725 5.42 24 11.964 24h-.008Zm2.411-14.86a1.46 1.46 0 0 1 1.35.902 1.467 1.467 0 0 1-.316 1.596 1.456 1.456 0 0 1-1.591.317 1.464 1.464 0 0 1-.9-1.354c0-.388.154-.76.428-1.034a1.455 1.455 0 0 1 1.031-.427h-.002Zm2.343 4.003c0 2.332-2.16 4.233-4.823 4.233-2.662 0-4.823-1.893-4.823-4.233h9.646Zm-5.713-2.542c0 .592-.354 1.127-.9 1.354a1.456 1.456 0 0 1-1.59-.317 1.467 1.467 0 0 1-.316-1.596 1.459 1.459 0 0 1 2.806.56Zm-7.636-1.59a9.109 9.109 0 0 1 4.202-4.838.793.793 0 0 1 1.166.735.798.798 0 0 1-.423.676 7.606 7.606 0 0 0-3.884 7.594 7.592 7.592 0 0 0 5.601 6.425 7.564 7.564 0 0 0 8.022-2.849 7.619 7.619 0 0 0 .321-8.53l-.653-1.052-1.905 1.304a.349.349 0 0 1-.542-.288V3.104a.351.351 0 0 1 .472-.328l4.753 1.782a.35.35 0 0 1 .076.617l-1.558 1.074.627.962a9.208 9.208 0 0 1 .163 9.803 9.147 9.147 0 0 1-8.754 4.363l-.148-.016-.217-.028-.318-.048h-.038l-.054-.012a9.15 9.15 0 0 1-6.318-4.509 9.203 9.203 0 0 1-.6-7.753h.009ZM36.298.98c-1.005 0-1.716.735-1.716 1.785v3.483l-2.116-3.796c-.402-.685-.987-1.471-2.102-1.471-1.148 0-1.952.844-1.952 2.052v8.438c0 1.048.706 1.782 1.717 1.782 1.01 0 1.714-.734 1.714-1.782V8.005l2.112 3.78c.392.683.985 1.469 2.1 1.469 1.15 0 1.951-.845 1.951-2.052V2.766c.006-1.05-.699-1.784-1.708-1.784Zm9.327 3.426c.985 0 1.73-.714 1.73-1.657 0-.944-.73-1.673-1.73-1.673h-5.21a1.605 1.605 0 0 0-1.202.477c-.317.321-.485.76-.463 1.212v8.706a1.614 1.614 0 0 0 1.666 1.687h5.209c1.005 0 1.73-.703 1.73-1.673 0-.97-.745-1.657-1.73-1.657h-3.242v-1.1h2.484c.993 0 1.714-.698 1.714-1.658s-.721-1.657-1.714-1.657h-2.484V4.407h3.242ZM55.8.982c-.844 0-1.48.498-1.748 1.368l-1.368 4.484-1.447-4.5c-.29-.87-.909-1.352-1.745-1.352a1.75 1.75 0 0 0-1.263.498 1.76 1.76 0 0 0-.53 1.253c.005.24.043.476.115.704l2.73 8.01c.269.775.78 1.803 2.103 1.803 1.325 0 1.82-1.028 2.09-1.814l2.73-8.023a2.44 2.44 0 0 0 .106-.68c0-.469-.187-.919-.52-1.248A1.742 1.742 0 0 0 55.8.982Zm8.996 3.425c.986 0 1.73-.714 1.73-1.657 0-.944-.728-1.673-1.73-1.673H59.59a1.605 1.605 0 0 0-1.205.476 1.615 1.615 0 0 0-.463 1.213v8.706a1.612 1.612 0 0 0 1.668 1.687h5.207c1.004 0 1.73-.703 1.73-1.673 0-.97-.744-1.657-1.73-1.657h-3.24v-1.1h2.482c.995 0 1.714-.698 1.714-1.658s-.72-1.657-1.714-1.657h-2.482V4.407h3.24Zm7.586.965-.569-.078c-1.105-.156-1.105-.44-1.105-.535 0-.328.267-.496.794-.496.538.01 1.068.138 1.553.373.3.157.634.24.973.244a1.652 1.652 0 0 0 1.666-1.671 1.698 1.698 0 0 0-.86-1.493c-.788-.494-2.1-.807-3.346-.807-2.67 0-4.462 1.589-4.462 3.951 0 1.524.687 3.427 3.96 3.883l.57.08c1.087.147 1.087.39 1.087.548 0 .549-.764.605-1.093.605-.65 0-1.17-.161-1.974-.605a2.005 2.005 0 0 0-1.004-.28 1.67 1.67 0 0 0-1.204.486 1.68 1.68 0 0 0-.495 1.203c.002.62.32 1.197.843 1.528h.012a7.051 7.051 0 0 0 3.723 1.008c2.959 0 4.872-1.588 4.872-4.045.004-2.216-1.323-3.526-3.941-3.899Zm9.666 0-.567-.078c-1.105-.156-1.105-.44-1.105-.535 0-.328.267-.496.794-.496a3.69 3.69 0 0 1 1.551.373c.301.157.634.24.973.244a1.65 1.65 0 0 0 1.668-1.671 1.696 1.696 0 0 0-.862-1.493c-.786-.494-2.1-.807-3.346-.807-2.669 0-4.462 1.589-4.462 3.951 0 1.524.688 3.427 3.961 3.883l.57.08c1.088.147 1.088.39 1.088.548 0 .549-.765.605-1.095.605-.649 0-1.167-.161-1.971-.605a2.005 2.005 0 0 0-1.005-.28 1.67 1.67 0 0 0-1.204.486 1.68 1.68 0 0 0-.494 1.203c.001.624.322 1.204.85 1.535h.012a7.06 7.06 0 0 0 3.724 1.007c2.96 0 4.871-1.588 4.871-4.045.004-2.222-1.332-3.532-3.95-3.905ZM46.616 18.485a4.463 4.463 0 0 0-4.55-4.33 4.465 4.465 0 0 0-4.363 4.518 4.464 4.464 0 0 0 4.457 4.424 4.469 4.469 0 0 0 3.196-1.365 4.497 4.497 0 0 0 1.26-3.247Zm-2.303.463-2.945 1.706a.38.38 0 0 1-.572-.33v-3.405a.383.383 0 0 1 .572-.331l2.945 1.705a.383.383 0 0 1 0 .655Z"/><path d="M48.826 15.471c1.495 0 2.62.692 2.956 1.814l-1.937.224c-.207-.401-.543-.568-1.11-.568-.455 0-.803.143-.803.336 0 .194.215.335.603.375 1.406.156 2.025.289 2.411.49.679.302 1.11.983 1.093 1.728 0 1.42-1.25 2.288-3.313 2.288-1.057 0-1.851-.236-2.412-.718.3-.44.53-.925.68-1.437l.504-.069c.167.496.536.698 1.34.698.607 0 .98-.141.98-.387 0-.156-.142-.275-.451-.337a8.144 8.144 0 0 0-.889-.13 6.479 6.479 0 0 1-1.356-.326 5.052 5.052 0 0 0-.563-3.324c.527-.419 1.309-.657 2.267-.657Zm6.41-.671-.023.845h1.272v1.642h-1.268v2.369c0 .492.152.673.576.673.235-.006.468-.046.692-.117v1.8a7.436 7.436 0 0 1-1.435.142c-.722 0-1.18-.103-1.525-.375-.517-.375-.718-.855-.718-1.734v-2.747h-.418a2.726 2.726 0 0 0-.53-1.018v-.625h1.07l.015-.25 2.293-.605ZM37.1 18.632c-.001-.7.142-1.394.42-2.036.08-.181.17-.357.27-.528a2.352 2.352 0 0 0-.087-.085 2.136 2.136 0 0 0-1.427-.502c-.888 0-1.44.285-1.917.994a2.083 2.083 0 0 0-3.55 0v-.865h-2.397v6.42h2.553l-.024-3.888c0-.49.243-.899.655-.899.412 0 .578.258.578.76v4.032h2.412v-3.318c0-.724.2-1.43.695-1.43a.562.562 0 0 1 .424.168c.103.117.117.201.117.554v4.032h2.411v-.202a5.047 5.047 0 0 1-1.133-3.207Z" fill-rule="nonzero"/></g></svg>