<svg id="rtlhu_rtl_vv24_ghost" viewBox="0 0 37 24" xmlns="http://www.w3.org/2000/svg"><g fill="none" fill-rule="evenodd"><path d="m8.922 17.123 3.173-4.324a7.48 7.48 0 0 1-.228-.248l-3.8 4.578.855-.006Zm14.861.001-1.994-3.52a7.529 7.529 0 0 1-.418.292l1.512 3.234.9-.006Zm-1.56-.001-1.277-2.972c-.146.08-.296.157-.448.228l.937 2.744h.788Zm6.654 0-5.38-5.299a7.713 7.713 0 0 1-.14.197l4.675 5.102h.845Z"/><path d="m23.958 17.223 2.013 4.253 2.017-4.251-4.693-5.12a7.627 7.627 0 0 1-1.424 1.438l2.085 3.68h.002Zm-5.98-.093-.118-2.076a7.63 7.63 0 0 1-.462.015c-.055 0-.109 0-.163-.002l-.065 2.057.808.006Zm11.619-.007h3.631l-9.067-6.48a7.643 7.643 0 0 1-.465.875l5.9 5.605ZM4.46 21.476l2.017-4.253h.003l4.953-5.21a7.574 7.574 0 0 1-.7-1.16l-8.286 6.372 2.012 4.251Zm9.606-4.353.724-2.535a7.85 7.85 0 0 1-.57-.246l-1.069 2.782h.915Zm-3.081 4.353 2.018-4.253h.001l1.124-2.927a7.434 7.434 0 0 1-1.96-1.424l-3.195 4.353 2.012 4.251Zm-8.572-4.353 8.275-6.364-.04-.084-9.02 6.448h.785Z"/><path d="m7.57 17.123 4.096-4.81a7.898 7.898 0 0 1-.171-.218l-4.779 5.028h.854Z"/><path d="m2.447 17.225 8.286-6.372-.045-.094-8.275 6.364h-.785l9.022-6.448a1.623 1.623 0 0 1-.043-.095l-9.295 6.643h1.134l.001.002Zm-1.077.069h.006v-.003zm6.2-.171h-.854l4.779-5.028-.062-.082-4.953 5.21h1.136l-.002.003h.002l4.115-4.832a4.993 4.993 0 0 1-.066-.08l-4.095 4.81Zm1.403.102 3.194-4.353-.037-.037-.035-.036-3.174 4.325-.854.005 3.8-4.578a9.295 9.295 0 0 1-.068-.078l-3.942 4.75h1.115v.002Zm5.093-.102h-.915l1.068-2.782-.09-.044-1.125 2.926h1.138l-.002.003h.002l.742-2.603-.094-.035-.724 2.535Zm3.912.007-.807-.006.064-2.057-.1-.003-.068 2.16h1.017l-.124-2.176c-.033.003-.067.004-.1.006l.118 2.076Zm4.245-.007h-.787l-.937-2.744-.093.042.958 2.805v-.003h1.012L21.035 14.1l-.088.05 1.276 2.973Zm1.733.1-2.086-3.68-.081.06 1.994 3.52-.9.007-1.512-3.235-.086.055 1.534 3.283h.005l-.005-.01h1.137Zm5.238.071-.004-.003-.002.003zm-.317-.171h-.845l-4.676-5.101-.061.083 4.693 5.12v-.002h1.136l-5.57-5.485a2.129 2.129 0 0 1-.057.086l5.38 5.3Zm4.667.1-9.34-6.676-.042.096 9.067 6.48h-3.632l-5.9-5.605-.056.088 5.916 5.62v-.003h3.987Z" fill="#FFF" fill-rule="nonzero"/><g fill="#FFF" fill-rule="nonzero"><path d="M17.935 18.058v.129l.018-.13z"/><path d="M17.953 18.058h-.018v.129z"/></g><g fill="#FFF" fill-rule="nonzero"><path d="M17.146 23.92v-6.613l.86.007v5.838h2.552v.767z"/><path d="m17.225 17.389.702.004v5.839h2.552v.606h-3.254v-6.45m.925-.112h-.002l.002.037v-.037Zm-1.083-.05V24h3.57v-.93h-2.552v-5.837l-1.018-.007Z"/></g><g fill="#FFF" fill-rule="nonzero"><path d="m17.067 18.07 1.804.24-.001-.369h-1.803z"/><path d="M18.87 17.941h-1.803v.13l1.804.24z"/></g><g fill="#FFF" fill-rule="nonzero"><path d="M21.505 17.306h1.522v6.612h-1.522z"/><path d="M22.887 17.388v6.45h-1.242v-6.45h1.242m-1.523-.162V24h1.804v-6.774h-1.804Z"/></g><g fill="#FFF" fill-rule="nonzero"><path d="M23.28 18.058h-.054l.054.129z"/><path d="M23.28 18.058h-.054l.054.129z"/></g><g fill="#FFF" fill-rule="nonzero"><path d="M21.364 18.187h1.804l-.002-.13h-1.802z"/><path d="M23.166 18.058h-1.802v.129h1.804z"/></g><g fill="#FFF" fill-rule="nonzero"><path d="M29.636 23.92v-6.613h3.833v.764h-2.983v2.16h2.929v.741h-2.929v2.18h2.983v.767z"/><path d="M33.39 17.388v.603h-2.983v2.321h2.928v.58h-2.928v2.34h2.983v.607h-3.675v-6.451h3.675m.159-.162h-3.992V24h3.992v-.93h-2.984v-2.017h2.929v-.903h-2.929v-1.998h2.984v-.926Z"/></g><g fill="#FFF" fill-rule="nonzero"><path d="m34.342 18.058.162.129v-.13z"/><path d="M34.504 18.058h-.162l.162.129z"/></g><g fill="#FFF" fill-rule="nonzero"><path d="M29.557 18.058v.129h3.992l-.005-.13z"/><path d="M33.544 18.058h-3.987v.129h3.992z"/></g><g fill="#FFF" fill-rule="nonzero"><path d="m2.115 18.076.036.092.108-.092z"/><path d="M2.26 18.076h-.145l.036.092z"/></g><g fill="#FFF" fill-rule="nonzero"><path d="M1.434 17.307h.964l2.061 4.354 2.066-4.354h.964l-3.027 6.505z"/><path d="m7.364 17.388-2.902 6.236-2.903-6.236h.79l1.968 4.159.142.3.142-.3 1.974-4.159h.789m-.884-.165h-.003L4.46 21.476l-2.012-4.25H1.309L4.462 24l3.152-6.774H6.477l.003-.003Z"/></g><g fill="#FFF" fill-rule="nonzero"><path d="m3.113 18.15-.002-.092H1.314l-.005.092v.037h1.802z"/><path d="M3.11 18.058H1.315l-.005.092v.037h1.802l.002-.037z"/></g><g fill="#FFF" fill-rule="nonzero"><path d="m6.482 18.058-.005.129H8.28l.002-.13z"/><path d="M8.281 18.058H6.482l-.005.129H8.28z"/></g><g fill="#FFF" fill-rule="nonzero"><path d="m7.963 17.314.961-.007 2.061 4.354 2.066-4.354h.964l-3.027 6.505z"/><path d="m13.89 17.388-2.902 6.236-2.9-6.23.787-.006 1.968 4.158.142.3.142-.299 1.974-4.16h.789m-.886-.164-2.019 4.253-2.012-4.251h-.001l-1.123.008.008-.01h-.023l3.154 6.776 3.152-6.773h-1.137l.001-.003Z"/></g><g fill="#FFF" fill-rule="nonzero"><path d="m9.651 18.07.002-.055-.002-.074H7.862l-.013.37z"/><path d="M9.651 17.941H7.862l-.013.37 1.802-.24.002-.056z"/></g><g fill="#FFF" fill-rule="nonzero"><path d="m13.005 18.058-.002.129h1.802l.002-.13z"/><path d="M14.807 18.058h-1.802l-.002.129h1.802z"/></g><g fill="#FFF" fill-rule="nonzero"><path d="m22.949 17.313.96-.006 2.061 4.354 2.066-4.354H29l-3.027 6.505z"/><path d="m28.875 17.388-2.902 6.236-2.9-6.23.787-.006 1.968 4.158.142.3.142-.299 1.974-4.16h.79m-4.918-.164h-.002l.002.003-1.134.007L25.973 24l3.152-6.774h-1.137l-2.018 4.25-2.012-4.253Z"/></g><g fill="#FFF" fill-rule="nonzero"><path d="M30.056 18.076h-.108l.072.092z"/><path d="M30.056 18.076h-.108l.072.092z"/></g><g fill="#FFF" fill-rule="nonzero"><path d="M24.62 17.941h-1.8l.007.37 1.796-.24z"/><path d="M24.62 17.941h-1.8l.007.37 1.796-.24z"/></g><g fill="#FFF" fill-rule="nonzero"><path d="m27.988 18.132.001.055h1.802v-.037l-.003-.092H27.99z"/><path d="M29.788 18.058H27.99l-.001.074.001.055h1.802v-.037z"/></g><path d="m9.961 7.9-.004-.08-4.89-1.426.003.002a.434.434 0 0 1 .033.012l.01.005a.4.4 0 0 1 .066.043l.007.007a.322.322 0 0 1 .056.063l.004.006a.488.488 0 0 1 .045.08l.002.004.017.045.004.013a.884.884 0 0 1 .012.039c0 .004.002.007.003.011a.775.775 0 0 1 .01.052l.001.011.005.045.001.015.001.012.001.047v.039l-.001.01v.008l-.006.059-.001.012v.001a1.025 1.025 0 0 1-.013.07v.001l4.69 1.368a7.924 7.924 0 0 1-.055-.57v-.003Zm-.013-.459a5.892 5.892 0 0 1 .002-.145v-.043l.001-.013-3.973-1.16.001-.318-.392-.115v-.413l.084-.025-3.864-1.127.613 1.293L9.95 7.57v-.035c-.002-.033-.002-.063-.002-.095Z"/><path d="M9.962 6.978A7.31 7.31 0 0 1 10 6.532L6.275 5.445l-.001.55 3.683 1.074.004-.088v-.003Zm.858-3.122-7.202-2.1-.002.886v.028l-.044.012 1.162.34.034-.044a.63.63 0 0 1 .298-.212.366.366 0 0 1 .253.014l.012.005a.347.347 0 0 1 .033.019l.006.004a.315.315 0 0 1 .046.036c.01.008.018.017.027.026l.009.01a.393.393 0 0 1 .066.095.586.586 0 0 1 .021.044l.003.005a.594.594 0 0 1 .038.114l.003.013a.721.721 0 0 1 .02.127v.019l.002.013a.994.994 0 0 1 0 .098.92.92 0 0 1-.003.052l-.005.043-.001.013v.002a.744.744 0 0 1-.01.057l-.012.05a.855.855 0 0 1-.028.101l2.258.66-.017-.036.04-.01.697-.206.004-.015.023.007.149-.044 1.78.52.053-.13c.088-.21.183-.416.287-.616Zm-5.188-.131c-.007.027-.018.052-.025.08.009-.032.022-.064.03-.097l-.005.017Zm4.322 3.402-3.8-1.098-.093.027L9.952 7.18v-.02l.002-.033ZM28.568 4.96a.813.813 0 0 1-.043-.04l-3.805 1.1.009.052 3.839-1.111Zm-.217-.286-.013-.028-.007-.013-.002-.006-3.676 1.07.011.05 3.687-1.073Zm.09.147a.987.987 0 0 1-.03-.045l-3.723 1.077.01.051 3.743-1.083Zm-2.283 2.446-.001-.007a1.5 1.5 0 0 1-.02-.09c-.001-.01-.004-.02-.006-.029v-.003a2.032 2.032 0 0 1-.02-.125v-.004l-.002-.022a1.552 1.552 0 0 1-.01-.108v-.014a2.882 2.882 0 0 1 0-.176v-.012a1.808 1.808 0 0 1 .016-.165c.006-.038.014-.075.022-.11l.008-.035a1.08 1.08 0 0 1 .035-.11l.003-.009a1.025 1.025 0 0 1 .126-.23.574.574 0 0 1 .06-.064l.016-.014a.558.558 0 0 1 .06-.045l.021-.014a.432.432 0 0 1 .08-.037h.001l-1.804.597c.06.414.105.83.135 1.25l1.28-.424Z"/><path d="m25.616 6.674-.018-.049-.772.224.004.053.786-.228Zm-20.402.723a.853.853 0 0 1-.029.045l4.89 1.413-.01-.056-4.851-1.402Zm23.988-.47L29.11 6.9l-4.293 1.246a2.04 2.04 0 0 1-.005.055l4.39-1.274Zm-3.509-2.046-.018-.048-1.163.336.015.05 1.166-.338Zm.128.345-.018-.048-1.192.346.013.05 1.197-.348Zm3.795-2.576-.092-.026-5.39 1.553.02.047 5.462-1.574Zm-.249-.073-.001-.381.363.107-.001-.507-5.934 1.73c.111.19.214.386.31.587l5.263-1.536Zm-3.791 1.989-.018-.049-1.15.335.017.049 1.151-.335Zm.058.156-.018-.048-1.155.334.016.05 1.157-.336Zm.112.325-.007-.025-.007-.025-1.171.34.014.049 1.171-.34ZM5.289 7.236v.001l-.002.007-.007.015-.01.025 4.775 1.386-.009-.056L5.29 7.236ZM8.67 4.16l-.017.049 1.78.52.017-.048-1.78-.52Zm-.06.165-.018.049 1.781.52.018-.048-1.781-.52ZM6.612 5.346l-.091.027L10.017 6.4l.007-.052-3.412-1.002Zm1.644-.068-.015.04-.024-.051-.024-.052-.03-.062-.065-.14-1.82-.532v.174l-.002.375.394-.115-.001.413 3.36.981a7.89 7.89 0 0 1 .087-.487l-1.86-.544Z"/><path d="m8.314 5.122-.018.048 1.844.54.012-.05-1.838-.538Zm-1.906.284-.006.002-.013.046 3.614 1.055.006-.051-3.6-1.052Zm2.085-.765-.019.049 1.796.525.015-.05-1.792-.524Zm-.12.322-.018.048 1.825.534.013-.05-1.82-.532Zm.179-.481-.018.048 1.787.523.016-.049-1.785-.522Zm-.121.324-.018.049 1.808.528.014-.05-1.804-.527Zm-6.194.621-.091.027 7.793 2.262.007-.025.006-.02v-.005L2.237 5.427Zm2.545.929-2.86-.836-.091.027 2.937.859zm.117 1.004a.238.238 0 0 0 .062-.036.366.366 0 0 0 .112-.15.497.497 0 0 0 .044-.2c0-.179-.103-.293-.23-.256-.128.038-.232.213-.233.391a.356.356 0 0 0 .058.197.155.155 0 0 0 .174.058l.013-.005Zm-.197-.854-3.076-.9-.091.027 3.125.914a.79.79 0 0 1 .042-.041Zm-3.468-.784 3.32.971.028-.045-3.257-.953-.091.027Zm4.84-1.18-.96-.28-.012.004a.501.501 0 0 1-.037.013h-.002a.33.33 0 0 1-.038.01h.001l.956.279.092-.026Zm-1.009 3.04 5.051 1.479-.012-.058-4.997-1.462a.455.455 0 0 1-.042.04ZM3.26 2.774l1.38.404a.67.67 0 0 1 .026-.047l-1.314-.384-.092.027Zm-.296.087 1.614.472a.935.935 0 0 1 .017-.049l-1.54-.45-.091.027Zm21.349 1.735 1.15-.335.28.082.5.147-.259.552 2.264-.66V4.38a1.142 1.142 0 0 1-.015-.083v-.002a1.448 1.448 0 0 1-.009-.087.04.04 0 0 0 0-.008v-.003a1.105 1.105 0 0 1-.002-.057v-.057l.002-.011V4.07l.001-.02.002-.022a.613.613 0 0 1 .004-.032l.002-.014.012-.062.004-.014.013-.047.005-.015.008-.021.002-.007.007-.018.004-.009.002-.005a.164.164 0 0 1 .007-.013V3.77a.89.89 0 0 1 .016-.031l.008-.014a.405.405 0 0 1 .029-.045.491.491 0 0 1 .068-.076l.01-.009a.296.296 0 0 1 .037-.028l.007-.004a.127.127 0 0 1 .014-.008c.007-.005.014-.008.02-.011l.012-.006a.37.37 0 0 1 .04-.015l.004-.001a.355.355 0 0 1 .081-.013l1.089-.318v-.22l-.001-.287-5.54 1.616.073.172.049.124Zm-16.248.345L5.3 4.133a.824.824 0 0 1-.044.04l2.838.83-.03-.062Zm-.067-.143-.03-.062-2.55-.746a2.25 2.25 0 0 1-.032.044l2.612.764Zm-.123-.263L5.5 3.841l-.001.003-.007.013-.015.031 2.426.71-.03-.063Zm21.623 2.479-.092-.027-4.606 1.33-.006.055 4.704-1.358Zm.303.089-.091-.027-4.935 1.44-.008.055L29.8 7.103Zm-3.388-.33 6.324-1.843-.091-.027-6.221 1.813a.624.624 0 0 1-.012.057Zm3.071-.729 3.417-.988-.007-.025-.006-.025-3.421.99zm-.704-.962a.492.492 0 0 1-.077-.03l-2.716.794h.004a.402.402 0 0 1 .072.031l2.717-.795Zm-2.348 1.481 5.99-1.725-.091-.027-5.902 1.7a.589.589 0 0 1 .003.052Zm1.845-2.075-.008-.023-.001-.003-2.329.677-.03.061 2.375-.69a.63.63 0 0 1-.007-.022ZM4.902 7.68l.03-.012a.468.468 0 0 1-.045.017h-.003a.297.297 0 0 1-.04.01l5.318 1.568-.014-.058-5.214-1.538a.268.268 0 0 1-.032.012Z"/><path d="M28.633 4.592c.043.05.094.086.147.102.155.046.28-.093.28-.308-.001-.215-.127-.427-.282-.473-.154-.045-.279.093-.278.309a.59.59 0 0 0 .133.37Zm.226-1.035 1.065-.31-.092-.026-1.05.305a.507.507 0 0 1 .077.03Zm1.453-.687-.091-.042-.217.1v.085z"/><path d="M28.962 5.094c.004 0 .008 0 .012-.002a.17.17 0 0 0 .023-.006l-2.865.836c.149.113.262.323.293.55l5.803-1.692-.004-1.153-2.886.842c0 .341-.157.584-.376.625Zm-3.149 1.879a.636.636 0 0 1-.042-.042l-.926.268.001.053.967-.28Zm-.966.613v.042l-.003.07v.022l-.004.081v.011l-.005.089v.002a6.86 6.86 0 0 1-.015.205l4.217-1.23.388-.817.03-.062.007-.016-3.087.9c-.053.113-.138.186-.24.206l.01-.002.019-.004-1.316.383v.12Z"/><path d="m25.946 7.11-.007-.024-.007-.025-1.084.314v.054l1.098-.318Zm-1.106-.03v.003l.857-.25a.826.826 0 0 1-.027-.045l-.832.242.002.04v.01Z"/><path d="m29.728 1.795.001.507-.363-.107.001.382-5.264 1.535.03.064 5.39-1.553.093.027-5.462 1.574.035.075 5.541-1.616v.341l.001.167-1.089.317a.35.35 0 0 0-.081.013l-.004.002a.37.37 0 0 0-.051.02l-.021.011-.014.008-.007.004a.49.49 0 0 0-.038.029l-.009.008-.028.027-.009.01a.491.491 0 0 0-.031.04c-.002.001-.003.004-.005.007a.604.604 0 0 0-.047.082v.001l-.007.013-.003.006-.004.008a.19.19 0 0 0-.007.018l-.002.007-.008.021-.005.016a.713.713 0 0 0-.013.047l-.004.014a1.136 1.136 0 0 0-.014.075.613.613 0 0 0-.006.055l-.001.019v.002l-.001.011v.028l-.001.03.001.057V4.2l.001.008a1.112 1.112 0 0 0 .009.086v.003c.004.028.01.055.015.083v.001l-2.264.66.26-.552-.5-.146-.28-.083-1.151.336c.033.085.065.17.095.256l1.15-.335.019.048-1.152.335.036.108 1.155-.335.019.049-1.157.335.035.112 1.163-.336.018.048-1.166.337.034.117 1.172-.339.007.025.007.025-1.171.338a6.2 6.2 0 0 1 .036.14l1.192-.347.018.048-1.197.348.03.123 3.675-1.07.002.006.007.013.013.028-3.687 1.074.023.105 3.723-1.077.03.045-3.743 1.083.022.117 3.805-1.101a.657.657 0 0 0 .044.041l-3.84 1.111.015.087 1.076-.314a.26.26 0 0 0-.06.026.392.392 0 0 0-.036.024l-.01.007a.4.4 0 0 0-.113.16.592.592 0 0 0-.02.057l-.006.019a.687.687 0 0 0-.012.058l-.003.012a.86.86 0 0 0-.008.074v.007l-.001.045.001.047.001.007c.001.02.003.039.006.057v.012l.001.002a.949.949 0 0 0 .012.066v.001c0 .005.002.01.004.016l.011.046.001.004-.763.223.002.035.772-.224a.79.79 0 0 0 .018.049l-.786.228.005.076v.003l.002.049.832-.243a.97.97 0 0 0 .027.046l-.857.25.004.078v.037l.927-.268a.531.531 0 0 0 .042.042l-.967.28.001.043.001.051v.028l1.085-.314.007.025.007.025-1.098.317v.038l1.315-.383a1.01 1.01 0 0 1-.018.004l-.01.001c.102-.018.186-.092.24-.205l3.086-.9-.007.016-.03.062-.387.817-4.218 1.23-.003.037 4.293-1.246.092.027-4.39 1.274-.012.115 4.606-1.33.092.027-4.704 1.358a6.536 6.536 0 0 1-.019.144l4.935-1.44.092.027-5.034 1.468c-.01.073-.023.146-.036.218l5.191-1.513.158-.046-.058-.158-.333-.907 3.405-.994.11-.032V5.02L33.2 3.866V3.75l-.11-.032-.826-.242-.041-.013-.041.012-2.71.79v-.002l-.01-.052-.007-.035a1.56 1.56 0 0 0-.012-.047l-.001-.005a.678.678 0 0 0-.009-.03l-.012-.039-.001-.004-.003-.01-.01-.027c0-.004-.002-.008-.004-.013l-.017-.042-.014-.033-.013-.031-.003-.006-.007-.015a.901.901 0 0 0-.025-.049l-.002-.004-.008-.014a1.286 1.286 0 0 0-.03-.05l-.008-.012a.9.9 0 0 0-.035-.051v-.002l-.003-.002a.493.493 0 0 0-.024-.031l.831-.243.11-.032v-.117l-.001-.177.253-.074.11-.032-.001-.117-.001-.381V2.37l-.11-.032-.254-.075v-.39l-.001-.116-.11-.032-.273-.08-.041-.013-.041.012-5.975 1.742.082.137 5.935-1.728ZM25.91 5.2l.03-.061 2.328-.677.001.003.008.023-.007-.02.014.043-2.374.69Zm2.631-.764a.59.59 0 0 1-.041-.215c0-.215.124-.354.279-.308.155.045.28.257.28.472.001.216-.123.354-.278.309a.321.321 0 0 1-.147-.102.557.557 0 0 1-.093-.156Zm-2.55 1.41h-.005l2.717-.795c.025.012.05.023.077.03l-2.717.795a.49.49 0 0 0-.073-.03Zm6.903-.815.007.025-3.417.988-.017-.048 3.42-.99.007.025Zm-.156-.101-6.325 1.843a.662.662 0 0 0 .011-.057l6.222-1.813.092.027Zm-.407-.12.092.027-5.99 1.726a.614.614 0 0 0-.004-.053l5.902-1.7Zm-2.993-.341 2.887-.842.003 1.153-5.803 1.693a.855.855 0 0 0-.292-.551l2.865-.836-.023.006-.012.002c.218-.04.376-.284.375-.625Zm.883-1.64.091.042-.308.142v-.085l.217-.1Zm-.39.392.092.026-1.065.31a.55.55 0 0 0-.077-.032l1.05-.304ZM4.844 7.695a.404.404 0 0 0 .04-.01h.003a.393.393 0 0 0 .044-.016l-.029.01c.01-.003.022-.006.032-.011l5.215 1.539a12.253 12.253 0 0 1-.032-.146L5.065 7.582a.643.643 0 0 0 .043-.04l4.997 1.462-.029-.149-4.89-1.413.029-.045 4.851 1.401a11.376 11.376 0 0 1-.021-.128L5.27 7.284l.01-.025.006-.015.002-.007 4.747 1.377a6.252 6.252 0 0 1-.02-.14l-4.69-1.367v-.002a.815.815 0 0 0 .013-.069v-.002l.001-.011a.786.786 0 0 0 .006-.06v-.02l.002-.037-.001-.047-.001-.011-.001-.016a1.103 1.103 0 0 0-.005-.045l-.002-.01a.548.548 0 0 0-.01-.052l-.003-.012a.884.884 0 0 0-.011-.039l-.004-.012a.587.587 0 0 0-.017-.045l-.002-.004a.647.647 0 0 0-.019-.038l-.006-.01a.679.679 0 0 0-.02-.033l-.004-.005a.436.436 0 0 0-.026-.033l-.007-.008-.023-.023-.008-.006a.334.334 0 0 0-.037-.028l-.028-.016-.01-.004a.233.233 0 0 0-.036-.014h-.001l4.89 1.426v-.018l-.004-.082v-.048l-.006.02-.008.024-7.793-2.262.092-.027L9.95 7.667a.939.939 0 0 1-.001-.038l-.001-.042v-.015l-7.53-2.197-.614-1.293L5.67 5.21l-.083.024-.001.414.392.114v.32l3.97 1.158.002-.056V7.18L6.06 6.057l.092-.027 3.8 1.098.003-.047v-.012L6.272 5.994l.002-.55 3.725 1.088.002-.023-3.613-1.056.013-.046.006-.002 3.6 1.052.008-.058L6.52 5.372l.091-.027 3.412 1.002.006-.038-3.36-.98v-.414l-.393.115.001-.375V4.48l1.82.532.066.14.03.062.024.052.024.051.015-.04 1.86.544.024-.112-1.843-.54.018-.048 1.838.537.028-.115-1.824-.533.018-.049 1.82.532.028-.111-1.808-.529.018-.048 1.805.527c.01-.04.022-.08.034-.119L8.475 4.69l.018-.048 1.793.524a9.7 9.7 0 0 1 .035-.113L8.534 4.53l.019-.048 1.784.521.037-.108-1.782-.521.018-.049 1.781.52a5.45 5.45 0 0 1 .042-.116l-1.78-.52.019-.05 1.78.521.03-.08-1.78-.519-.149.044-.023-.007-.004.015-.698.206-.039.01.017.037-2.258-.66.015-.05a.46.46 0 0 0 .013-.05l.011-.051.01-.057v-.002L5.6 3.5a.602.602 0 0 0 .008-.095 1.184 1.184 0 0 0 0-.097l-.001-.014a.94.94 0 0 0-.008-.075l-.001-.01a.809.809 0 0 0-.012-.06c0-.005-.002-.01-.003-.014l-.013-.046-.005-.015a.538.538 0 0 0-.02-.052l-.003-.006a.502.502 0 0 0-.087-.14l-.009-.009a.331.331 0 0 0-.027-.026l-.009-.008c-.012-.01-.024-.02-.037-.028l-.006-.004a.537.537 0 0 0-.045-.024.271.271 0 0 0-.039-.014l-.003-.002a.37.37 0 0 0-.21.003.634.634 0 0 0-.333.256l-1.162-.34.044-.013V2.64l.002-.886 7.203 2.1c.024-.047.048-.093.074-.14L3.66 1.608l-.042-.012-.04.012-.656.192-.11.032v.116l-.002.915v.117l.11.032 1.475.43-.005.03v.002l-.003.011v.003l-.01.077v.004l-.001.01-.001.006-.001.013-.002.034a1.11 1.11 0 0 0 0 .108l.001.021v.002l.002.02v.01l.006.045v.004l.004.027v.004l.008.037c0 .003 0 .006.002.009v.006l.005.02.013.046.005.017.007.018.002.005.005.015a.389.389 0 0 0 .01.026l.002.005.013.028.001.002v.002l.012.023.004.007.008.014.01.017.01.016.004.008.002.003.002.003.017.023.002.004.008.009.003.004a.552.552 0 0 0 .027.033l.001.001c.01.012.022.023.033.034l.003.002.005.005.007.007a.5.5 0 0 0 .03.024l.004.003.007.005a.476.476 0 0 0 .036.024l.005.003a.403.403 0 0 0 .114.05l1.018.298V5l-.16.047-3.823-1.114-.134-.04-.049.134-.606 1.65L1 5.836l.158.046 3.179.927a.118.118 0 0 0-.004.012l-.003.009a2.41 2.41 0 0 0-.017.058l-.003.01V6.9h-.001l-.001.004-.013.052a.25.25 0 0 0-.003.02l-.001.006v.001l-.001.007-.002.01-.004.028a.71.71 0 0 0-.004.033v.007l-.001.006v.003l-.002.013a.869.869 0 0 0-.003.137l.001.019v.001l.002.017v.01a.505.505 0 0 0 .006.041l.003.025v.003l.007.032.001.008.001.004a.208.208 0 0 0 .005.017v.003l.01.035.005.018v.002l.001.002.005.013.001.004.005.014.01.023v.003l.011.024.002.003v.002l.011.021.002.005.008.014.008.013.01.018.003.004.002.003c.006.009.01.017.016.023l.001.002.007.01h.001a.505.505 0 0 0 .054.06l.002.002.004.004.003.003.006.005a.757.757 0 0 0 .036.03.597.597 0 0 0 .033.021l.004.003.007.004c.014.008.03.016.045.022h.002a.394.394 0 0 0 .048.018l5.546 1.618a8.754 8.754 0 0 1-.048-.19L4.844 7.695Zm-.266-4.362-1.614-.472.092-.027 1.54.451c-.007.015-.012.032-.018.048Zm.063-.155L3.26 2.775l.092-.027 1.314.384a.67.67 0 0 0-.025.046Zm.852.679.007-.013V3.84l2.375.694.03.063-2.427-.71.015-.031Zm-.101.17a2.25 2.25 0 0 0 .026-.037l2.551.746.03.062-2.613-.763.006-.008Zm-.092.106 2.765.808.029.063-2.838-.83a1.11 1.11 0 0 0 .044-.041Zm-.274.156h-.002c.013-.003.026-.005.038-.009h.003a.501.501 0 0 0 .036-.013h.001l.012-.005.96.28-.093.027-.955-.28ZM1.922 5.52l2.86.837-.014.049-2.938-.86.092-.026Zm2.632 1.173-3.32-.971.091-.027 3.257.953a.764.764 0 0 0-.028.045Zm-3.02-1.06.092-.026 3.076.899a.79.79 0 0 0-.042.041l-3.125-.914Zm3.178 1.673a.244.244 0 0 1-.026-.044.36.36 0 0 1-.032-.153c0-.178.105-.353.233-.39.127-.038.23.076.23.255a.497.497 0 0 1-.067.246.366.366 0 0 1-.089.104.238.238 0 0 1-.062.035l-.013.005a.154.154 0 0 1-.174-.058Z" fill="#FFF" fill-rule="nonzero"/><path d="m5.634 3.725.003-.017-.03.096c.009-.027.02-.053.027-.08Z" fill="#FFF" fill-rule="nonzero"/><path d="M10.014 7.725v.02l.006-.018-.006-.002Z" fill="#F26430" fill-rule="nonzero"/><path d="m24.652 7.89.005-.087v-.01l.004-.08v-.022l.002-.067.001-.041.001-.05v-.234l-.002-.04-.002-.07v-.021l-.004-.08v-.01l-.005-.086V6.99a7.527 7.527 0 0 0-.558-2.445 7.428 7.428 0 0 0-1.557-2.365 7.235 7.235 0 0 0-2.31-1.594A7.079 7.079 0 0 0 17.398 0c-.98 0-1.932.197-2.828.585a7.235 7.235 0 0 0-2.31 1.594 7.428 7.428 0 0 0-1.557 2.365 7.5 7.5 0 0 0-.559 2.445v.003l-.004.086v.011a2.078 2.078 0 0 0-.004.078v.023l-.002.068-.001.04-.001.05v.235l.002.041.002.068a.34.34 0 0 1 0 .022l.003.08v.01l.005.086v.003a7.525 7.525 0 0 0 2.116 4.81 7.235 7.235 0 0 0 2.31 1.594 7.077 7.077 0 0 0 2.828.585c.981 0 1.933-.197 2.83-.585a7.235 7.235 0 0 0 2.309-1.594 7.428 7.428 0 0 0 1.557-2.365c.322-.78.509-1.6.558-2.445V7.89m-7.254-6.45c2.993 0 5.47 2.31 5.819 5.281h-3.424l-1 1.774-2.802-4.988L14.18 6.72h-2.6c.349-2.97 2.825-5.28 5.819-5.28m0 12c-2.994 0-5.47-2.31-5.819-5.28h3.411l1-1.774 2.802 4.989 1.812-3.215h2.612c-.348 2.97-2.824 5.28-5.818 5.28" fill="#FFF" fill-rule="nonzero"/></g></svg>