<svg id="rtlhu_rtl_klub_ghost" viewBox="0 0 91 24" xmlns="http://www.w3.org/2000/svg"><path d="M58.312 4.798v14.404H32.688V4.798h25.624Zm-7.414 3.307H40.102v1.536h4.503v6.235h1.772V9.641h4.521V8.105Zm35.607-3.307v14.404H60.88V4.798h25.625ZM70.609 8.105h-1.772v7.771h9.693v-1.518h-7.92V8.105ZM30.12 4.798v14.404H4.496V4.798H30.12ZM18.601 8.105h-6.817v7.79h1.772v-2.73h3.562l3.147 2.73h2.568l-3.346-2.838c1.483-.217 2.351-1.12 2.351-2.458 0-1.554-1.157-2.494-3.237-2.494Zm-.235 1.446c1.103 0 1.628.343 1.628 1.066 0 .723-.525 1.085-1.628 1.085h-4.81V9.55Z" fill="#FFF"/></svg>