<svg fill="none" id="rtlhu_live4_dark" viewBox="0 0 83 24" xmlns="http://www.w3.org/2000/svg"><g clip-path="url(#ana)" fill="#0D0D0D" opacity=".97"><path clip-rule="evenodd" d="M47.886 0h21.768v12.277H47.887zm8.276 2.822H54.65v6.632h8.24V8.147h-6.727zM23.943 0h21.769v12.277h-21.77zm6.302 4.13h3.826v5.324h1.512V4.13h3.827V2.822h-9.165zM0 0h21.769v12.277H0zm11.985 2.822H6.184v6.632h1.511v-2.32h3.033l2.674 2.32h2.183L12.74 7.048c1.256-.18 1.994-.948 1.994-2.094 0-1.336-.983-2.132-2.75-2.132m1.19 2.15c0 .616-.453.92-1.389.92h-4.09v-1.83h4.09c.936 0 1.39.295 1.39.91" fill-rule="evenodd"/><path d="M82.717 5.354H79.15v-2.7h-1.578v2.7H74.01v1.583h3.562v2.682h1.578V6.937h3.566zM8.743 23.905v-6.636h.832v5.878h3.289v.758zm5.161 0v-6.636h.832v6.636zm4.301 0-2.43-6.54v-.095h.86l1.986 5.526h.038l1.956-5.526h.87v.094l-2.439 6.541zm4.319 0v-6.636h4.263v.759h-3.431v2.076h3.138v.758h-3.138v2.285h3.431v.758zm7.288-1.991h.841c.048.853.653 1.308 1.749 1.308 1.002 0 1.54-.398 1.54-1.137 0-.645-.264-.882-1.19-1.08l-.964-.209c-1.2-.256-1.758-.825-1.758-1.791 0-1.138.86-1.83 2.287-1.83s2.354.787 2.363 1.981h-.841c-.038-.777-.577-1.204-1.522-1.204s-1.437.36-1.437 1.052c0 .503.369.825 1.135.986l.898.19c1.37.294 1.88.806 1.88 1.905 0 1.166-.935 1.915-2.39 1.915-1.607 0-2.553-.758-2.59-2.086zm7.648 1.991v-5.877h-2.052v-.759h4.934v.759h-2.05v5.877zm8.998-.095v.095h-.898l-1.74-2.626h-1.606v2.626h-.832v-6.636h2.627c1.352 0 2.099.863 2.099 1.99 0 .987-.567 1.67-1.427 1.916zm-4.244-5.782v2.493h1.748c.832 0 1.295-.455 1.295-1.26 0-.806-.463-1.233-1.295-1.233zm5.331 5.877v-6.636h4.263v.759h-3.432v2.076h3.138v.758h-3.138v2.285h3.432v.758zm8.46-6.635 2.438 6.54v.095h-.879l-.615-1.716h-2.91l-.615 1.716h-.86v-.095l2.429-6.54zm-1.692 4.161h2.363l-1.163-3.242h-.037zm5.17 2.474v-6.636h1.069l2.183 3.982h.038l2.23-3.982h1.002v6.636h-.832v-5.318h-.037l-2.344 4.18h-.095l-2.344-4.208h-.038v5.346zm12.799 0v-1.403h-3.016v-.834l2.676-4.399h1.144v4.512h.888v.72h-.889v1.404zm-2.24-2.123h2.24v-3.706h-.038l-2.203 3.668z"/></g><defs><clipPath id="ana"><path d="M0 0h83v24H0z" fill="#fff"/></clipPath></defs></svg>