<svg fill="none" id="rtlhu_live7" viewBox="0 0 83 24" xmlns="http://www.w3.org/2000/svg"><g clip-path="url(#ava)" opacity=".97"><path d="M69.893 0H48.05v12.277h21.843z" fill="#9629BC"/><path d="M54.838 2.822h1.517v5.325h6.75v1.307h-8.267z" fill="#fff"/><path d="M45.868 0H24.025v12.277h21.843z" fill="#0CAAED"/><path d="M34.188 4.13h-3.84V2.822h9.197V4.13h-3.84v5.324h-1.517z" fill="#fff"/><path d="M21.843 0H0v12.277h21.843z" fill="#0C39ED"/><path d="M6.205 2.822h5.821c1.773 0 2.759.796 2.759 2.132 0 1.146-.74 1.914-2 2.094l2.853 2.406h-2.19l-2.683-2.32H7.722v2.32H6.205zm5.622 3.07c.938 0 1.393-.304 1.393-.92 0-.615-.454-.91-1.393-.91H7.722v1.83zM83 5.354h-3.58v-2.7h-1.582v2.7h-3.575v1.583h3.575v2.682h1.583V6.937H83zM9.02 23.905v-6.636h.834v5.878h3.3v.758zm5.178 0V17.27h.835v6.636zm4.315 0-2.437-6.54v-.095h.863l1.992 5.526h.038l1.963-5.526h.873v.094l-2.447 6.541zm4.335 0V17.27h4.278v.759h-3.444v2.076h3.15v.758h-3.15v2.285h3.444v.758zm7.312-1.991h.845c.048.853.655 1.308 1.755 1.308 1.005 0 1.546-.398 1.546-1.137 0-.645-.266-.882-1.195-1.08l-.968-.21c-1.204-.255-1.764-.824-1.764-1.79 0-1.138.863-1.83 2.296-1.83s2.361.787 2.37 1.981h-.844c-.038-.777-.578-1.204-1.526-1.204s-1.442.36-1.442 1.052c0 .503.37.825 1.138.986l.901.19c1.375.294 1.888.806 1.888 1.905 0 1.166-.94 1.915-2.4 1.915-1.612 0-2.56-.759-2.599-2.086m7.673 1.991v-5.877h-2.058v-.759h4.95v.759H38.67v5.877zm9.03-.095v.095h-.901l-1.746-2.626h-1.612v2.626h-.835V17.27h2.637c1.356 0 2.106.863 2.106 1.99 0 .987-.57 1.67-1.433 1.916zm-4.259-5.782v2.493h1.755c.834 0 1.299-.455 1.299-1.26 0-.806-.465-1.233-1.3-1.233zm5.349 5.877V17.27h4.278v.759h-3.443v2.076h3.148v.758H48.79v2.285h3.443v.758zm8.49-6.635 2.447 6.54v.095h-.883l-.616-1.716H54.47l-.616 1.716h-.863v-.095l2.437-6.54zm-1.698 4.16h2.37l-1.166-3.24h-.038zm5.188 2.475V17.27h1.072l2.191 3.982h.038l2.238-3.982h1.005v6.636h-.834v-5.318h-.038l-2.352 4.18h-.095l-2.352-4.208h-.038v5.346zm10.528 0v-.095l2.693-5.754v-.038h-3.452v-.748h4.277v.796l-2.722 5.84z" fill="#fff"/></g><defs><clipPath id="ava"><path d="M0 0h83v24H0z" fill="#fff"/></clipPath></defs></svg>