<svg id="rtlhu_rtl_klub" viewBox="0 0 91 24" xmlns="http://www.w3.org/2000/svg"><g fill="none"><path d="M0 0h91v24H0z"/><path d="M32.688 4.798h25.624v14.404H32.688z" fill="#9629BC"/><path d="M60.88 4.798h25.624v14.404H60.88z" fill="#0CAAED"/><path d="M4.496 4.798H30.12v14.404H4.496z" fill="#CB0000"/><path d="M68.837 8.105h1.772v6.253h7.921v1.518h-9.693zM44.605 9.641h-4.503V8.105h10.796v1.536h-4.521v6.235h-1.772zM11.766 8.105H18.6c2.08 0 3.237.94 3.237 2.494 0 1.338-.868 2.241-2.35 2.458l3.345 2.837h-2.568l-3.147-2.729h-3.562v2.73h-1.772v-7.79h-.018Zm6.6 3.597c1.103 0 1.628-.362 1.628-1.085s-.525-1.066-1.628-1.066h-4.81v2.15h4.81Z" fill="#FFF"/></g></svg>