<svg id="rtlhu_rtl_most_ghost" viewBox="0 0 107 24" xmlns="http://www.w3.org/2000/svg"><g fill="none" fill-rule="evenodd"><path d="M0 0h107v24H0z"/><path d="M86.819 4.807v14.404H61.195V4.807h25.624ZM70.923 8.114h-1.772v7.772h9.693v-1.519h-7.92V8.114ZM58.627 4.807v14.404H33.002V4.807h25.625Zm-7.415 3.307H40.417v1.537h4.502v6.235h1.773V9.65h4.52V8.114ZM30.435 4.807v14.404H4.81V4.807h25.625Zm-11.52 3.307h-6.817v7.79h1.772v-2.73h3.562l3.148 2.731h2.567L19.8 13.066c1.484-.216 2.352-1.12 2.352-2.458 0-1.554-1.157-2.494-3.237-2.494ZM18.68 9.56c1.103 0 1.628.344 1.628 1.067 0 .722-.525 1.083-1.628 1.083h-4.81V9.56Zm83.528 1.518h-4.214V7.916H96.15v3.162h-4.195v1.862h4.195v3.144h1.844V12.94h4.214z" fill="#FFF" fill-rule="nonzero"/></g></svg>