<svg fill="none" id="rtlhu_live6_dark" viewBox="0 0 83 24" xmlns="http://www.w3.org/2000/svg"><g clip-path="url(#ata)" fill="#0D0D0D" opacity=".97"><path clip-rule="evenodd" d="M48.05 0h21.843v12.277H48.05zm8.305 2.822h-1.517v6.632h8.267V8.147h-6.75zM24.025 0H45.87v12.277H24.024zm6.323 4.13h3.84v5.324h1.517V4.13h3.84V2.822h-9.197zM0 0h21.843v12.277H0zm12.026 2.822h-5.82v6.632h1.516v-2.32h3.043l2.683 2.32h2.19l-2.853-2.406c1.26-.18 2-.948 2-2.094 0-1.336-.986-2.132-2.759-2.132m1.195 2.15c0 .616-.456.92-1.394.92H7.722v-1.83h4.105c.939 0 1.394.295 1.394.91" fill-rule="evenodd"/><path d="M83 5.354h-3.58v-2.7h-1.582v2.7h-3.575v1.583h3.575v2.682h1.583V6.937H83zM8.73 23.905v-6.636h.834v5.878h3.301v.758zm5.179 0v-6.636h.835v6.636zm4.315 0-2.437-6.54v-.095h.863l1.992 5.526h.038l1.963-5.526h.873v.094l-2.447 6.541zm4.336 0v-6.636h4.277v.759h-3.444v2.076h3.15v.758h-3.15v2.285h3.444v.758zm7.311-1.991h.845c.047.853.654 1.308 1.754 1.308 1.005 0 1.546-.398 1.546-1.137 0-.645-.265-.882-1.195-1.08l-.967-.21c-1.205-.255-1.764-.824-1.764-1.79 0-1.138.863-1.83 2.295-1.83s2.362.787 2.371 1.981h-.844c-.038-.777-.579-1.204-1.527-1.204s-1.442.36-1.442 1.052c0 .503.37.825 1.139.986l.9.19c1.376.294 1.888.806 1.888 1.905 0 1.166-.939 1.915-2.4 1.915-1.612 0-2.56-.759-2.598-2.086m7.673 1.991v-5.877h-2.058v-.759h4.95v.759H38.38v5.877zm9.029-.095v.095h-.9l-1.746-2.626h-1.612v2.626h-.835v-6.636h2.636c1.357 0 2.106.863 2.106 1.99 0 .987-.569 1.67-1.432 1.916zm-4.258-5.782v2.493h1.754c.835 0 1.3-.455 1.3-1.26 0-.806-.466-1.233-1.3-1.233zm5.349 5.877v-6.636h4.278v.759h-3.444v2.076h3.15v.758h-3.15v2.285h3.444v.758zm8.489-6.635 2.447 6.54v.095h-.882l-.617-1.716H54.18l-.617 1.716H52.7v-.095l2.437-6.54zm-1.698 4.16h2.372l-1.168-3.24h-.038zm5.189 2.475v-6.636h1.071l2.191 3.981h.038l2.239-3.98h1.005v6.635h-.834v-5.318h-.038l-2.352 4.18h-.095l-2.352-4.209h-.038v5.347zm10.053-3.213c0-2.218.901-3.517 2.438-3.517 1.128 0 1.935.673 2.058 1.716h-.826c-.066-.607-.54-.986-1.233-.986-1.043 0-1.631.938-1.631 2.578h.038c.313-.597.873-.91 1.612-.91 1.271 0 2.115.872 2.115 2.18S73.36 24 72.04 24c-1.517 0-2.343-1.166-2.343-3.309zm3.747 1.08c0-.91-.541-1.488-1.394-1.488-.854 0-1.404.569-1.404 1.48 0 .91.569 1.516 1.403 1.516s1.395-.607 1.395-1.507"/></g><defs><clipPath id="ata"><path d="M0 0h83v24H0z" fill="#fff"/></clipPath></defs></svg>