<svg id="rtlhu_rtl_vv24_dark" viewBox="0 0 37 24" xmlns="http://www.w3.org/2000/svg"><g fill="none"><path d="M34.201 4.179 17.926 8.953l.003 1.263 16.275-4.774z" fill="#0D0D0D"/><path d="M34.204 5.442 17.93 10.216l.9.266 16.275-4.775z" fill="#FFF"/><path d="M35.104 5.707 35.1 4.445l-.9-.266.003 1.263zM30.731 7.74l-13.265 3.892.92.272L31.65 8.011z" fill="#FFF"/><path d="m31.194 6.759-13.266 3.893-.462.98L30.73 7.74z" fill="#0D0D0D"/><path d="m31.194 6.759.456 1.252-.919-.271zm.589-3.526L18.226 7.211l.395.116L32.18 3.35z" fill="#FFF"/><path d="M31.483 2.172 17.926 6.15v.555l13.558-3.977zm.002.973L17.928 7.123l.002.555 13.557-3.977z" fill="#0D0D0D"/><path d="M31.487 3.701 17.93 7.678l.297.088 13.557-3.978zm-.397-.672L17.533 7.006l.395.117 13.557-3.978z" fill="#FFF"/><path d="M31.089 2.61 17.532 6.589v.418L31.09 3.03z" fill="#0D0D0D"/><path d="M31.784 3.788v-.555l.395.117-.002-.418-.395-.116-.001-.556-.298-.088.001.556-.395-.117.001.418.395.116.002.556z" fill="#FFF"/><path d="M30.214 4.062 17.926 7.667c-.206.06-.354.293-.37.616a1.158 1.158 0 0 0 .027.328L29.87 5.006a1.098 1.098 0 0 1-.027-.328c.017-.323.164-.555.37-.616Z" fill="#0D0D0D"/><path d="M30.662 5.783a.38.38 0 0 1-.131.006.45.45 0 0 1-.078-.017h-.003a.551.551 0 0 1-.115-.05.812.812 0 0 1-.234-.21 1.077 1.077 0 0 1-.14-.232 1.377 1.377 0 0 1-.09-.275L17.583 8.61a1.235 1.235 0 0 0 .09.275 1.372 1.372 0 0 0 .14.233c.069.088.148.16.234.21a.57.57 0 0 0 .114.049h.003a.497.497 0 0 0 .148.02.372.372 0 0 0 .087-.016l12.288-3.605a.185.185 0 0 1-.025.007Z" fill="#FFF"/><path d="M29.843 4.85c-.002-.546.437-.897.978-.781.543.115.984.651.986 1.197.002.547-.436.897-.978.782-.543-.115-.984-.651-.986-1.198Zm.98-.288c-.272-.057-.491.118-.49.392 0 .274.222.542.494.6.272.057.491-.118.49-.392a.647.647 0 0 0-.494-.6" fill="#FFF"/><path d="M30.45 4.491c-.169-.05-.304.102-.304.338 0 .237.138.468.306.518.168.05.304-.102.304-.338-.001-.236-.138-.468-.306-.518" fill="#0D0D0D"/><g fill="#FFF"><path d="m26.84 4.872-8.914 2.616.427 1.157 8.913-2.615z"/><path d="m27.266 6.03.422-.907-.848-.25z"/></g><path d="M27.583 7.968a.347.347 0 0 1-.104.005.356.356 0 0 1-.062-.013h-.002a.428.428 0 0 1-.09-.04.641.641 0 0 1-.186-.165.847.847 0 0 1-.11-.184.984.984 0 0 1-.054-.146l-9.302 2.73a.992.992 0 0 0 .164.329c.054.07.117.127.185.165.03.017.06.03.09.04h.003a.417.417 0 0 0 .116.015.358.358 0 0 0 .05-.007l.02-.005 9.302-2.729-.02.005Z" fill="#FFF"/><path d="m27.228 6.607-9.302 2.73c-.163.047-.28.23-.293.486a1.404 1.404 0 0 0 0 .101 1.063 1.063 0 0 0 .04.23l9.302-2.728a1.541 1.541 0 0 1-.031-.148 1.063 1.063 0 0 1-.01-.135l.001-.05c.013-.255.13-.439.293-.486Z" fill="#0D0D0D"/><path d="M27.417 7.96c.265.079.48-.16.48-.533-.002-.373-.218-.74-.484-.818-.266-.078-.48.16-.48.533.002.374.218.74.484.818Z" fill="#FFF"/><path d="M3.055 2.129 17.02 6.225l-.003 1.001L3.053 3.13z" fill="#0D0D0D"/><path d="m3.053 3.13 13.963 4.096-.713.21L2.34 3.34zm-.713.21.002-1 .713-.211-.002 1zm2.83.897a1.178 1.178 0 0 1-.066.18 1.215 1.215 0 0 1-.136.225.788.788 0 0 1-.227.203.549.549 0 0 1-.112.048l-.002.001a.469.469 0 0 1-.143.018.43.43 0 0 1-.085-.014l12.16 3.564.025.006a.384.384 0 0 0 .203-.01h.004a.549.549 0 0 0 .11-.048.788.788 0 0 0 .228-.204 1.13 1.13 0 0 0 .173-.316l.029-.088L5.17 4.237Z" fill="#FFF"/><path d="M17.38 7.395c-.016-.313-.159-.54-.359-.598L4.861 3.233c.2.059.343.284.358.597a1.096 1.096 0 0 1-.01.226 1.306 1.306 0 0 1-.038.181l12.161 3.565a1.228 1.228 0 0 0 .05-.347l-.002-.06Z" fill="#0D0D0D"/><path d="M4.628 4.894c-.326.096-.59-.197-.588-.655 0-.457.266-.907.592-1.003.326-.096.59.197.588.655 0 .457-.266.906-.592 1.003ZM1.75 6.092l15.932 4.675-1.327.393L.422 6.484z" fill="#FFF"/><path d="m1.082 4.676 15.933 4.676.667 1.415L1.75 6.092z" fill="#0D0D0D"/><path d="m1.082 4.676-.66 1.808 1.327-.392zm4.544 1.588 11.058 3.247-.429.127L5.198 6.39z" fill="#FFF"/><path d="M5.951 5.115 17.01 8.36l-.001.602L5.95 5.716zm-.002 1.054 11.057 3.247-.001.602L5.947 6.77z" fill="#0D0D0D"/><path d="m5.947 6.77 11.058 3.248-.323.095L5.625 6.866zm.43-.728L17.435 9.29l-.429.127L5.949 6.169z" fill="#FFF"/><path d="m6.378 5.59 11.058 3.247-.001.452L6.377 6.042z" fill="#0D0D0D"/><path d="M5.625 6.866v-.602l-.427.127v-.453l.429-.127.002-.601.322-.095-.001.601.428-.126-.001.452-.428.127-.002.602z" fill="#FFF"/><g fill="#FFF"><path d="m8.589 4.677 8.43 2.473-.5 1.354-8.43-2.473z"/><path d="M8.09 6.031 7.594 4.97l.994-.293z"/></g><path d="M17.324 11.352c-.013-.266-.135-.459-.305-.508L4.632 7.209c.17.05.293.243.306.51l.001.05a.895.895 0 0 1-.01.141 1.25 1.25 0 0 1-.013.08l12.386 3.633a.951.951 0 0 0 .024-.22l-.002-.05Z" fill="#0D0D0D"/><path d="M4.915 7.99a1.169 1.169 0 0 1-.075.227.954.954 0 0 1-.116.193.666.666 0 0 1-.193.172.484.484 0 0 1-.095.042h-.002a.322.322 0 0 1-.173.008l-.021-.005 12.386 3.634a.285.285 0 0 0 .13.011.339.339 0 0 0 .064-.013l.002-.001a.452.452 0 0 0 .095-.041c.07-.04.137-.1.194-.173a.924.924 0 0 0 .147-.27 1.71 1.71 0 0 0 .043-.15L4.915 7.988Z" fill="#FFF"/><path d="M4.912 9.198c-.543.115-.98-.235-.979-.782.002-.546.444-1.083.986-1.198.541-.114.98.236.978.782 0 .546-.442 1.083-.985 1.198Zm.006-1.485a.647.647 0 0 0-.494.6c-.001.274.218.449.49.392a.646.646 0 0 0 .494-.6c.001-.274-.218-.45-.49-.392" fill="#FFF"/><path d="M4.437 7.565c-.14.04-.252.233-.253.427 0 .196.112.32.251.28.14-.041.253-.233.253-.428 0-.195-.112-.32-.251-.28" fill="#0D0D0D"/><path d="m34.579 19.077-5.543-1.626v-1.273l7.705 2.26zm.016-3.422-5.543-1.626v-1.273l7.704 2.26z" fill="#FFF"/><path d="m33.865 20.287-14.61-4.689 5.727-5.264 8.9 2.611z" fill="#0D0D0D"/><path d="m33.883 12.945-13.626-4.01 3.117-.538 13.382 3.706zM21.767 6.57.217 12.893l.822.243 20.728-6.081z" fill="#FFF"/><path d="M21.767 7.055 1.039 13.136l2.21 5.99 18.518-5.433z" fill="#0D0D0D"/><path d="m6.254 14.676-3 6.45 18.513-5.432v-5.57z" fill="#0D0D0D"/><path d="M21.767 9.641 5.432 14.433l.822.243 15.513-4.552zM6.254 14.676l-3 6.45-3.037-8.233.822.243 2.21 5.99 2.183-4.693zm17.67-5.066-17.13 5.376.822.244 16.308-5.135z" fill="#FFF"/><path d="M22.8 10.637 7.617 15.23l2.21 5.99 12.975-3.944z" fill="#0D0D0D"/><path d="m12.832 16.77-3 6.45 16.087-4.859v-5.569z" fill="#0D0D0D"/><path d="m12.832 16.77-3 6.45-3.037-8.234.821.244 2.21 5.99 2.184-4.693z" fill="#FFF"/><path d="M23.792 12.893 12.01 16.527l.822.242 11.626-3.54z" fill="#FFF"/><path d="m11.733 7.303 20.728 6.08-2.21 5.991-18.518-5.432z" fill="#0D0D0D"/><path d="m27.246 14.923 3 6.45L14.8 16.73v-5.57z" fill="#0D0D0D"/><path d="m11.733 9.889 16.335 4.792-.822.242-15.513-4.55z" fill="#FFF"/><path d="m27.246 14.923 3 6.45 3.037-8.233-.822.244-2.21 5.99-2.183-4.693z" fill="#FFF"/><path d="m25.87 22.624-8.107-2.609v-7.353l8.136 2.617z" fill="#0D0D0D"/><path d="m25.9 15.279-3.392-.995v-.42l4.103 1.205zm.711-.21-.018 7.341-.723.214.03-7.345zm7.981-1.329 2.162-.638.002-1-2.873.84-.003 1.009-.015 6.336 2.873-.85.003-.999-2.162.639.006-2.417 2.17-.641.001-1-2.168.635zm-11.668 8.874-5.544-1.626v-1.273l7.705 2.26z" fill="#FFF"/><path d="m22.21 23.823-8.12-2.57.95-6.872 7.187 2.101z" fill="#0D0D0D"/><path d="m22.227 16.482-4.865-1.428.005-.417 5.572 1.635zm.712-.21-.015 6.342 2.161-.639-.002 1-2.874.848.018-7.34zM16.945 8.35l16.335 4.793-.822.242-15.513-4.551z" fill="#FFF"/><path d="m23.156 14.484 2.752.809m-2.526-.876 2.832.834m-2.774-.969 2.988.883m-2.816-.963 2.987.883m-2.772-1.165 3.457 1.017m-3.265-1.281 3.8 1.118m-3.992-1.019 3.738 1.105m-3.417-1.326 3.907 1.16m-2.763-3.408 7.213 2.11m-7.109-2.236 7.39 2.16m-7.358-2.31 7.61 2.225m-7.385-2.705 8.276 2.438m-8.894-2.248 8.248 2.42m-7.63-2.76 8.52 2.498m-8.477-2.652 8.84 2.603m-8.84-2.764 9.085 2.673m-9.085-2.802 9.275 2.716m-9.275-2.869 9.52 2.779m-9.401-2.887 9.762 2.838m-9.762-2.979 10.007 2.889M25.815 9.407 36.07 12.34M26.066 9.36l10.249 2.89M26.59 9.398l9.989 2.787m-2.085 6.797.287.202m-.287-.346.477.202m-.435-.346.74.216m-.74-.381 1.04.314m-1.102-.491 1.348.4m-1.355-.556 1.603.476m-1.596-.633 1.84.542m-1.778-.671 2.043.605m-2.085-2.943.287.202m-.287-.347.477.203m-.435-.347.74.217m-.74-.381 1.04.314m-1.102-.491 1.348.4m-1.355-.556 1.603.475m-1.596-.632 1.84.542m-1.778-.671 2.043.605m-16.995.585 2.753.809m-2.612-.9 2.832.833m-2.773-.968 2.988.883m-2.817-.952 2.988.883m-.103 6.127.448.203m-.421-.343.654.203m-.725-.401.987.306m-.916-.438 1.217.37m-1.254-.548 1.499.459m-1.462-.601 1.71.519m-1.781-.688 2.093.62m-2.022-.752 2.219.664M12.692 16.81l3.442-1.068m-3.725.995 3.723-1.16m-3.977 1.078 3.784-1.174m-4.022 1.098 3.89-1.22m-8.257-.134 4.246-1.311m-4.529 1.238 4.466-1.382m-4.72 1.3 4.636-1.435m-4.874 1.36 4.699-1.477m-5.257 1.155 5.09-1.508m-5.372 1.431 5.257-1.532m-5.51 1.446 5.54-1.617M5.445 14.43l5.633-1.653m-10.089.378 9.396-2.76M.707 13.078l9.277-2.683m-9.53 2.598 9.53-2.767M.178 12.93l9.497-2.782m-1.28-5.404 3.8 1.118m-3.87-.938 3.8 1.118M8.27 5.098l3.8 1.118m-3.818-.93 3.8 1.118m-3.87-.938 3.8 1.118M8.128 5.64l3.8 1.118m-3.839-.936 3.8 1.118m-3.854-.944 3.8 1.118M4.557 4.08l3.8 1.119M4.488 4.26l3.8 1.119m-3.854-.944 3.8 1.118m-3.819-.93 3.8 1.118m-3.87-.938 3.8 1.118M2.346 2.92l3.8 1.119M2.277 3.1l3.8 1.118m-3.855-.944 3.8 1.119m.134 1.65 3.8 1.118M6.08 6.152l3.8 1.118M.585 5.898l9.36 2.732M.516 6.077l3.8 1.118M.46 6.25l3.803 1.12M.422 6.433l3.8 1.118m.064.438 9.36 2.734M4.216 8.17l6.169 1.792M4.208 8.357l6.009 1.769M4.123 8.525l5.555 1.636M25.6 6.377l4.639-1.355M25.51 6.607 30.308 5.2M25.51 6.788l4.852-1.413M25.6 6.954l4.78-1.39M26.65 6.86l3.8-1.117m-8.088.579 4.636-1.355M22.27 6.553l4.798-1.406M22.27 6.733l4.853-1.412M22.362 6.9l4.779-1.391m-4.779 1.588 4.779-1.39M22.579 8.78l4.637-1.355M22.488 9.01l4.798-1.405M22.488 9.19l4.852-1.41m-4.761 1.578 4.78-1.391m-1.594 1.299 5.809-1.696m-5.508 1.79 5.562-1.616M26.59 9.398l5.056-1.466m-3.957-.507 7.118-2.063M27.689 7.65l7.188-2.108m-4.798 1.587 4.852-1.413M30.44 4.1l1.334-.39m-.889-.045 1.333-.39M5.678 6.799l6.168 1.793" fill="#0D0D0D" stroke="#0D0D0D" stroke-width="1.084"/><path d="m3.056 2.129 13.963 4.096-.002.572h.004c.2.06.343.285.359.598a1.096 1.096 0 0 1-.01.226 1.306 1.306 0 0 1-.064.259l.488-.144a.409.409 0 0 1 .132-.068l.004-.001-.001-.17-.003-.009h.003l-.001-.365-.395-.117-.001-.418.394-.115V6.15l13.557-3.978.298.088.001.555.395.117.002.418-.395.116v.322l-1.186.349c.263.171.46.563.46.962V5.1l3.143-.922.9.266.003 1.263-3.88 1.137.427 1.167-4.694 1.377 9.8 2.714-.002 1-2.162.638-.003.64 2.166.636v.002l-.002 1-2.169.64-.002 1.146 2.159.634-.003.999-2.873.849-2.877-.923-.742 2.01-3.648-1.097-.006 2.133-.723.214-.786-.253-.001.604-2.874.848L15.19 21.6l-5.36 1.62-1.339-3.63-5.238 1.536-3.036-8.233 9.281-2.723L4.24 8.626a.285.285 0 0 0 .02.006l.012.001c-.198-.036-.34-.257-.34-.567a1.1 1.1 0 0 1 .133-.513L.42 6.483l.66-1.807 4.208 1.235.337-.1.002-.555-1.229-.36.025.006c.004.002.009.002.012.002-.231-.043-.399-.302-.397-.666 0-.131.023-.26.06-.382L2.34 3.34l.001-1.002.716-.21m1.511 2.86.03-.003H4.6c-.032 0-.061-.004-.09-.006l.052.008h.006M4.4 8.713h.027c.008 0 .016 0 .026-.002.006 0 .014-.004.02-.004l-.073.006m-.008.002.026-.002h.002a.489.489 0 0 1-.077-.006c.016.002.03.006.045.006l.004.002M3.055 1.952l-.045.014-.713.21-.12.036v.127L2.175 3.34v.128l.119.035 1.606.472a1.44 1.44 0 0 0-.026.264c-.001.414.19.736.48.82v.002l1.11.325-.001.298-.174.052-4.162-1.223L.98 4.47l-.053.147-.66 1.808-.063.172.172.05 3.46 1.016c-.044.13-.068.268-.068.403-.001.365.168.647.426.723L8.9 10.17.173 12.73 0 12.78l.064.173L3.1 21.186l.054.145.145-.042 5.093-1.495 1.286 3.486.054.146.146-.044 5.312-1.604 6.971 2.207.047.015.047-.014 2.874-.849.119-.035v-.127l.001-.374.573.184.047.015.047-.014.724-.213.119-.035v-.127l.005-1.908 3.438 1.033.146.044.054-.146.686-1.861 2.729.876.047.015.047-.014 2.874-.849.119-.035v-.127l.003-1v-.127l-.12-.035-2.038-.599.002-.89 2.05-.605.12-.035v-.127l.002-1v-.131l-.12-.035-2.046-.6.002-.385 2.04-.605.12-.035v-.127l.002-1v-.13l-.122-.034-9.226-2.555 4.123-1.21.171-.05-.063-.172-.363-.994L35.15 5.87l.12-.035-.001-.129-.004-1.262v-.127l-.119-.035-.9-.266-.044-.014-.045.013-2.95.866a1.47 1.47 0 0 0-.282-.665l.905-.265.12-.035-.001-.128v-.194l.274-.081.12-.035V3.35l-.002-.418v-.127l-.12-.035-.276-.082V2.26l-.001-.127-.12-.035-.297-.088-.045-.014-.045.013-13.555 3.978-.12.035v.128l.001.194-.275.081-.12.035.001.128v.26a.61.61 0 0 0-.186-.165l.002-.458v-.128l-.12-.035L3.102 1.965l-.046-.013Zm14.479 5.684c.005-.036.008-.072.01-.108l.002-.072c0-.024 0-.047-.002-.07a1.183 1.183 0 0 0-.028-.208l.248.073v.109l-.056.016.057.152v.026a.88.88 0 0 0-.043.027l-.188.055Z" fill="#0D0D0D"/><path d="m6.254 14.676-3 6.45-3.037-8.233.822.243 2.21 5.99 2.183-4.693zm6.578 2.094-3 6.45-3.037-8.234.821.244 2.21 5.99 2.184-4.693zm14.414-1.847 3 6.45 3.037-8.233-.822.244-2.21 5.99-2.183-4.693zm-.635.146-.018 7.341-.723.214.03-7.345zm7.981-1.329 2.162-.638.002-1-2.873.84-.003 1.009-.015 6.336 2.873-.85.003-.999-2.162.639.006-2.417 2.17-.641.001-1-2.168.635zm-11.653 2.532-.015 6.342 2.161-.639-.002 1-2.874.848.018-7.34zM8.09 6.031 7.594 4.97l.994-.293zM4.628 4.894c-.326.096-.59-.197-.588-.655 0-.457.266-.907.592-1.003.326-.096.59.197.588.655 0 .457-.266.906-.592 1.003Zm.997 1.972v-.602l-.427.127v-.453l.429-.127.002-.601.322-.095-.001.601.428-.126-.001.452-.428.127-.002.602zM2.34 3.34l.002-1 .713-.211-.002 1zM1.082 4.676l-.66 1.808 1.327-.392zm3.83 4.522c-.543.115-.98-.235-.979-.782.002-.546.444-1.083.986-1.198.541-.114.98.236.978.782 0 .546-.442 1.083-.985 1.198Zm.006-1.485a.647.647 0 0 0-.494.6c-.001.274.218.449.49.392a.646.646 0 0 0 .494-.6c.001-.274-.218-.45-.49-.392m30.186-2.006L35.1 4.445l-.9-.266.003 1.263zm-3.91 1.052.456 1.252-.919-.271zm.59-2.971v-.555l.395.117-.002-.418-.395-.116-.001-.556-.298-.088.001.556-.395-.117.001.418.395.116.002.556zM29.843 4.85c-.002-.546.437-.897.978-.781.543.115.984.651.986 1.197.002.547-.436.897-.978.782-.543-.115-.984-.651-.986-1.198Zm.98-.288c-.272-.057-.491.118-.49.392 0 .274.222.542.494.6.272.057.491-.118.49-.392a.647.647 0 0 0-.494-.6M27.266 6.03l.422-.907-.848-.25zm.151 1.93c.265.079.48-.16.48-.533-.002-.373-.218-.74-.484-.818-.266-.078-.48.16-.48.533.002.374.218.74.484.818Z" fill="#FFF"/><path d="m25.95 8.86.005-.097v-.012l.004-.088v-.026l.003-.075v-.046l.002-.057v-.206l-.001-.056-.001-.046-.002-.077-.001-.025a4.853 4.853 0 0 0-.004-.089v-.01l-.005-.097v-.004a8.485 8.485 0 0 0-.624-2.745 8.353 8.353 0 0 0-1.738-2.655A8.076 8.076 0 0 0 21.01.658 7.862 7.862 0 0 0 17.852 0a7.862 7.862 0 0 0-3.157.657 8.076 8.076 0 0 0-2.579 1.79 8.337 8.337 0 0 0-1.738 2.656 8.485 8.485 0 0 0-.623 2.745v.004l-.005.097v.012l-.004.088-.001.026-.002.076-.001.046-.001.056v.263l.002.046.002.075v.026l.004.088.001.012.005.097v.003a8.5 8.5 0 0 0 .623 2.745 8.344 8.344 0 0 0 1.738 2.656 8.085 8.085 0 0 0 2.579 1.79c1 .436 2.062.658 3.157.658a7.86 7.86 0 0 0 3.158-.658 8.082 8.082 0 0 0 2.578-1.79 8.347 8.347 0 0 0 1.738-2.656c.36-.875.569-1.796.624-2.745V8.86" fill="#0D0D0D"/><path d="m25.75 8.848.006-.095v-.012l.004-.086V8.63l.003-.074V8.51l.002-.054v-.201l-.001-.055-.001-.045-.002-.075-.001-.024-.004-.087v-.011l-.005-.095V7.86a8.286 8.286 0 0 0-.608-2.678 8.14 8.14 0 0 0-1.695-2.59A7.877 7.877 0 0 0 20.933.846a7.667 7.667 0 0 0-3.08-.64 7.665 7.665 0 0 0-3.08.64 7.877 7.877 0 0 0-2.515 1.747 8.14 8.14 0 0 0-1.695 2.59 8.283 8.283 0 0 0-.608 2.678v.003l-.005.095v.011a2.29 2.29 0 0 0-.004.086v.025c0 .025-.002.05-.003.074V8.2l-.002.055v.1a6.143 6.143 0 0 0 .001.156l.001.044.003.074v.025l.003.087.001.011.005.095v.003a8.29 8.29 0 0 0 .608 2.678 8.14 8.14 0 0 0 1.695 2.59 7.877 7.877 0 0 0 2.515 1.747c.976.425 2.012.64 3.08.64a7.665 7.665 0 0 0 3.08-.64 7.877 7.877 0 0 0 2.515-1.747 8.14 8.14 0 0 0 1.695-2.59c.35-.854.554-1.753.608-2.678v-.002m-7.898-7.065c3.259 0 5.956 2.53 6.335 5.784H20.46l-1.089 1.944-3.05-5.465-1.973 3.521h-2.83c.379-3.253 3.076-5.784 6.335-5.784m0 13.146c-3.26 0-5.955-2.53-6.335-5.784h3.714L16.32 7.2l3.05 5.465 1.973-3.521h2.843c-.378 3.253-3.075 5.784-6.334 5.784" fill="#FFF"/></g></svg>