<svg fill="none" id="rtlhu_ucl1_dark" viewBox="0 0 82 24" xmlns="http://www.w3.org/2000/svg"><g clip-path="url(#cja)" fill="#0D0D0D" opacity=".97"><path clip-rule="evenodd" d="M69.05 0H47.47v12.277h21.58zM55.677 2.822h-1.499v6.632h8.168V8.147h-6.669zM45.316 0h-21.58v12.277h21.58zM29.983 4.13h3.793v5.324h1.498V4.13h3.794V2.822h-9.085zM21.58 0H0v12.277h21.58zm-9.699 2.822h-5.75v6.632h1.498v-2.32h3.006l2.65 2.32h2.165l-2.82-2.406c1.246-.18 1.977-.948 1.977-2.094 0-1.336-.974-2.132-2.726-2.132m1.18 2.15c0 .616-.45.92-1.377.92H7.63v-1.83h4.055c.928 0 1.377.295 1.377.91" fill-rule="evenodd"/><path d="M82 5.354h-3.536v-2.7H76.9v2.7h-3.53v1.583h3.53v2.682h1.564V6.937H82z"/><path d="M9.758 23.905v-6.636h.825v5.878h3.26v.758zm5.117 0v-6.636h.824v6.636zm4.263 0-2.408-6.54v-.095h.853l1.968 5.526h.037l1.94-5.526h.862v.094l-2.418 6.541zm4.282 0v-6.636h4.226v.759h-3.4v2.076h3.11v.758h-3.11v2.285h3.4v.758zm7.225-1.991h.834c.047.853.647 1.308 1.734 1.308.993 0 1.527-.398 1.527-1.137 0-.645-.262-.882-1.18-1.08l-.956-.21c-1.19-.255-1.743-.824-1.743-1.79 0-1.138.853-1.83 2.268-1.83s2.333.787 2.343 1.981h-.835c-.037-.777-.572-1.204-1.508-1.204-.937 0-1.425.36-1.425 1.052 0 .503.366.825 1.125.986l.89.19c1.359.294 1.865.806 1.865 1.905 0 1.166-.928 1.915-2.37 1.915-1.594 0-2.53-.759-2.568-2.085m7.581 1.99v-5.877h-2.034v-.759h4.892v.759H39.05v5.877zm8.92-.095v.095h-.89l-1.724-2.626H42.94v2.626h-.825v-6.636h2.605c1.34 0 2.08.863 2.08 1.99 0 .987-.562 1.67-1.415 1.916zm-4.207-5.782v2.493h1.733c.825 0 1.284-.455 1.284-1.26 0-.806-.46-1.233-1.284-1.233zm5.285 5.877v-6.636h4.226v.759h-3.402v2.076h3.111v.758h-3.11v2.285h3.4v.758zm8.386-6.635 2.418 6.54v.095h-.872l-.61-1.716h-2.885l-.61 1.716H53.2v-.095l2.408-6.54zm-1.677 4.16h2.343l-1.153-3.241h-.037zm5.126 2.475v-6.636h1.059l2.164 3.981h.038l2.211-3.98h.993v6.635H65.7v-5.318h-.037l-2.324 4.18h-.093l-2.324-4.209h-.038v5.347zm11.386 0V18.17h-.038L69.9 19.364h-.094v-.815l1.63-1.28h.806v6.636z" opacity=".99"/></g><defs><clipPath id="cja"><path d="M0 0h82v24H0z" fill="#fff"/></clipPath></defs></svg>