<svg id="rtlhu_rtl_ii" viewBox="0 0 72 24" xmlns="http://www.w3.org/2000/svg"><g fill="none" fill-rule="evenodd"><path d="M47.365 17.146c1.925 0 3.223 1.386 3.223 3.427 0 2.041-1.298 3.427-3.223 3.427-1.925 0-3.224-1.386-3.224-3.427 0-2.05 1.299-3.427 3.224-3.427Zm-24.41.104v3.114l2.608-3.114h1.28v.096l-2.588 3.066 2.693 3.389v.095h-1.3l-2.692-3.437v3.437H21.79V17.25h1.166Zm9.436 0v1.045h-3.347v1.652h3.053v1.043h-3.053v1.861h3.347v1.045h-4.513V17.25h4.513Zm5.85 0v1.045h-1.98v5.6h-1.167v-5.6h-1.991V17.25h5.139Zm5.52 0v1.045H41.78v5.6h-1.166v-5.6h-1.99V17.25h5.138Zm3.604.959c-1.261 0-2.039.892-2.039 2.364 0 1.452.778 2.363 2.04 2.363 1.26 0 2.037-.91 2.037-2.363 0-1.462-.777-2.364-2.038-2.364Zm2.133-3.037v.095l-1.1 1.338h-.881v-.095l.673-1.338h1.308Zm-1.707 0v.095l-1.1 1.338h-.881v-.095l.673-1.338h1.308Z" fill="#FFF"/><path d="M49.498 12.669H72V0H49.498z" fill="#F1D000"/><path d="M56.491 2.912h1.563v5.496h6.953v1.349h-8.516z" fill="#FFF"/><path d="M24.749 12.67h22.502V0H24.749z" fill="#C93026"/><path d="M35.219 4.262h-3.956V2.913h9.474v1.349h-3.956v5.495h-1.562z" fill="#FFF"/><path d="M0 12.669h22.502V0H0z" fill="#AF175D"/><path d="M12.184 6.08c.967 0 1.435-.312 1.435-.948 0-.635-.468-.939-1.435-.939h-4.23v1.888h4.23ZM6.392 2.914h5.997c1.826 0 2.842.82 2.842 2.2 0 1.183-.762 1.975-2.06 2.16l2.939 2.484h-2.257L11.09 7.362H7.955v2.395H6.392V2.913Z" fill="#FFF"/></g></svg>