<svg id="rtlhu_rtl_plus_ghost" viewBox="0 0 72 24" xmlns="http://www.w3.org/2000/svg"><path d="M40.67 17.146c1.924 0 3.223 1.386 3.223 3.427 0 2.04-1.299 3.427-3.223 3.427-1.925 0-3.224-1.386-3.224-3.427 0-2.05 1.299-3.427 3.224-3.427Zm-21.365.104v2.697h3.043V17.25h1.166v6.646h-1.166V20.99h-3.043v2.906h-1.166V17.25h1.166Zm8.932 0 2.361 6.55v.096h-1.26l-.504-1.481h-2.692l-.502 1.48h-1.224v-.094l2.361-6.55h1.46Zm6.107 0c1.328 0 2.181.874 2.181 2.051 0 .978-.53 1.68-1.365 1.965l1.687 2.535v.095H35.53l-1.584-2.488h-1.28v2.488H31.5V17.25h2.844Zm12.082 0 2.02 3.513h.038l2.048-3.513h1.336v6.645h-1.166v-4.812h-.038l-2.162 3.692h-.094l-2.171-3.72h-.038v4.84h-1.166V17.25h1.393Zm-5.756.96c-1.261 0-2.039.892-2.039 2.363 0 1.452.778 2.363 2.039 2.363 1.26 0 2.038-.91 2.038-2.363 0-1.462-.777-2.364-2.038-2.364Zm-13.163.246h-.037l-.977 2.915h1.99l-.976-2.915Zm6.771-.161h-1.612v2.07h1.612c.673 0 1.062-.4 1.062-1.064 0-.617-.398-1.006-1.062-1.006Zm-5.444-3.124v.096l-1.1 1.338h-.88v-.095l.672-1.339h1.308ZM72 0v12.67H49.498V0H72ZM58.054 2.912H56.49v6.845h8.516v-1.35h-6.953V2.913ZM47.25 0v12.67H24.749V0H47.25Zm-6.514 2.913h-9.474v1.349h3.956v5.495h1.562V4.262h3.956v-1.35ZM22.502 0v12.67H0V0h22.502ZM12.389 2.913H6.392v6.844h1.563V7.362h3.135l2.763 2.395h2.257l-2.94-2.484c1.299-.185 2.06-.977 2.06-2.16 0-1.38-1.015-2.2-2.841-2.2Zm-.205 1.28c.967 0 1.435.304 1.435.939 0 .636-.468.949-1.435.949h-4.23V4.193Z" fill="#FFF" fill-rule="evenodd"/></svg>