<svg fill="none" id="rtlhu_live5_dark" viewBox="0 0 82 24" xmlns="http://www.w3.org/2000/svg"><g clip-path="url(#aqa)" fill="#0D0D0D" opacity=".97"><path clip-rule="evenodd" d="M47.47 0h21.581v12.276h-21.58zm8.206 2.822h-1.499v6.632h8.168V8.147h-6.669zM23.736 0h21.58v12.276h-21.58zm6.247 4.13h3.793v5.324h1.498V4.13h3.794V2.822h-9.085zM0 0h21.58v12.276H0zm11.881 2.822h-5.75v6.632h1.498V7.133h3.006l2.651 2.321h2.164l-2.82-2.406c1.246-.18 1.977-.948 1.977-2.094 0-1.336-.974-2.132-2.726-2.132m1.18 2.15c0 .616-.45.92-1.376.92H7.629v-1.83h4.056c.927 0 1.377.295 1.377.91" fill-rule="evenodd"/><path d="M82 5.354h-3.536V2.653H76.9v2.701h-3.53v1.583h3.53v2.682h1.564V6.937H82zM8.709 23.904V17.27h.825v5.877h3.26v.758zm5.116 0V17.27h.825v6.635zm4.264.001-2.408-6.541v-.095h.853l1.967 5.527h.038l1.94-5.527h.862v.095l-2.418 6.54zm4.282-.001V17.27h4.226v.758h-3.402v2.076h3.111v.759h-3.11v2.284h3.401v.758zm7.225-1.99h.834c.047.853.647 1.308 1.734 1.308.993 0 1.527-.398 1.527-1.138 0-.644-.262-.881-1.18-1.08l-.956-.209c-1.19-.255-1.743-.824-1.743-1.79 0-1.139.853-1.83 2.268-1.83s2.333.787 2.342 1.98h-.834c-.037-.776-.572-1.203-1.508-1.203-.937 0-1.425.36-1.425 1.052 0 .503.366.825 1.125.986l.89.19c1.359.293 1.865.806 1.865 1.905 0 1.166-.928 1.915-2.37 1.915-1.594 0-2.53-.759-2.568-2.086m7.58 1.99v-5.877h-2.033v-.758h4.89v.758h-2.032v5.877zm8.92-.094v.094h-.89l-1.724-2.625H41.89v2.625h-.825V17.27h2.605c1.34 0 2.08.862 2.08 1.99 0 .986-.562 1.669-1.414 1.915zm-4.207-5.783v2.493h1.733c.825 0 1.284-.455 1.284-1.26 0-.806-.46-1.232-1.284-1.232zm5.285 5.877V17.27h4.226v.758H48v2.076h3.11v.759H48v2.284h3.4v.758zm8.387-6.634 2.418 6.54v.095h-.872l-.61-1.716h-2.885l-.61 1.716h-.852v-.095l2.408-6.54zm-1.677 4.16h2.342l-1.152-3.241h-.038zm5.125 2.474V17.27h1.059l2.165 3.981h.037l2.211-3.981h.993v6.635h-.824v-5.318h-.038l-2.324 4.18h-.093l-2.324-4.208h-.038v5.346zm9.933-1.867h.797c0 .683.496 1.242 1.368 1.242.993 0 1.377-.654 1.377-1.517s-.422-1.479-1.368-1.479c-.628 0-.984.304-1.237.655h-.825l.253-3.669h3.673V18h-2.98l-.15 2.114h.038c.243-.265.656-.54 1.35-.54 1.32 0 2.052.929 2.052 2.162 0 1.336-.712 2.265-2.183 2.265-1.34 0-2.165-.853-2.165-1.962"/></g><defs><clipPath id="aqa"><path d="M0 0h82v24H0z" fill="#fff"/></clipPath></defs></svg>