<svg id="rtlhu_rtl_vv24" viewBox="0 0 37 24" xmlns="http://www.w3.org/2000/svg"><g fill="none"><path d="M34.25 4.189 17.916 8.976l.004 1.266 16.333-4.787z" fill="#152C39"/><path d="M34.253 5.455 17.92 10.242l.902.266L35.156 5.72z" fill="#0981B0"/><path d="m35.156 5.721-.003-1.265-.903-.267.003 1.266z" fill="#F26430"/><path d="M30.767 7.759 17.455 11.66l.923.272L31.69 8.031z" fill="#0981B0"/><path d="M31.231 6.776 17.92 10.678l-.464.983L30.767 7.76z" fill="#152C39"/><path d="m31.231 6.776.459 1.255-.923-.272z" fill="#FFF"/><path d="M31.823 3.241 18.218 7.23l.396.117L32.22 3.359z" fill="#0981B0"/><path d="M31.522 2.177 17.916 6.165l.002.557 13.605-3.988zm.002.976L17.92 7.141l.001.556L31.526 3.71z" fill="#152C39"/><path d="M31.526 3.71 17.92 7.697l.299.088 13.605-3.987zm-.398-.674L17.522 7.023l.397.118 13.605-3.988z" fill="#0981B0"/><path d="M31.126 2.617 17.521 6.605l.001.418 13.606-3.987z" fill="#152C39"/><path d="M31.824 3.798V3.24l.396.118-.001-.42-.397-.116-.001-.557-.3-.089.002.557-.397-.117.002.419.396.117.002.557z" fill="#F26430"/><path d="M30.248 4.072 17.916 7.686c-.206.06-.355.294-.37.617a1.16 1.16 0 0 0 .026.329l12.332-3.614a1.1 1.1 0 0 1-.027-.329c.017-.323.165-.556.371-.617Z" fill="#152C39"/><path d="M30.698 5.797a.382.382 0 0 1-.132.006.453.453 0 0 1-.078-.016h-.003a.553.553 0 0 1-.115-.05.815.815 0 0 1-.235-.21 1.08 1.08 0 0 1-.14-.234 1.38 1.38 0 0 1-.09-.276L17.571 8.631a1.237 1.237 0 0 0 .091.276 1.375 1.375 0 0 0 .14.233.81.81 0 0 0 .235.21.556.556 0 0 0 .115.05h.003a.499.499 0 0 0 .148.02.374.374 0 0 0 .087-.016L30.723 5.79a.185.185 0 0 1-.025.007Z" fill="#0981B0"/><path d="M29.876 4.862c-.002-.548.455-.899 1.019-.783.565.115 1.024.653 1.026 1.2.001.548-.454.9-1.019.784-.565-.116-1.024-.653-1.026-1.2Zm1.02-.288c-.282-.058-.511.118-.51.392 0 .275.231.544.514.602.283.057.512-.119.51-.393-.001-.274-.23-.544-.514-.601" fill="#FFF"/><path d="M30.485 4.503c-.169-.05-.305.101-.305.338 0 .237.138.47.307.519.17.05.306-.102.305-.338-.001-.237-.138-.47-.307-.52" fill="#152C39"/><path d="m26.862 4.885-8.946 2.621.429 1.16 8.945-2.621z" fill="#0981B0"/><path d="m27.29 6.045.424-.91-.852-.25z" fill="#F26430"/><path d="M27.608 7.988a.348.348 0 0 1-.104.005.358.358 0 0 1-.063-.013h-.002a.43.43 0 0 1-.09-.04.643.643 0 0 1-.186-.166.849.849 0 0 1-.111-.185.986.986 0 0 1-.054-.146l-9.335 2.736a.994.994 0 0 0 .164.331c.055.07.118.127.186.166.03.017.06.03.091.04h.002a.42.42 0 0 0 .117.015.36.36 0 0 0 .05-.007l.02-.005 9.335-2.736-.02.005Z" fill="#0981B0"/><path d="M27.252 6.623 17.916 9.36c-.163.048-.28.232-.293.488a1.406 1.406 0 0 0 0 .102 1.065 1.065 0 0 0 .04.231l9.335-2.736a1.544 1.544 0 0 1-.031-.148 1.065 1.065 0 0 1-.01-.136l.001-.049c.013-.256.13-.44.294-.488Z" fill="#152C39"/><path d="M27.441 7.98c.267.079.482-.16.481-.535 0-.373-.218-.74-.484-.82-.267-.078-.483.161-.482.535.002.375.219.741.485.82Z" fill="#FFF"/><path d="M2.993 2.134 17.006 6.24l-.003 1.004L2.991 3.137z" fill="#152C39"/><path d="m2.99 3.137 14.013 4.107-.715.211L2.275 3.348z" fill="#0981B0"/><path d="m2.275 3.348.002-1.003.716-.211-.002 1.003z" fill="#FFF"/><path d="M5.115 4.248a1.18 1.18 0 0 1-.066.18 1.217 1.217 0 0 1-.137.226.79.79 0 0 1-.228.203.551.551 0 0 1-.111.049H4.57a.471.471 0 0 1-.144.018.432.432 0 0 1-.06-.008L4.34 4.91l12.205 3.573.024.006a.386.386 0 0 0 .204-.01h.003a.551.551 0 0 0 .112-.048.79.79 0 0 0 .228-.204 1.132 1.132 0 0 0 .173-.318 1.5 1.5 0 0 0 .03-.088L5.115 4.248Z" fill="#0981B0"/><path d="M17.37 7.413c-.017-.314-.16-.54-.361-.599L4.804 3.241c.201.059.345.285.36.599a1.097 1.097 0 0 1-.01.226 1.308 1.308 0 0 1-.038.182L17.321 7.82a1.23 1.23 0 0 0 .05-.348l-.002-.06Z" fill="#152C39"/><path d="M4.571 4.906c-.327.096-.591-.197-.59-.656.001-.459.267-.91.594-1.006.327-.096.592.198.59.656 0 .459-.267.91-.594 1.006Z" fill="#F26430"/><path d="m1.682 6.107 15.99 4.687-1.332.394L.35 6.5z" fill="#0981B0"/><path d="m1.013 4.688 15.99 4.687.67 1.42-15.99-4.688z" fill="#152C39"/><path d="M1.013 4.688.35 6.5l1.332-.393z" fill="#F26430"/><path d="M5.573 6.28 16.67 9.535l-.43.127L5.143 6.407z" fill="#0981B0"/><path d="m5.9 5.127 11.096 3.255-.001.603L5.898 5.73zm-.003 1.057L16.993 9.44v.603L5.894 6.787z" fill="#152C39"/><path d="m5.895 6.787 11.097 3.255-.324.096L5.572 6.883zm.431-.73 11.098 3.255-.43.127L5.896 6.184z" fill="#0981B0"/><path d="m6.327 5.603 11.098 3.255-.001.454L6.326 6.057z" fill="#152C39"/><path d="M5.572 6.883V6.28l-.429.127.001-.454.43-.127.002-.604.324-.095-.002.603.43-.127-.002.454-.43.127v.603z" fill="#FFF"/><path d="m8.546 4.688 8.46 2.48-.502 1.357-8.46-2.479z" fill="#0981B0"/><path d="m8.045 6.046-.496-1.064.997-.294z" fill="#FFF"/><path d="M17.313 11.38c-.013-.267-.136-.46-.307-.51L4.576 7.228c.17.05.293.243.306.51a.796.796 0 0 1 0 .106 1.124 1.124 0 0 1-.022.166l12.43 3.643a.952.952 0 0 0 .024-.22l-.001-.051Z" fill="#152C39"/><path d="M4.86 8.009a1.17 1.17 0 0 1-.076.229.956.956 0 0 1-.116.193.668.668 0 0 1-.194.173.486.486 0 0 1-.095.041h-.003a.324.324 0 0 1-.174.008.046.046 0 0 1-.02-.005l12.43 3.644a.286.286 0 0 0 .13.01.34.34 0 0 0 .065-.013h.002a.454.454 0 0 0 .095-.042.67.67 0 0 0 .194-.173.927.927 0 0 0 .148-.27 1.713 1.713 0 0 0 .044-.152L4.86 8.01Z" fill="#0981B0"/><path d="M4.893 9.22c-.565.116-1.021-.235-1.019-.783.002-.547.462-1.086 1.026-1.2.564-.116 1.02.235 1.019.783-.002.547-.46 1.086-1.026 1.2Zm.006-1.488c-.284.058-.513.327-.514.601-.001.275.227.45.51.393.283-.058.513-.327.514-.601.001-.275-.227-.451-.51-.393" fill="#F26430"/><path d="M4.38 7.583c-.14.042-.253.234-.254.43 0 .195.112.32.252.28.14-.042.253-.234.254-.43 0-.195-.113-.321-.252-.28" fill="#152C39"/><path d="m34.629 19.124-5.563-1.63v-1.276l7.733 2.266zm.005-3.429-5.562-1.63v-1.276l7.732 2.266z" fill="#0981B0"/><path d="m33.912 20.337-14.662-4.7 5.748-5.278 8.932 2.618z" fill="#152C39"/><path d="m34.645 12.767-.016 6.357 2.17-.64-.003 1.002-2.884.85.018-7.359z" fill="#FFF"/><path d="m33.93 12.977-13.674-4.02 3.128-.54 13.43 3.716zm-12.159-6.39L.145 12.925l.824.244 20.802-6.097z" fill="#0981B0"/><path d="M21.771 7.072.97 13.17l2.218 6.005 18.584-5.447z" fill="#152C39"/><path d="m6.203 14.712-3.01 6.466 18.578-5.445v-5.584z" fill="#152C39"/><path d="M21.771 9.665 5.38 14.469l.824.243 15.568-4.563z" fill="#0981B0"/><path d="m6.203 14.712-3.01 6.466-3.048-8.253.824.244 2.218 6.005 2.192-4.705z" fill="#FFF"/><path d="m23.936 9.634-17.19 5.39.824.243 16.366-5.147z" fill="#0981B0"/><path d="M22.809 10.663 7.57 15.267l2.218 6.005 13.02-3.953z" fill="#152C39"/><path d="m12.804 16.81-3.011 6.467 16.145-4.87v-5.583z" fill="#152C39"/><path d="m12.804 16.81-3.011 6.467-3.047-8.254.824.244 2.218 6.005 2.191-4.704z" fill="#FFF"/><path d="m23.804 12.925-11.825 3.643.825.243 11.668-3.549zm-12.102-6.09 21.626 6.338-.824.244-20.802-6.096z" fill="#0981B0"/><path d="m11.702 7.32 20.802 6.097-2.218 6.005-18.584-5.446z" fill="#152C39"/><path d="m27.27 14.96 3.01 6.466-15.501-4.654v-5.584z" fill="#152C39"/><path d="m11.702 9.913 16.392 4.805-.824.242-15.568-4.562z" fill="#0981B0"/><path d="m27.27 14.96 3.01 6.466 3.048-8.253-.824.244-2.218 6.005-2.192-4.704z" fill="#FFF"/><path d="m25.889 22.68-8.136-2.615v-7.372l8.165 2.623z" fill="#152C39"/><path d="m25.918 15.316-3.403-.997v-.42l4.118 1.207z" fill="#0981B0"/><path d="m26.633 15.106-.018 7.36-.726.214.03-7.364zm10.181-2.973-.002 1.002-2.884.85.002-1.01zm0 2.924-.002 1.001-2.884.852.002-1.011z" fill="#FFF"/><path d="m22.932 22.67-5.563-1.63v-1.276l7.732 2.266z" fill="#0981B0"/><path d="m22.215 23.882-8.147-2.577.953-6.888 7.212 2.106z" fill="#152C39"/><path d="m22.233 16.523-4.883-1.431.005-.419 5.592 1.64z" fill="#0981B0"/><path d="m22.947 16.312-.015 6.358 2.17-.64-.003 1.002-2.884.85.018-7.359z" fill="#FFF"/><path d="M2.993 2.134 17.006 6.24l-.002.572.004.002c.201.058.345.285.36.598a1.097 1.097 0 0 1-.01.227 1.308 1.308 0 0 1-.063.26l.49-.145a.41.41 0 0 1 .131-.068l.004-.001v-.17l-.004-.01h.004l-.001-.365-.397-.118-.001-.418.396-.116v-.324l13.605-3.988.299.089.001.556.397.117.001.42-.396.115v.324l-1.19.35c.264.171.461.564.462.964v.001l3.154-.924.902.267.004 1.266-3.893 1.14.427 1.17-4.71 1.38 9.835 2.721-.002 1.002-2.17.64-.003.646 2.174.636-.002 1.001-2.177.643-.002 1.148 2.166.635-.002 1.002-2.884.85-2.887-.925-.745 2.015-3.66-1.099-.006 2.139-.726.214-.789-.254-.001.606-2.884.85-7.044-2.228-5.379 1.622-1.343-3.64-5.257 1.541-3.048-8.253 9.315-2.73-5.277-1.547a.286.286 0 0 0 .02.006c.004 0 .008 0 .012.002-.199-.037-.341-.258-.34-.569 0-.183.05-.364.132-.514L.35 6.5l.663-1.812 4.222 1.237.34-.1V5.27l-1.232-.36a.396.396 0 0 0 .024.006l.013.001c-.233-.043-.4-.303-.4-.668.001-.13.024-.26.062-.382l-1.768-.518.003-1.004.717-.21M4.514 5l.031-.002h.002c-.033 0-.063-.004-.094-.006L4.508 5h.006M4.34 8.736l.026-.002h.002a.528.528 0 0 1-.08-.006c.017.002.031.006.048.006l.004.002m-1.346-6.72-.03.01-.717.21-.079.023v.085l-.002 1.004v.086l.08.023 1.662.487a1.342 1.342 0 0 0-.036.305c0 .39.175.69.442.768l1.153.338-.001.385-.229.067-4.193-1.229-.097-.028-.036.097L.248 6.46l-.042.115.115.033 3.531 1.035a1.22 1.22 0 0 0-.087.442c0 .34.154.602.389.67v.001l4.905 1.438-8.943 2.62L0 12.85l.042.115 3.048 8.254.036.097.097-.028 5.16-1.513 1.308 3.542.036.098.098-.03 5.347-1.612 7.012 2.218.032.01.031-.01 2.884-.85.08-.023v-.537l.646.208.032.01.032-.01.726-.213.079-.023v-.085l.005-1.988 3.52 1.057.098.03.036-.098.707-1.916 2.789.894.031.01.031-.009 2.884-.85.08-.024v-.085l.002-1.001V18.4l-.08-.023-2.087-.611.002-.978 2.098-.618.079-.024v-.085l.002-1.001v-.086l-.08-.023-2.094-.612.001-.476 2.09-.617.08-.024v-.084l.002-1.002v-.087l-.081-.023-9.45-2.618 4.33-1.269.114-.033-.041-.115-.385-1.054 3.778-1.107.08-.023v-.086l-.003-1.266V4.37l-.08-.023-.902-.267-.03-.009-.03.01-3.022.885a1.386 1.386 0 0 0-.335-.768l.991-.29.08-.023v-.323l.316-.092.08-.024v-.589l-.08-.023-.317-.093-.001-.472v-.085l-.08-.023-.298-.088-.03-.01-.03.01L17.89 6.06l-.08.023v.324l-.316.092-.08.024v.56a.62.62 0 0 0-.297-.345l.001-.494v-.086l-.08-.023L3.025 2.028l-.032-.012Zm14.461 5.718a1.955 1.955 0 0 0 .025-.19 1.47 1.47 0 0 0 0-.136 1.085 1.085 0 0 0-.054-.295l.067.02.318.093v.194l-.038.012.038.105v.07a.56.56 0 0 0-.074.045l-.282.082Z" fill="#000"/><path d="m25.969 8.882.005-.097v-.012l.004-.089V8.66l.003-.076.001-.046.001-.057v-.263l-.002-.046-.002-.077V8.07a4.86 4.86 0 0 0-.005-.089V7.97l-.005-.098v-.003a8.499 8.499 0 0 0-.626-2.752A8.373 8.373 0 0 0 23.6 2.454 8.105 8.105 0 0 0 21.012.659 7.897 7.897 0 0 0 17.842 0a7.897 7.897 0 0 0-3.168.659 8.105 8.105 0 0 0-2.588 1.795 8.357 8.357 0 0 0-1.744 2.662 8.499 8.499 0 0 0-.626 2.752v.003l-.004.098-.001.012-.004.088v.026l-.003.076v.046l-.002.056v.207l.001.057.001.046.003.076v.025l.004.089v.012l.005.097v.003a8.5 8.5 0 0 0 .626 2.752c.41.997.997 1.893 1.744 2.662a8.114 8.114 0 0 0 2.588 1.795 7.893 7.893 0 0 0 3.169.659 7.895 7.895 0 0 0 3.169-.659 8.111 8.111 0 0 0 2.587-1.795 8.366 8.366 0 0 0 1.744-2.662 8.52 8.52 0 0 0 .626-2.752v-.003" fill="#152C39"/><path d="M25.77 8.87c0-.032.003-.064.004-.095v-.012l.005-.087v-.025l.002-.074.001-.045.002-.054v-.202l-.002-.055v-.045l-.003-.075v-.024l-.004-.087v-.012l-.006-.094V7.88a8.299 8.299 0 0 0-.61-2.684 8.16 8.16 0 0 0-1.701-2.597A7.905 7.905 0 0 0 20.934.85a7.702 7.702 0 0 0-3.09-.643 7.7 7.7 0 0 0-3.092.642A7.918 7.918 0 0 0 12.229 2.6a8.16 8.16 0 0 0-1.702 2.597 8.296 8.296 0 0 0-.61 2.684v.004l-.005.094v.012a2.293 2.293 0 0 0-.004.086v.025l-.002.074-.001.046-.001.054-.001.101a6.151 6.151 0 0 0 .002.156v.045l.003.074v.025l.004.086v.012l.005.095v.003c.054.928.258 1.828.61 2.685a8.16 8.16 0 0 0 1.702 2.596 7.905 7.905 0 0 0 2.523 1.751 7.7 7.7 0 0 0 3.091.642 7.7 7.7 0 0 0 3.091-.642c.946-.412 1.795-1 2.524-1.75a8.16 8.16 0 0 0 1.701-2.597 8.31 8.31 0 0 0 .61-2.685V8.87m-7.926-7.083c3.271 0 5.977 2.537 6.358 5.8H20.46l-1.093 1.947-3.06-5.477-1.98 3.53h-2.841c.38-3.263 3.087-5.8 6.357-5.8m0 13.179c-3.27 0-5.976-2.537-6.357-5.799h3.727l1.093-1.948 3.06 5.478 1.98-3.53H24.2c-.38 3.262-3.086 5.799-6.357 5.799" fill="#F26430"/></g></svg>