<svg id="rtlhu_rtl_plus" viewBox="0 0 72 24" xmlns="http://www.w3.org/2000/svg"><g fill="none" fill-rule="evenodd"><path d="M40.67 17.146c1.924 0 3.223 1.386 3.223 3.427 0 2.04-1.299 3.427-3.223 3.427-1.925 0-3.224-1.386-3.224-3.427 0-2.05 1.299-3.427 3.224-3.427Zm-21.365.104v2.697h3.043V17.25h1.166v6.646h-1.166V20.99h-3.043v2.906h-1.166V17.25h1.166Zm8.932 0 2.361 6.55v.096h-1.26l-.504-1.481h-2.692l-.502 1.48h-1.224v-.094l2.361-6.55h1.46Zm6.107 0c1.328 0 2.181.874 2.181 2.051 0 .978-.53 1.68-1.365 1.965l1.687 2.535v.095H35.53l-1.584-2.488h-1.28v2.488H31.5V17.25h2.844Zm12.082 0 2.02 3.513h.038l2.048-3.513h1.336v6.645h-1.166v-4.812h-.038l-2.162 3.692h-.094l-2.171-3.72h-.038v4.84h-1.166V17.25h1.393Zm-5.756.96c-1.261 0-2.039.892-2.039 2.363 0 1.452.778 2.363 2.039 2.363 1.26 0 2.038-.91 2.038-2.363 0-1.462-.777-2.364-2.038-2.364Zm-13.163.246h-.037l-.977 2.915h1.99l-.976-2.915Zm6.771-.161h-1.612v2.07h1.612c.673 0 1.062-.4 1.062-1.064 0-.617-.398-1.006-1.062-1.006Zm-5.444-3.124v.096l-1.1 1.338h-.88v-.095l.672-1.339h1.308Z" fill="#FFF"/><path d="M49.498 12.669H72V0H49.498z" fill="#00B300"/><path d="M56.491 2.912h1.563v5.496h6.953v1.349h-8.516z" fill="#FFF"/><path d="M24.749 12.67h22.502V0H24.749z" fill="#00ACF3"/><path d="M35.219 4.262h-3.956V2.913h9.474v1.349h-3.956v5.495h-1.562z" fill="#FFF"/><path d="M0 12.669h22.502V0H0z" fill="#0032F7"/><path d="M12.184 6.08c.967 0 1.435-.312 1.435-.948 0-.635-.468-.939-1.435-.939h-4.23v1.888h4.23ZM6.392 2.914h5.997c1.826 0 2.842.82 2.842 2.2 0 1.183-.762 1.975-2.06 2.16l2.939 2.484h-2.257L11.09 7.362H7.955v2.395H6.392V2.913Z" fill="#FFF"/></g></svg>