<svg fill="none" id="rtlhu_live4" viewBox="0 0 83 24" xmlns="http://www.w3.org/2000/svg"><g clip-path="url(#ama)" opacity=".97"><path d="M69.655 0h-21.77v12.277h21.77z" fill="#9629BC"/><path d="M54.65 2.822h1.513v5.325h6.727v1.307h-8.24z" fill="#fff"/><path d="M45.712 0h-21.77v12.277h21.77z" fill="#0CAAED"/><path d="M34.071 4.13h-3.826V2.822h9.165V4.13h-3.827v5.324H34.07z" fill="#fff"/><path d="M21.769 0H0v12.277h21.769z" fill="#0C39ED"/><path d="M6.184 2.822h5.801c1.767 0 2.75.796 2.75 2.132 0 1.146-.738 1.914-1.994 2.094l2.844 2.406h-2.183l-2.674-2.32H7.695v2.32H6.184zm5.603 3.07c.935 0 1.389-.304 1.389-.92 0-.615-.454-.91-1.39-.91h-4.09v1.83zm70.93-.538H79.15v-2.7h-1.578v2.7H74.01v1.583h3.562v2.682h1.578V6.937h3.566zM8.743 23.905v-6.636h.832v5.878h3.289v.758zm5.161 0v-6.636h.832v6.636zm4.301 0-2.43-6.54v-.095h.86l1.986 5.526h.038l1.956-5.526h.87v.094l-2.439 6.541zm4.319 0v-6.636h4.263v.759h-3.431v2.076h3.138v.758h-3.138v2.285h3.431v.758zm7.288-1.991h.841c.048.853.653 1.308 1.749 1.308 1.002 0 1.54-.398 1.54-1.137 0-.645-.264-.882-1.19-1.08l-.964-.209c-1.2-.256-1.758-.825-1.758-1.791 0-1.138.86-1.83 2.287-1.83s2.354.787 2.363 1.981h-.841c-.038-.777-.577-1.204-1.522-1.204s-1.437.36-1.437 1.052c0 .503.369.825 1.135.986l.898.19c1.37.294 1.88.806 1.88 1.905 0 1.166-.935 1.915-2.39 1.915-1.607 0-2.553-.758-2.59-2.086zm7.648 1.991v-5.877h-2.052v-.759h4.934v.759h-2.05v5.877zm8.998-.095v.095h-.898l-1.74-2.626h-1.606v2.626h-.832v-6.636h2.627c1.352 0 2.099.863 2.099 1.99 0 .987-.567 1.67-1.427 1.916zm-4.244-5.782v2.493h1.748c.832 0 1.295-.455 1.295-1.26 0-.806-.463-1.233-1.295-1.233zm5.331 5.877v-6.636h4.263v.759h-3.432v2.076h3.138v.758h-3.138v2.285h3.432v.758zm8.46-6.635 2.438 6.54v.095h-.879l-.615-1.716h-2.91l-.615 1.716h-.86v-.095l2.429-6.54zm-1.692 4.161h2.363l-1.163-3.242h-.037zm5.17 2.474v-6.636h1.069l2.183 3.982h.038l2.23-3.982h1.002v6.636h-.832v-5.318h-.037l-2.344 4.18h-.095l-2.344-4.208h-.038v5.346zm12.799 0v-1.403h-3.016v-.834l2.676-4.399h1.144v4.512h.888v.72h-.889v1.404zm-2.24-2.123h2.24v-3.706h-.038l-2.203 3.668z" fill="#fff"/></g><defs><clipPath id="ama"><path d="M0 0h83v24H0z" fill="#fff"/></clipPath></defs></svg>