<svg id="rtlhu_rtl_most" viewBox="0 0 107 24" xmlns="http://www.w3.org/2000/svg"><g fill="none" fill-rule="evenodd"><path d="M0 0h107v24H0z"/><path d="M61.195 4.807h25.624v14.404H61.195z" fill="#9629BC" fill-rule="nonzero"/><path d="M33.002 4.807h25.624v14.404H33.002z" fill="#0CAAED" fill-rule="nonzero"/><path d="M4.81 4.807h25.624v14.404H4.81z" fill="#0C39ED" fill-rule="nonzero"/><path d="M102.208 11.078h-4.214V7.916H96.15v3.162h-4.195v1.862h4.195v3.144h1.844V12.94h4.214v-1.862ZM69.15 8.114h1.773v6.253h7.921v1.519h-9.693V8.114ZM44.92 9.651h-4.503V8.114h10.795v1.537h-4.52v6.235h-1.773V9.65ZM12.08 8.114h6.836c2.079 0 3.236.94 3.236 2.494 0 1.338-.868 2.242-2.35 2.458l3.344 2.838h-2.567l-3.147-2.73H13.87v2.731h-1.772V8.114h-.018Zm6.6 3.597c1.103-.001 1.628-.362 1.628-1.084 0-.723-.525-1.067-1.628-1.067h-4.81v2.15h4.81Z" fill="#FFF" fill-rule="nonzero"/></g></svg>