<svg id="rtlhu_rtl_ii_dark" viewBox="0 0 72 24" xmlns="http://www.w3.org/2000/svg"><path d="M47.365 17.146c1.925 0 3.223 1.386 3.223 3.427 0 2.041-1.298 3.427-3.223 3.427-1.925 0-3.224-1.386-3.224-3.427 0-2.05 1.299-3.427 3.224-3.427Zm-24.41.104v3.114l2.608-3.114h1.28v.096l-2.588 3.066 2.693 3.389v.095h-1.3l-2.692-3.437v3.437H21.79V17.25h1.166Zm9.436 0v1.045h-3.347v1.652h3.053v1.043h-3.053v1.861h3.347v1.045h-4.513V17.25h4.513Zm5.85 0v1.045h-1.98v5.6h-1.167v-5.6h-1.991V17.25h5.139Zm5.52 0v1.045H41.78v5.6h-1.166v-5.6h-1.99V17.25h5.138Zm3.604.959c-1.261 0-2.039.892-2.039 2.364 0 1.452.778 2.363 2.04 2.363 1.26 0 2.037-.91 2.037-2.363 0-1.462-.777-2.364-2.038-2.364Zm2.133-3.037v.095l-1.1 1.338h-.881v-.095l.673-1.338h1.308Zm-1.707 0v.095l-1.1 1.338h-.881v-.095l.673-1.338h1.308ZM72 0v12.67H49.498V0H72ZM58.054 2.912H56.49v6.845h8.516v-1.35h-6.953V2.913ZM47.25 0v12.67H24.749V0H47.25Zm-6.514 2.913h-9.474v1.349h3.956v5.495h1.562V4.262h3.956v-1.35ZM22.502 0v12.67H0V0h22.502ZM12.389 2.913H6.392v6.844h1.563V7.362h3.135l2.763 2.395h2.257l-2.94-2.484c1.299-.185 2.06-.977 2.06-2.16 0-1.38-1.015-2.2-2.841-2.2Zm-.205 1.28c.967 0 1.435.304 1.435.939 0 .636-.468.949-1.435.949h-4.23V4.193Z" fill-rule="evenodd"/></svg>