<svg id="rtlhu_rtl_gold_dark" viewBox="0 0 72 24" xmlns="http://www.w3.org/2000/svg"><path d="M26.478 17.146c1.555 0 2.712.94 2.854 2.326h-1.185c-.114-.778-.758-1.263-1.669-1.263-1.232 0-1.972.892-1.972 2.373 0 1.472.74 2.355 1.981 2.355 1.025 0 1.67-.618 1.755-1.548h-1.527v-1.044h2.702v.665c0 1.794-1.175 2.99-2.93 2.99-1.905 0-3.166-1.329-3.166-3.418 0-2.097 1.251-3.436 3.157-3.436Zm6.923 0c1.925 0 3.223 1.386 3.223 3.427 0 2.04-1.298 3.427-3.223 3.427-1.925 0-3.224-1.386-3.224-3.427 0-2.05 1.3-3.427 3.224-3.427Zm5.529.104v5.601h3.157v1.044h-4.323V17.25h1.166Zm6.552 0c1.925 0 3.196 1.31 3.196 3.323 0 1.984-1.29 3.322-3.196 3.322h-2.445V17.25h2.445Zm-12.08.96c-1.262 0-2.04.892-2.04 2.363 0 1.452.778 2.363 2.04 2.363 1.26 0 2.037-.91 2.037-2.363 0-1.462-.777-2.364-2.038-2.364Zm11.995.085h-1.195v4.556h1.195c1.337 0 2.095-.835 2.095-2.278 0-1.452-.758-2.278-2.095-2.278ZM72 0v12.67H49.498V0H72ZM58.054 2.912H56.49v6.845h8.516v-1.35h-6.953V2.913ZM47.25 0v12.67H24.749V0H47.25Zm-6.514 2.912h-9.474v1.35h3.956v5.495h1.562V4.262h3.956v-1.35ZM22.502 0v12.67H0V0h22.502ZM12.389 2.912H6.392v6.845h1.563V7.362h3.135l2.763 2.395h2.257l-2.94-2.484c1.299-.186 2.06-.978 2.06-2.16 0-1.38-1.015-2.2-2.841-2.2Zm-.205 1.281c.967 0 1.435.303 1.435.939 0 .636-.468.948-1.435.948h-4.23V4.193Z" fill-rule="evenodd"/></svg>