<svg fill="none" id="rtlhu_live3_ghost" viewBox="0 0 82 24" xmlns="http://www.w3.org/2000/svg"><g clip-path="url(#ala)" fill="#fff" opacity=".97"><path clip-rule="evenodd" d="M47.47 0h21.58v12.276H47.47zm8.206 2.822h-1.499v6.632h8.168V8.147h-6.669zM23.736 0h21.58v12.276h-21.58zm6.247 4.13h3.793v5.324h1.499V4.13h3.793V2.822h-9.085zM0 0h21.58v12.276H0zm11.881 2.822h-5.75v6.632h1.498V7.133h3.006l2.65 2.321h2.165l-2.82-2.406c1.246-.18 1.977-.948 1.977-2.094 0-1.336-.974-2.132-2.726-2.132m1.18 2.15c0 .616-.45.92-1.377.92H7.63v-1.83h4.055c.928 0 1.377.295 1.377.91" fill-rule="evenodd"/><path d="M82 5.354h-3.536V2.653H76.9v2.701h-3.53v1.583h3.53v2.682h1.564V6.937H82zM8.808 23.905v-6.636h.825v5.877h3.26v.758zm5.116 0v-6.636h.825v6.636zm4.263 0-2.408-6.541v-.095h.853l1.968 5.527h.037l1.94-5.527h.862v.095l-2.417 6.54zm4.283 0v-6.636h4.226v.758h-3.402v2.076h3.111v.759h-3.11v2.284h3.401v.758zm7.224-1.991h.835c.047.853.646 1.308 1.733 1.308.993 0 1.527-.398 1.527-1.138 0-.644-.262-.882-1.18-1.08l-.956-.209c-1.19-.256-1.743-.824-1.743-1.791 0-1.138.853-1.83 2.268-1.83s2.333.787 2.343 1.982h-.835c-.037-.777-.571-1.204-1.508-1.204s-1.425.36-1.425 1.052c0 .503.366.825 1.125.986l.89.19c1.359.293 1.865.805 1.865 1.905 0 1.166-.928 1.915-2.37 1.915-1.593 0-2.53-.759-2.568-2.086m7.58 1.991v-5.878h-2.033v-.758h4.891v.758H38.1v5.877zm8.921-.095v.095h-.89l-1.725-2.626h-1.593v2.625h-.824V17.27h2.605c1.34 0 2.08.862 2.08 1.99 0 .986-.562 1.669-1.415 1.915zm-4.207-5.783v2.493h1.733c.825 0 1.283-.455 1.283-1.26 0-.806-.459-1.232-1.283-1.232zm5.285 5.878v-6.636H51.5v.758h-3.402v2.076h3.11v.759h-3.11v2.284H51.5v.758zm8.386-6.635 2.418 6.54v.095h-.872l-.609-1.716h-2.886l-.609 1.715h-.853v-.094l2.408-6.54zm-1.677 4.16h2.343l-1.153-3.241h-.037zm5.126 2.475v-6.636h1.058l2.165 3.981h.038l2.211-3.981h.994v6.636h-.825v-5.319h-.038l-2.323 4.18h-.094l-2.324-4.208h-.037v5.346zm9.745-1.83h.787c.01.683.478 1.214 1.368 1.214s1.359-.493 1.359-1.233c0-.796-.535-1.251-1.453-1.251h-.572v-.71h.553c.75 0 1.265-.437 1.265-1.12 0-.597-.356-1.09-1.171-1.09s-1.228.474-1.256 1.157h-.797c.057-1.166.806-1.867 2.08-1.867 1.125 0 1.968.673 1.968 1.744 0 .74-.328 1.176-.984 1.431v.038c.768.247 1.19.863 1.19 1.66 0 1.099-.778 1.952-2.174 1.952-1.311 0-2.164-.768-2.164-1.924"/></g><defs><clipPath id="ala"><path d="M0 0h82v24H0z" fill="#fff"/></clipPath></defs></svg>