<svg id="rtlhu_rtl_gold" viewBox="0 0 72 24" xmlns="http://www.w3.org/2000/svg"><g fill="none" fill-rule="evenodd"><path d="M26.478 17.146c1.555 0 2.712.94 2.854 2.326h-1.185c-.114-.778-.758-1.263-1.669-1.263-1.232 0-1.972.892-1.972 2.373 0 1.472.74 2.355 1.981 2.355 1.025 0 1.67-.618 1.755-1.548h-1.527v-1.044h2.702v.665c0 1.794-1.175 2.99-2.93 2.99-1.905 0-3.166-1.329-3.166-3.418 0-2.097 1.251-3.436 3.157-3.436Zm6.923 0c1.925 0 3.223 1.386 3.223 3.427 0 2.04-1.298 3.427-3.223 3.427-1.925 0-3.224-1.386-3.224-3.427 0-2.05 1.3-3.427 3.224-3.427Zm5.529.104v5.601h3.157v1.044h-4.323V17.25h1.166Zm6.552 0c1.925 0 3.196 1.31 3.196 3.323 0 1.984-1.29 3.322-3.196 3.322h-2.445V17.25h2.445Zm-12.08.96c-1.262 0-2.04.892-2.04 2.363 0 1.452.778 2.363 2.04 2.363 1.26 0 2.037-.91 2.037-2.363 0-1.462-.777-2.364-2.038-2.364Zm11.995.085h-1.195v4.556h1.195c1.337 0 2.095-.835 2.095-2.278 0-1.452-.758-2.278-2.095-2.278Z" fill="#FFF"/><path d="M49.498 12.669H72V0H49.498z" fill="#FFBF1F"/><path d="M56.491 2.912h1.563v5.496h6.953v1.349h-8.516z" fill="#FFF"/><path d="M24.749 12.67h22.502V0H24.749z" fill="#F0C104"/><path d="M35.219 4.262h-3.956v-1.35h9.474v1.35h-3.956v5.495h-1.562z" fill="#FFF"/><path d="M0 12.669h22.502V0H0z" fill="#FFE266"/><path d="M12.184 6.08c.967 0 1.435-.312 1.435-.948 0-.636-.468-.939-1.435-.939h-4.23V6.08h4.23ZM6.392 2.912h5.997c1.826 0 2.842.822 2.842 2.2 0 1.183-.762 1.975-2.06 2.161l2.939 2.484h-2.257L11.09 7.362H7.955v2.395H6.392V2.912Z" fill="#FFF"/></g></svg>