<svg fill="none" id="rtlhu_live2" viewBox="0 0 83 24" xmlns="http://www.w3.org/2000/svg"><g clip-path="url(#aga)" opacity=".97"><path d="M69.972 0H48.104v12.277h21.868z" fill="#9629BC"/><path d="M54.9 2.822h1.52v5.325h6.757v1.307H54.9z" fill="#fff"/><path d="M45.92 0H24.052v12.277H45.92z" fill="#0CAAED"/><path d="M34.227 4.13h-3.844V2.822h9.207V4.13h-3.845v5.324h-1.518z" fill="#fff"/><path d="M21.868 0H0v12.277h21.868z" fill="#0C39ED"/><path d="M6.212 2.822h5.828c1.775 0 2.762.796 2.762 2.132 0 1.146-.74 1.914-2.003 2.094l2.857 2.407h-2.193l-2.686-2.322H7.73v2.322H6.212zm5.628 3.07c.94 0 1.396-.304 1.396-.92 0-.615-.456-.91-1.396-.91H7.73v1.83zm71.254-.538h-3.583v-2.7h-1.584v2.7h-3.58v1.583h3.58v2.682h1.584V6.937h3.583zM8.968 23.905v-6.636h.835v5.878h3.305v.758zm5.184 0v-6.636h.836v6.636zm4.321 0-2.44-6.54v-.095h.863l1.995 5.526h.038l1.965-5.526h.874v.094l-2.45 6.541zm4.339 0v-6.636h4.283v.759h-3.447v2.076H26.8v.758h-3.152v2.285h3.447v.758zm7.321-1.991h.845c.048.853.656 1.308 1.757 1.308 1.006 0 1.548-.398 1.548-1.137 0-.645-.266-.882-1.197-1.08l-.968-.209c-1.206-.256-1.766-.825-1.766-1.791 0-1.138.864-1.83 2.298-1.83s2.364.787 2.374 1.981h-.846c-.038-.777-.579-1.204-1.528-1.204s-1.444.36-1.444 1.052c0 .503.37.825 1.14.986l.902.19c1.377.294 1.89.806 1.89 1.905 0 1.166-.94 1.915-2.403 1.915-1.614 0-2.563-.758-2.601-2.086m7.681 1.991v-5.877h-2.06v-.759h4.956v.759h-2.06v5.877zm9.04-.095v.095h-.902l-1.748-2.626h-1.614v2.626h-.835v-6.636h2.64c1.357 0 2.107.863 2.107 1.99 0 .987-.57 1.67-1.433 1.916zm-4.264-5.782v2.493h1.757c.836 0 1.3-.455 1.3-1.26 0-.806-.465-1.233-1.3-1.233zm5.356 5.877v-6.636h4.282v.759h-3.447v2.076h3.153v.758h-3.153v2.285h3.447v.758zm8.498-6.635 2.45 6.54v.095h-.883l-.617-1.716H54.47l-.617 1.716h-.864v-.095l2.44-6.54zm-1.699 4.161h2.374l-1.168-3.242h-.038zm5.194 2.474v-6.636h1.073l2.193 3.982h.038l2.241-3.982h1.007v6.636h-.836v-5.318h-.038l-2.355 4.18h-.094l-2.355-4.208h-.038v5.346zm10.037 0v-.625l2.27-2.617c.683-.796.949-1.108.949-1.668 0-.645-.39-1.1-1.187-1.1s-1.244.446-1.244 1.252h-.807c0-1.157.75-1.972 2.051-1.972s2.014.777 2.014 1.791c0 .74-.39 1.242-1.225 2.2l-1.719 1.962v.038h3.048v.739z" fill="#fff"/></g><defs><clipPath id="aga"><path d="M0 0h83v24H0z" fill="#fff"/></clipPath></defs></svg>