<svg id="rtlhu_sorozat_plus_ghost" viewBox="0 0 132 24" xmlns="http://www.w3.org/2000/svg"><path d="M10.86 9.335a12.573 12.573 0 0 0-2.783-1.244 4.952 4.952 0 0 0-1.489-.24c-.395 0-.708.062-.942.184-.234.122-.351.327-.351.616 0 .214.067.39.204.525.137.138.333.263.591.377.258.114.572.225.943.331.371.108.792.235 1.26.389.742.227 1.411.479 2.01.754.598.273 1.11.598 1.534.971.425.373.75.826.977 1.359.226.532.341 1.18.341 1.94 0 .974-.179 1.794-.534 2.454a4.395 4.395 0 0 1-1.409 1.588 5.884 5.884 0 0 1-1.976.856 9.494 9.494 0 0 1-2.215.263 12.4 12.4 0 0 1-1.818-.138 15.752 15.752 0 0 1-1.851-.389 15.935 15.935 0 0 1-1.772-.594A11.312 11.312 0 0 1 0 18.56l1.909-3.904c.53.335 1.084.633 1.66.89.483.227 1.033.433 1.646.616a6.501 6.501 0 0 0 1.873.274c.485 0 .822-.064 1.01-.194a.598.598 0 0 0 .284-.515.737.737 0 0 0-.283-.582c-.19-.16-.45-.301-.784-.423a16.33 16.33 0 0 0-1.147-.365 23.492 23.492 0 0 1-1.376-.435 11.792 11.792 0 0 1-1.84-.788 4.94 4.94 0 0 1-1.271-.96 3.412 3.412 0 0 1-.738-1.22c-.16-.457-.239-.981-.239-1.576 0-.897.163-1.69.489-2.373a4.845 4.845 0 0 1 1.33-1.712 5.942 5.942 0 0 1 1.918-1.039 7.29 7.29 0 0 1 2.282-.353 8.65 8.65 0 0 1 1.727.172c.56.113 1.101.259 1.623.432.522.176 1.01.365 1.465.57.454.206.863.4 1.226.583l-1.903 3.676Zm11.072 11.051c-1.226 0-2.34-.235-3.34-.708a8.23 8.23 0 0 1-2.566-1.861 8.44 8.44 0 0 1-1.659-2.637 8.18 8.18 0 0 1-.59-3.06c0-1.065.204-2.092.612-3.082.41-.99.98-1.86 1.715-2.615a8.352 8.352 0 0 1 2.611-1.803c1.007-.449 2.11-.674 3.305-.674 1.226 0 2.34.235 3.34.708a8.138 8.138 0 0 1 2.565 1.873 8.409 8.409 0 0 1 1.647 2.649c.387.99.58 2.003.58 3.036a7.923 7.923 0 0 1-.613 3.072 8.309 8.309 0 0 1-1.705 2.603 8.357 8.357 0 0 1-2.602 1.815c-1.002.455-2.105.684-3.3.684Zm-3.657-8.22c0 .548.075 1.077.226 1.586.15.51.38.963.68 1.358.304.397.685.716 1.148.96.462.243 1.01.365 1.647.365s1.189-.126 1.659-.377a3.382 3.382 0 0 0 1.147-.982c.296-.403.514-.864.659-1.38a5.895 5.895 0 0 0 .216-1.576c0-.548-.075-1.077-.226-1.588a3.9 3.9 0 0 0-.693-1.346 3.491 3.491 0 0 0-1.159-.936c-.462-.235-1.004-.353-1.623-.353-.637 0-1.185.122-1.647.365a3.376 3.376 0 0 0-1.147.972 4.12 4.12 0 0 0-.67 1.37 5.673 5.673 0 0 0-.217 1.562Zm35.645-8.22c1.226 0 2.34.235 3.34.708a8.138 8.138 0 0 1 2.565 1.873 8.409 8.409 0 0 1 1.648 2.649c.387.99.579 2.003.579 3.036a7.923 7.923 0 0 1-.613 3.072 8.338 8.338 0 0 1-1.703 2.603 8.357 8.357 0 0 1-2.601 1.815c-1.005.455-2.106.684-3.303.684-1.226 0-2.34-.235-3.34-.708a8.23 8.23 0 0 1-2.565-1.861 8.44 8.44 0 0 1-1.66-2.637 8.18 8.18 0 0 1-.59-3.06c0-1.065.204-2.092.612-3.082.41-.99.98-1.86 1.715-2.615a8.352 8.352 0 0 1 2.612-1.803c1.006-.449 2.11-.674 3.304-.674Zm-14.72.092c.788 0 1.514.163 2.18.49a5.652 5.652 0 0 1 1.715 1.279 6.023 6.023 0 0 1 1.126 1.803c.272.678.408 1.358.408 2.045 0 .943-.204 1.823-.613 2.637a5.386 5.386 0 0 1-1.702 1.998l3.407 5.96h-4.997l-2.84-4.976h-1.659v4.976h-4.431V4.038H39.2Zm14.655 3.86c-.637 0-1.185.121-1.647.364a3.376 3.376 0 0 0-1.147.972 4.12 4.12 0 0 0-.67 1.37 5.673 5.673 0 0 0-.217 1.562c0 .548.075 1.077.226 1.586.151.51.38.963.68 1.358.305.397.686.716 1.148.96.462.243 1.01.365 1.647.365s1.189-.126 1.66-.377a3.382 3.382 0 0 0 1.146-.982c.296-.403.514-.864.659-1.38a5.895 5.895 0 0 0 .216-1.576c0-.548-.075-1.077-.226-1.588a3.9 3.9 0 0 0-.693-1.346 3.491 3.491 0 0 0-1.159-.936c-.462-.235-1.004-.353-1.623-.353Zm-14.95.021h-2.682v3.471h2.794c.272 0 .526-.152.762-.457.235-.305.352-.73.352-1.278 0-.563-.137-.994-.41-1.29-.271-.298-.545-.446-.817-.446Zm23.549 9.018 7.54-9.018h-7.2V4.038h12.31v3.31l-7.086 9.019h7.224v3.881H62.455v-3.31Zm22.98-12.9 5.588 16.211h-4.497l-.976-3.173h-4.294l-.955 3.173h-4.52l5.612-16.21h4.042Zm17.352 0V7.92h-4.634v12.33h-4.429V7.918h-4.658v-3.88h13.721ZM83.415 9.085l-1.499 5.023h2.93l-1.431-5.023Zm34.559.802c2.084-4.151 1.955-9.884 1.955-9.884h-11.81v11.87s5.705.13 9.833-1.964l.022-.022Zm-.022 4.208c-4.13-2.092-9.833-1.964-9.833-1.964V24h11.81s.129-5.735-1.955-9.884l-.022-.022Zm4.193.022C120.062 18.267 120.19 24 120.19 24H132V12.13s-5.705-.13-9.833 1.964l-.022.022Zm.022-4.21C126.297 12 132 11.87 132 11.87V0h-11.808s-.129 5.735 1.955 9.884l.02.022Z" fill="#FFF"/></svg>