<svg id="rtlhu_sorozat_plus" viewBox="0 0 132 24" xmlns="http://www.w3.org/2000/svg"><defs><radialGradient cx="49.999%" cy="50.001%" fx="49.999%" fy="50.001%" id="cca" r="49.999%"><stop offset="17.2%" stop-color="#010101" stop-opacity="0"/><stop offset="29.88%" stop-color="#050505" stop-opacity=".153"/><stop offset="41.4%" stop-color="#0F1010" stop-opacity=".292"/><stop offset="52.47%" stop-color="#1D1E1E" stop-opacity=".426"/><stop offset="63.26%" stop-color="#2C2D2C" stop-opacity=".556"/><stop offset="73.86%" stop-color="#3D3E3E" stop-opacity=".684"/><stop offset="84.31%" stop-color="#545454" stop-opacity=".81"/><stop offset="94.44%" stop-color="#707070" stop-opacity=".933"/><stop offset="100%" stop-color="#828282"/></radialGradient><radialGradient cx="74.837%" cy="75.638%" fx="74.837%" fy="75.638%" id="ccb" r="39.068%"><stop offset="0%" stop-color="#FCBE88"/><stop offset="100%" stop-color="#F58024"/></radialGradient><radialGradient cx="75.647%" cy="25.174%" fx="75.647%" fy="25.174%" id="ccc" r="39.068%"><stop offset="0%" stop-color="#C21E5E"/><stop offset="100%" stop-color="#ED1977"/></radialGradient><radialGradient cx="25.172%" cy="24.361%" fx="25.172%" fy="24.361%" id="ccd" r="39.068%"><stop offset="0%" stop-color="#D84726"/><stop offset="100%" stop-color="#F15B24"/></radialGradient><radialGradient cx="24.347%" cy="74.839%" fx="24.347%" fy="74.839%" gradientTransform="matrix(.7075 .70659 -.7067 .70739 .6 .047)" id="cce" r="39.075%"><stop offset="0%" stop-color="#B67699"/><stop offset="100%" stop-color="#C11C78"/></radialGradient></defs><g fill="none"><path d="M10.883 9.251a13.177 13.177 0 0 0-2.79-1.203 5.13 5.13 0 0 0-1.49-.231c-.397 0-.71.06-.946.177-.234.118-.351.316-.351.596a.67.67 0 0 0 .204.507c.138.133.334.254.593.364.258.11.573.218.944.32.372.104.794.228 1.263.376.744.22 1.414.463 2.015.729a6.294 6.294 0 0 1 1.537.939c.425.36.752.798.978 1.312.227.515.342 1.142.342 1.876 0 .94-.179 1.733-.535 2.371a4.303 4.303 0 0 1-1.412 1.535 6.01 6.01 0 0 1-1.98.827 9.848 9.848 0 0 1-2.22.254c-.592 0-1.199-.044-1.821-.133a16.294 16.294 0 0 1-1.855-.376 16.38 16.38 0 0 1-1.776-.574c-.569-.22-1.096-.47-1.583-.75l1.913-3.773c.531.324 1.086.611 1.662.86.486.22 1.036.418 1.651.596.614.177 1.24.264 1.877.264.485 0 .823-.062 1.012-.187.19-.126.285-.291.285-.498a.703.703 0 0 0-.285-.562c-.19-.155-.451-.292-.785-.41a16.802 16.802 0 0 0-1.15-.352c-.433-.118-.89-.256-1.378-.42a12.051 12.051 0 0 1-1.843-.762 4.937 4.937 0 0 1-1.275-.927 3.278 3.278 0 0 1-.74-1.18c-.159-.441-.238-.948-.238-1.523 0-.867.163-1.632.49-2.293a4.71 4.71 0 0 1 1.331-1.654A6.045 6.045 0 0 1 4.45 4.34 7.552 7.552 0 0 1 6.737 4c.593 0 1.17.056 1.73.166.561.11 1.104.25 1.627.418.523.17 1.012.353 1.468.551.455.199.865.386 1.228.563l-1.907 3.553Zm11.095 10.68c-1.23 0-2.345-.228-3.347-.685a8.242 8.242 0 0 1-2.571-1.798 8.121 8.121 0 0 1-1.663-2.549 7.66 7.66 0 0 1-.592-2.957c0-1.03.204-2.022.614-2.978a7.904 7.904 0 0 1 1.718-2.527 8.383 8.383 0 0 1 2.617-1.743c1.008-.434 2.114-.652 3.311-.652 1.23 0 2.345.228 3.347.685a8.087 8.087 0 0 1 4.222 4.37c.387.956.58 1.935.58 2.934 0 1.03-.204 2.018-.614 2.969a8.01 8.01 0 0 1-1.708 2.515 8.384 8.384 0 0 1-2.607 1.754c-1.005.44-2.11.662-3.307.662Zm-3.665-7.944c0 .53.075 1.04.226 1.532.152.494.38.931.683 1.313.304.383.686.692 1.149.927.463.235 1.012.353 1.65.353.639 0 1.192-.122 1.663-.365.47-.242.853-.559 1.15-.948.296-.39.514-.835.66-1.334.143-.5.216-1.008.216-1.523 0-.53-.075-1.04-.226-1.534a3.723 3.723 0 0 0-.694-1.301 3.477 3.477 0 0 0-1.162-.905c-.463-.227-1.006-.34-1.626-.34-.639 0-1.188.117-1.651.352a3.354 3.354 0 0 0-1.15.939c-.304.39-.526.83-.671 1.324a5.301 5.301 0 0 0-.217 1.51ZM54.03 4.042c1.23 0 2.345.228 3.347.685a8.087 8.087 0 0 1 4.222 4.37c.388.956.58 1.935.58 2.934 0 1.03-.204 2.018-.614 2.969a8.038 8.038 0 0 1-1.706 2.515 8.384 8.384 0 0 1-2.607 1.754c-1.006.44-2.11.662-3.309.662-1.229 0-2.345-.228-3.347-.685a8.242 8.242 0 0 1-2.571-1.798 8.121 8.121 0 0 1-1.662-2.549 7.66 7.66 0 0 1-.593-2.957c0-1.03.205-2.022.614-2.978a7.904 7.904 0 0 1 1.719-2.527 8.383 8.383 0 0 1 2.616-1.743c1.009-.434 2.114-.652 3.311-.652Zm-14.749.09c.79 0 1.518.157 2.186.473a5.653 5.653 0 0 1 2.845 2.979c.273.655.41 1.312.41 1.976 0 .911-.205 1.761-.615 2.548a5.261 5.261 0 0 1-1.706 1.932l3.415 5.76h-5.008l-2.845-4.81H36.3v4.81h-4.44V4.13h7.421Zm14.686 3.73c-.639 0-1.187.117-1.65.352a3.354 3.354 0 0 0-1.15.939c-.304.39-.527.83-.672 1.324a5.301 5.301 0 0 0-.217 1.51c0 .53.076 1.04.227 1.532.15.494.38.931.682 1.313.304.383.686.692 1.15.927.463.235 1.011.353 1.65.353.638 0 1.19-.122 1.662-.365.47-.242.853-.559 1.15-.948.296-.39.515-.835.66-1.334.143-.5.217-1.008.217-1.523 0-.53-.076-1.04-.227-1.534a3.723 3.723 0 0 0-.694-1.301 3.477 3.477 0 0 0-1.162-.905c-.463-.227-1.006-.34-1.626-.34Zm-14.982.02h-2.687v3.355h2.8c.273 0 .527-.147.764-.442.235-.295.352-.705.352-1.235 0-.544-.137-.96-.41-1.248-.272-.287-.547-.43-.82-.43Zm23.598 8.716 7.557-8.716h-7.217v-3.75H75.26v3.2l-7.1 8.714h7.238v3.752H62.584v-3.2ZM85.612 4.13l5.6 15.667h-4.506l-.979-3.067h-4.303l-.956 3.067h-4.53L81.56 4.13h4.05Zm17.388 0v3.751h-4.643v11.916h-4.439V7.882h-4.667v-3.75H103ZM83.588 9.008l-1.502 4.854h2.935l-1.433-4.854Z" fill="#ED1977"/><g transform="translate(108)"><path d="M.044.042h23.914v23.914H.044z" fill="#FFF"/><circle cx="12" cy="12" fill="url(#cca)" r="12"/><path d="M9.904 9.884c2.094-4.15 1.964-9.882 1.964-9.882H0V11.87s5.734.13 9.882-1.964l.022-.022Z" fill="url(#ccb)"/><path d="M9.882 14.092C5.732 12 0 12.128 0 12.128v11.868h11.868s.13-5.734-1.964-9.882l-.022-.022Z" fill="url(#ccc)"/><path d="M14.096 14.114c-2.094 4.15-1.964 9.882-1.964 9.882H24V12.128s-5.734-.13-9.882 1.964l-.022.022Z" fill="url(#ccd)"/><path d="M14.118 9.904C18.268 11.998 24 11.868 24 11.868V0H12.134s-.13 5.734 1.964 9.882l.02.022Z" fill="url(#cce)"/></g></g></svg>