<svg id="rtlhu_sorozat_plus_dark" viewBox="0 0 133 24" xmlns="http://www.w3.org/2000/svg"><path d="M10.943 9.335a12.704 12.704 0 0 0-1.42-.73 13.137 13.137 0 0 0-1.385-.514 5.024 5.024 0 0 0-1.5-.24c-.398 0-.714.062-.95.184-.235.122-.353.327-.353.616 0 .214.068.39.206.525.138.138.336.263.595.377.26.114.576.225.95.331.374.108.798.235 1.27.389.748.227 1.422.479 2.025.754a6.3 6.3 0 0 1 1.546.971c.428.373.756.826.984 1.359.228.532.344 1.18.344 1.94 0 .974-.18 1.794-.538 2.454a4.406 4.406 0 0 1-1.42 1.588 5.952 5.952 0 0 1-1.991.856 9.635 9.635 0 0 1-2.232.263c-.596 0-1.205-.046-1.831-.138a15.976 15.976 0 0 1-1.866-.389 16.14 16.14 0 0 1-1.785-.594A11.434 11.434 0 0 1 0 18.56l1.924-3.904c.533.335 1.091.633 1.671.89.488.227 1.042.433 1.66.616a6.597 6.597 0 0 0 1.887.274c.488 0 .828-.064 1.018-.194a.597.597 0 0 0 .286-.515.735.735 0 0 0-.286-.582c-.192-.16-.454-.301-.79-.423a16.543 16.543 0 0 0-1.156-.365 23.8 23.8 0 0 1-1.385-.435 11.93 11.93 0 0 1-1.854-.788c-.52-.28-.946-.6-1.281-.96a3.407 3.407 0 0 1-.744-1.22c-.16-.456-.24-.98-.24-1.574 0-.897.164-1.69.492-2.373a4.85 4.85 0 0 1 1.34-1.712 6.02 6.02 0 0 1 1.933-1.039 7.396 7.396 0 0 1 2.3-.353 8.78 8.78 0 0 1 1.739.172c.564.113 1.11.259 1.635.432.526.176 1.018.365 1.476.57.458.206.87.4 1.236.583l-1.918 3.676Zm11.155 11.051c-1.235 0-2.357-.235-3.365-.708a8.29 8.29 0 0 1-2.585-1.861 8.431 8.431 0 0 1-1.672-2.637 8.125 8.125 0 0 1-.596-3.06c0-1.065.206-2.092.618-3.082a8.193 8.193 0 0 1 1.728-2.615 8.417 8.417 0 0 1 2.631-1.803c1.014-.449 2.126-.674 3.33-.674 1.235 0 2.357.235 3.365.708a8.197 8.197 0 0 1 2.585 1.873 8.4 8.4 0 0 1 1.66 2.649c.39.99.583 2.003.583 3.036a7.872 7.872 0 0 1-.618 3.072 8.304 8.304 0 0 1-1.717 2.603 8.421 8.421 0 0 1-2.621 1.815c-1.01.455-2.122.684-3.326.684Zm-3.685-8.22c0 .548.076 1.077.228 1.586.152.51.382.963.686 1.358.306.397.69.716 1.156.96.466.243 1.018.365 1.66.365.641 0 1.197-.126 1.67-.377a3.4 3.4 0 0 0 1.157-.982c.298-.403.518-.864.663-1.38a5.853 5.853 0 0 0 .218-1.576c0-.548-.076-1.077-.228-1.588a3.89 3.89 0 0 0-.697-1.346 3.513 3.513 0 0 0-1.168-.936c-.466-.235-1.012-.353-1.636-.353-.641 0-1.193.122-1.66.365a3.41 3.41 0 0 0-1.155.972c-.306.403-.53.86-.676 1.37a5.634 5.634 0 0 0-.218 1.562Zm35.915-8.22c1.236 0 2.358.235 3.365.708a8.197 8.197 0 0 1 2.586 1.873 8.4 8.4 0 0 1 1.66 2.649c.39.99.583 2.003.583 3.036a7.872 7.872 0 0 1-.618 3.072 8.333 8.333 0 0 1-1.715 2.603 8.421 8.421 0 0 1-2.622 1.815c-1.011.455-2.121.684-3.327.684-1.235 0-2.357-.235-3.365-.708a8.29 8.29 0 0 1-2.585-1.861 8.431 8.431 0 0 1-1.672-2.637 8.125 8.125 0 0 1-.596-3.06c0-1.065.206-2.092.618-3.082a8.193 8.193 0 0 1 1.728-2.615 8.417 8.417 0 0 1 2.631-1.803c1.014-.449 2.125-.674 3.33-.674Zm-14.83.092a4.95 4.95 0 0 1 2.197.49 5.692 5.692 0 0 1 1.728 1.279 6.01 6.01 0 0 1 1.134 1.803c.274.678.412 1.358.412 2.045a5.76 5.76 0 0 1-.618 2.637 5.397 5.397 0 0 1-1.716 1.998l3.433 5.96h-5.034l-2.862-4.976h-1.671v4.976h-4.465V4.038h7.462Zm14.766 3.86c-.642 0-1.193.121-1.66.364a3.4 3.4 0 0 0-1.155.972c-.306.403-.53.86-.676 1.37a5.634 5.634 0 0 0-.218 1.562c0 .548.076 1.077.228 1.586.152.51.382.963.686 1.358.306.397.69.716 1.156.96.466.243 1.017.365 1.66.365.641 0 1.197-.126 1.67-.377a3.4 3.4 0 0 0 1.156-.982c.298-.403.518-.864.664-1.38a5.853 5.853 0 0 0 .218-1.576c0-.548-.076-1.077-.228-1.588a3.89 3.89 0 0 0-.698-1.346A3.513 3.513 0 0 0 55.9 8.25c-.466-.235-1.012-.353-1.636-.353Zm-15.064.02h-2.701v3.471h2.815c.274 0 .53-.152.768-.457.236-.305.354-.73.354-1.278 0-.563-.138-.994-.412-1.29-.274-.298-.55-.446-.824-.446Zm23.728 9.018 7.598-9.018H63.27v-3.88h12.405v3.31l-7.14 9.019h7.278v3.881H62.928v-3.31Zm23.154-12.9 5.63 16.211h-4.53l-.984-3.173h-4.327l-.962 3.173h-4.554l5.654-16.21h4.073Zm17.484 0V7.92h-4.67v12.33h-4.462V7.918h-4.693v-3.88h13.825Zm-19.52 5.047-1.509 5.023h2.951l-1.441-5.023Zm34.822.802c2.1-4.151 1.97-9.884 1.97-9.884h-11.9v11.87s5.749.13 9.908-1.964l.022-.022Zm-.022 4.208c-4.161-2.092-9.908-1.964-9.908-1.964V24h11.9s.13-5.735-1.97-9.884l-.022-.022Zm4.225.022C120.97 18.267 121.1 24 121.1 24H133V12.13s-5.749-.13-9.907 1.964l-.022.022Zm.022-4.21C127.253 12 133 11.87 133 11.87V0h-11.897s-.13 5.735 1.97 9.884l.02.022Z" fill="#0D0D0D" fill-rule="evenodd"/></svg>