<svg id="rtlhu_szeressmost_ghost" viewBox="0 0 86 24" xmlns="http://www.w3.org/2000/svg"><g fill="#FFF"><path d="M23.89 11.685C23.72 5.121 18.328-.085 11.79.001 5.255.087 0 5.434 0 12c0 6.566 5.254 11.913 11.79 11.999 6.537.086 11.93-5.12 12.1-11.684v-.63Zm-3.956 2.369-5.1 6.077a3.957 3.957 0 0 1-3.032 1.417c-1.17 0-2.28-.518-3.033-1.417l-5.092-6.077a5.702 5.702 0 0 1-.828-6.038 5.578 5.578 0 0 1 4.99-3.336h.148a6.428 6.428 0 0 1 3.82 1.252c.311-.231.643-.434.99-.605a.823.823 0 0 1 .848.035.831.831 0 0 1-.128 1.457c-.42.207-.81.474-1.154.793l-.558.517-.56-.517A4.775 4.775 0 0 0 8.03 6.336h-.16a3.892 3.892 0 0 0-3.518 2.357 4.052 4.052 0 0 0 .587 4.294l5.096 6.082a2.306 2.306 0 0 0 3.539 0l5.098-6.082a4.113 4.113 0 0 0-.573-5.807l-.014.018-1.444 1.818a.35.35 0 0 1-.603-.12l-1.447-4.884a.355.355 0 0 1 .36-.45l5.06.35a.353.353 0 0 1 .251.563l-1.128 1.413a5.75 5.75 0 0 1 .804 8.162l-.004.004Zm15.691-7.451a5.584 5.584 0 0 0-.631-.499 3.985 3.985 0 0 0-.77-.376 15.961 15.961 0 0 0-.786-.284 25.116 25.116 0 0 0-1.323-.378 6.26 6.26 0 0 1-1.7-.71 1.4 1.4 0 0 1-.692-1.255c-.014-.5.204-.98.59-1.296.389-.327.932-.49 1.633-.49.702 0 1.35.3 1.946.9.68.714 1.258 1.52 1.717 2.395h.273l-.128-3.459h-.19c-.124.23-.267.343-.425.343a7.068 7.068 0 0 1-1.223-.264A7.186 7.186 0 0 0 32.03.949c-1.252 0-2.24.366-2.964 1.098a3.602 3.602 0 0 0-1.085 2.625c0 1.248.353 2.169 1.06 2.763.34.288.716.53 1.119.72.615.261 1.249.476 1.896.645a6.704 6.704 0 0 1 2.01.866c.468.321.736.863.71 1.431a1.6 1.6 0 0 1-.66 1.4c-.443.31-.972.472-1.511.462-.865 0-1.688-.371-2.47-1.114a9.451 9.451 0 0 1-1.921-2.61h-.29l.18 4.092h.239c.146-.344.301-.515.46-.515.092 0 .555.085 1.393.256.733.16 1.48.247 2.23.259 1.251 0 2.262-.375 3.031-1.125.77-.75 1.153-1.741 1.152-2.974a3.943 3.943 0 0 0-.464-1.959 2.32 2.32 0 0 0-.519-.666Zm2.059 1.678h.223c.352-1.233.754-2.041 1.206-2.423.452-.383 1.252-.571 2.4-.566h.187l-4.119 7.605v.258h7.175l.273-3.523h-.24c-.31 1.132-.736 1.95-1.281 2.453-.546.503-1.298.755-2.256.755h-.221l4.049-7.55v-.303h-7.173l-.223 3.294Zm12.64-3.465c-1.274 0-2.324.36-3.15 1.08-.825.72-1.239 1.759-1.24 3.116 0 1.355.368 2.413 1.104 3.174.735.76 1.837 1.14 3.305 1.14 1.128 0 1.974-.228 2.537-.686a3.562 3.562 0 0 0 1.17-1.922l-.308-.05c-.41 1.417-1.276 2.126-2.597 2.126-.706 0-1.206-.285-1.486-.859-.28-.573-.426-1.413-.426-2.538v-.67h4.825c.096-2.608-1.148-3.911-3.733-3.911Zm.684 3.568H49.25v-.84c0-.88.077-1.501.231-1.862.153-.36.392-.541.718-.541a.642.642 0 0 1 .65.507c.107.338.16.97.16 1.896v.84Zm10.064-3.568a2.34 2.34 0 0 0-1.436.472 2.328 2.328 0 0 0-.852 1.347V4.987h-4.12v.31h.94v7.549h-.94v.309h5.33v-.309h-1.206v-4.6a3.82 3.82 0 0 1 .475-1.954c.317-.55.687-.824 1.11-.824.522 0 .643.29.357.874h-.615c-.181.606-.15 1.083.094 1.426.246.343.628.513 1.146.513.519 0 .9-.148 1.152-.447.273-.367.405-.82.374-1.278a1.645 1.645 0 0 0-.504-1.286 1.877 1.877 0 0 0-1.305-.454Zm6.433 0c-1.276 0-2.327.36-3.152 1.08-.826.72-1.239 1.759-1.239 3.116 0 1.355.368 2.413 1.102 3.174.734.76 1.836 1.14 3.305 1.14 1.128 0 1.974-.228 2.537-.686.588-.495 1-1.17 1.17-1.922l-.306-.05c-.402 1.417-1.267 2.126-2.595 2.126-.705 0-1.206-.285-1.485-.859-.28-.573-.429-1.413-.429-2.538v-.67h4.825c.1-2.608-1.144-3.911-3.733-3.911Zm.683 3.568H66.43v-.84c0-.88.077-1.501.23-1.862.154-.36.402-.541.717-.541a.64.64 0 0 1 .65.507c.108.338.162.97.162 1.896v.84Zm9.453-.103a5.717 5.717 0 0 0-.973-.523 12.91 12.91 0 0 0-1.675-.505 2.488 2.488 0 0 1-.315-.087 4.958 4.958 0 0 1-.318-.111 3.634 3.634 0 0 1-.255-.121.804.804 0 0 1-.221-.146 2.9 2.9 0 0 1-.19-.214.608.608 0 0 1-.118-.403.847.847 0 0 1 .392-.711c.261-.19.662-.285 1.206-.285 1.219 0 2.119.74 2.7 2.221h.201v-2.61h-.187a2.07 2.07 0 0 1-.29.446.401.401 0 0 1-.29.119 1.37 1.37 0 0 1-.495-.137 4.253 4.253 0 0 0-1.727-.404c-.911 0-1.64.269-2.185.807-.546.539-.82 1.25-.82 2.137 0 .892.312 1.544.938 1.956.602.377 1.26.655 1.948.824.597.103 1.173.3 1.71.582a.782.782 0 0 1 .425.72c0 .746-.58 1.118-1.743 1.117a2.902 2.902 0 0 1-1.877-.606c-.503-.404-.902-1.1-1.197-2.092h-.2v3.072h.2c.24-.424.483-.636.734-.636a.662.662 0 0 1 .326.137 4.49 4.49 0 0 0 2.04.499c.992 0 1.773-.25 2.342-.747.57-.499.854-1.23.853-2.197 0-.966-.313-1.666-.939-2.102Zm7.414 0a5.717 5.717 0 0 0-.973-.523 12.91 12.91 0 0 0-1.674-.505 2.488 2.488 0 0 1-.316-.087 4.958 4.958 0 0 1-.318-.111 3.634 3.634 0 0 1-.255-.121.854.854 0 0 1-.223-.146 3.594 3.594 0 0 1-.187-.214.608.608 0 0 1-.119-.403c0-.288.146-.555.386-.711.268-.19.67-.285 1.206-.285 1.219 0 2.118.74 2.698 2.221h.201v-2.61h-.187c-.079.16-.18.309-.3.442a.385.385 0 0 1-.289.119 1.37 1.37 0 0 1-.494-.137 4.253 4.253 0 0 0-1.727-.404c-.911 0-1.64.269-2.185.807-.546.539-.817 1.25-.813 2.137 0 .892.313 1.544.94 1.956a6.687 6.687 0 0 0 1.955.824c.597.103 1.173.3 1.71.582a.78.78 0 0 1 .425.72c0 .746-.58 1.118-1.743 1.117a2.902 2.902 0 0 1-1.877-.606c-.503-.404-.902-1.1-1.196-2.092h-.201v3.076h.2c.24-.424.483-.636.734-.636a.662.662 0 0 1 .326.137 4.49 4.49 0 0 0 2.049.499c.991 0 1.771-.25 2.34-.747.568-.499.852-1.23.852-2.197 0-.966-.315-1.666-.945-2.102ZM46.232 18.758c-.078-2.453-2.107-4.387-4.55-4.336-2.444.051-4.39 2.069-4.366 4.523.025 2.455 2.013 4.432 4.457 4.433a4.465 4.465 0 0 0 3.198-1.366 4.506 4.506 0 0 0 1.26-3.254Zm-2.31.473-2.953 1.708a.38.38 0 0 1-.573-.333v-3.417a.38.38 0 0 1 .573-.331l2.945 1.708a.384.384 0 0 1 .008.665Z"/><path d="m54.85 15.065-.024.848h1.272v1.646h-1.26v2.372c0 .493.153.675.577.675.235-.007.467-.046.691-.117v1.8a7.26 7.26 0 0 1-1.435.144c-.722 0-1.18-.103-1.526-.375-.517-.376-.718-.857-.718-1.737v-2.754h-.426a2.732 2.732 0 0 0-.53-1.02v-.626h1.071l.014-.25 2.294-.606Zm-6.413.677c1.496 0 2.621.69 2.96 1.817l-1.94.224c-.208-.402-.544-.57-1.11-.57-.457 0-.805.14-.805.336s.215.337.603.375c1.408.156 2.027.291 2.413.493a1.848 1.848 0 0 1 1.083 1.722c0 1.426-1.25 2.294-3.313 2.294-1.057 0-1.851-.236-2.412-.719.3-.44.53-.927.681-1.44l.503-.068c.167.497.537.699 1.34.699.608 0 .982-.144.982-.388 0-.156-.14-.275-.452-.337a8.136 8.136 0 0 0-.889-.13 6.474 6.474 0 0 1-1.357-.327c.05-.286.074-.577.074-.868a5.04 5.04 0 0 0-.629-2.455c.527-.42 1.309-.658 2.268-.658Zm-11.73 3.164a5.106 5.106 0 0 1 .42-2.04c.08-.181.17-.358.27-.529a1.158 1.158 0 0 0-.087-.085 2.135 2.135 0 0 0-1.428-.502c-.886 0-1.441.282-1.915.993a2.087 2.087 0 0 0-1.777-.994c-.723 0-1.395.376-1.776.994v-.864h-2.398v6.43h2.553l-.022-3.888c0-.49.241-.903.653-.903.412 0 .58.259.58.764v4.038h2.412v-3.33c0-.724.2-1.431.695-1.431a.56.56 0 0 1 .424.167c.103.118.117.202.117.556v4.038h2.412v-.202a5.06 5.06 0 0 1-1.133-3.212Z"/></g></svg>