<?xml version="1.0" encoding="UTF-8"?>
<svg id="Ziggo_logo" data-name="Ziggo logo" xmlns="http://www.w3.org/2000/svg" width="2710" height="448" viewBox="0 0 2710 448">
  <path style="fill: #fff;" d="M158.383175,286.086048h-90.167745c33.812904-48.024125,98.008419-103.888924,128.391028-134.271533,9.3108-9.3108,12.251052-18.131557,12.251052-27.932399,0-20.581768-14.701263-36.753157-38.713325-36.753157H13.820758c-2.45021,26.462273,9.3108,51.944462,50.964378,51.944462h70.076019c-38.713325,37.733241-98.008419,93.59804-121.040397,134.271533-3.920337,6.860589-8.820758,16.661431-8.820758,27.932399,0,20.581768,16.171389,36.753157,37.243199,36.753157h167.104354c2.45021-26.462273-9.3108-51.944462-50.964378-51.944462M266.192435,85.658832c14.701263,0,26.952315,10.290884,26.952315,29.402526v195.036753c0,19.111642-12.251052,29.402526-26.952315,29.402526s-26.952315-10.290884-26.952315-29.402526V115.061357c0-19.111642,12.251052-29.402526,26.952315-29.402526M955.68166,83.208621c-64.685556,0-119.570271,47.044041-119.570271,118.590186v21.561852c0,72.036188,54.884714,118.590186,119.570271,118.590186s119.570271-46.553999,119.570271-118.590186v-21.561852c0-71.546146-54.884714-118.590186-119.570271-118.590186M1021.347301,221.890534c0,47.534083-32.83282,68.115851-65.66564,68.115851s-65.66564-20.581768-65.66564-68.115851v-18.6216c0-47.044041,32.83282-68.115851,65.66564-68.115851s65.66564,21.07181,65.66564,68.115851v18.6216ZM753.784318,253.74327c8.820758-22.051894,15.191305-46.063957,58.315009-42.633662v116.139976c0,73.996356-50.474336,115.649934-120.550355,115.649934-22.051894,0-61.745304-8.820758-90.167745-30.872652,6.370547-18.131557,17.641515-36.263115,37.733241-36.263115,14.701263,0,32.342778,15.191305,55.374756,15.191305,24.502105,0,63.705472-13.231137,63.705472-63.21543v-11.432182c-15.748465,14.984509-38.03856,24.173276-65.175598,24.173276-58.315009,0-110.259471-45.083873-110.259471-117.12006v-21.561852c0-73.506314,54.884714-118.590186,118.100144-118.590186,32.342778,0,61.745304,12.251052,76.936609,24.992147,10.290884,8.820758,12.251052,16.661431,12.251052,22.541936,0,15.191305-11.76101,27.442357-26.952315,27.442357-6.860589,0-11.270968-2.45021-17.641515-6.860589-6.860589-4.900421-21.561852-16.171389-45.083873-16.171389-31.362694,0-63.705472,21.07181-63.705472,68.115851v18.6216c0,47.534083,32.342778,68.115851,62.725388,68.115851,36.263115,0,47.044041-17.641515,54.394672-36.263115M497.982345,253.74327c8.820758-22.051894,15.191305-46.063957,58.315009-42.633662v116.139976c0,73.996356-50.474336,115.649934-120.550355,115.649934-22.051894,0-61.745304-8.820758-90.167745-30.872652,6.370547-18.131557,17.641515-36.263115,37.733241-36.263115,14.701263,0,32.342778,15.191305,55.374756,15.191305,24.502105,0,63.705472-13.231137,63.705472-63.21543v-11.432182c-15.748465,14.984509-38.03856,24.173276-65.175598,24.173276-58.315009,0-110.259471-45.083873-110.259471-117.12006v-21.561852c0-73.506314,54.884714-118.590186,118.100144-118.590186,32.342778,0,61.745304,12.251052,76.936609,24.992147,10.290884,8.820758,12.251052,16.661431,12.251052,22.541936,0,15.191305-11.76101,27.442357-26.952315,27.442357-6.860589,0-11.270968-2.45021-17.641515-6.860589-6.860589-4.900421-21.561852-16.171389-45.083873-16.171389-31.362694,0-63.705472,21.07181-63.705472,68.115851v18.6216c0,47.534083,32.342778,68.115851,62.725388,68.115851,36.263115,0,47.044041-17.641515,54.394672-36.263115M239.418971,31.820391c0-14.812493,12.007898-26.820391,26.820391-26.820391s26.820391,12.007898,26.820391,26.820391-12.007898,26.820391-26.820391,26.820391-26.820391-12.007898-26.820391-26.820391ZM1236.944108,196.956794c-39.95284-6.745858-61.603512-14.449026-61.603512-35.800863,0-30.261775,34.172087-34.780149,54.541669-34.780149,19.461646,0,34.38309,3.995544,45.278326,6.913206,6.430393,1.722325,11.076097,2.966515,14.94587,2.966515,8.456749,0,17.444644-6.113889,17.444644-17.444644,0-7.655354-4.433661-14.183973-11.442493-16.985219-6.866432-2.942608-36.649552-10.340185-66.226348-10.340185-57.432825,0-90.372675,26.080175-90.372675,71.552873,0,36.844444,25.077131,56.322201,86.556951,67.230951,29.372549,5.21063,60.709608,12.777633,60.709608,36.749857,0,23.841257-22.851725,38.074082-61.128495,38.074082-21.136157,0-39.162359-4.425865-52.324578-7.656393-7.48281-1.837701-12.889371-3.165045-16.83918-3.165045-8.903182,0-17.916023,5.992276-17.916023,17.444644,0,7.772809,4.63271,14.300388,12.099929,17.062137,8.378793,3.38956,43.764406,11.204985,75.450192,11.204985,60.418569,0,96.489163-27.804578,96.489163-74.375948,0-47.914304-43.309139-61.592078-85.663047-68.650803ZM1585.622355,205.383401v20.702198c0,31.656682-11.150935,60.728317-31.397865,81.858757-20.669456,21.571156-49.63455,33.450727-81.558884,33.450727-33.614436,0-61.749551-11.705987-82.301552-34.046316v103.644034c0,10.92642-7.534781,18.856181-17.915503,18.856181s-17.915503-7.929762-17.915503-18.856181v-205.13958c0-69.25159,46.339578-115.779303,115.309484-115.779303,67.08751,0,115.779823,48.494303,115.779823,115.309484ZM1390.364054,208.676294v14.115371c0,50.853794,31.197257,83.713089,79.478477,83.713089,48.567062,0,79.948297-32.859295,79.948297-83.713089v-14.115371c0-50.852755-31.381234-83.712049-79.948297-83.712049-48.281221,0-79.478477,32.859295-79.478477,83.712049ZM1854.283183,205.383401v20.702198c0,66.815181-48.494303,115.309484-115.308964,115.309484-67.08751,0-115.780343-48.494303-115.780343-115.309484v-20.702198c0-66.815181,48.692833-115.309484,115.780343-115.309484,66.814661,0,115.308964,48.494303,115.308964,115.309484ZM1818.452177,222.791665v-14.115371c0-50.852755-31.196737-83.712049-79.477958-83.712049-48.567582,0-79.949336,32.859295-79.949336,83.712049v14.115371c0,50.853794,31.381754,83.713089,79.949336,83.713089,48.281221,0,79.477958-32.859295,79.477958-83.713089ZM2029.716559,92.595558c-6.5993-1.649565-16.674951-2.521641-29.138159-2.521641-63.413148,0-99.782576,38.770496-99.782576,106.369402v123.271468c0,10.92642,7.534781,18.857221,17.915503,18.857221s17.915503-7.930801,17.915503-18.857221v-118.565998c0-66.808945,34.215223-75.808273,63.951569-76.184544,8.426086,0,14.247378,1.081,18.49758,1.869923,2.868809.532185,5.134752.953151,7.379907.953151,9.878681,0,17.915503-7.825819,17.915503-17.445684,0-8.664634-5.446059-15.289919-14.654832-17.746077ZM2190.665569,302.741002h-22.113215c-30.013873,0-46.543305-17.364609-46.543305-48.89656v-120.881833h63.951569c13.350875,0,19.32704-8.525351,19.32704-16.974825s-5.976165-16.974825-19.32704-16.974825h-63.951569v-33.839471c0-10.92642-7.534781-18.856181-17.915503-18.856181s-17.915503,7.929762-17.915503,18.856181v185.378061c0,54.742277,31.053296,86.138064,85.197385,86.138064h19.290141c13.350875,0,19.32704-8.525351,19.32704-16.974825,0-8.448434-5.976165-16.973786-19.32704-16.973786Z"/>
  <path style="fill: #fff;" d="M2489.642578,161.422456c-20.658203-19.529297-49.671875-29.852051-83.904297-29.852051-17.731445,0-35.142578,2.447754-50.717773,7.03125l5.009766-78.271484h114.217773c14.704102,0,25.375977-10.300293,25.375977-24.492188,0-11.604492-9.492188-23.60791-25.375977-23.60791h-137.020508c-14.086914,0-24.503906,10.288574-25.352539,25.030273l-8.394531,132.12207-.008789.140137c-.389648,7.405273,1.99707,14.225586,6.720703,19.20459,4.735352,4.991211,11.353516,7.739746,18.637695,7.739746,6.587891,0,12.963867-2.462891,21.036133-5.581055,12.253906-4.73291,29.035156-11.215332,53.662109-11.215332,41.124023,0,65.675781,20.255859,65.675781,54.184082,0,18.131836-5.836914,32.396484-17.349609,42.397461-12.204102,10.603027-30.902344,16.207031-54.072266,16.207031-26.276367,0-45.453125-6.555176-59.455078-11.341309-8.514648-2.910645-14.666016-5.013184-20.546875-5.013184-13.734375,0-24.492188,10.758301-24.492188,24.492188,0,10.176758,5.756836,18.593262,15.416016,22.569336,4.183594,1.860352,40.529297,17.392578,86.868164,17.392578,75.560547,0,124.383789-41.710449,124.383789-106.261719,0-28.514648-10.765625-54.39502-30.313477-72.874512Z"/>
</svg>
