<?xml version="1.0" encoding="UTF-8"?>
<svg id="Ziggo_logo" data-name="Ziggo logo" xmlns="http://www.w3.org/2000/svg" width="2710" height="448" viewBox="0 0 2710 448">
  <path style="fill: #fff;" d="M158.383175,286.086048h-90.167745c33.812904-48.024125,98.008419-103.888924,128.391028-134.271533,9.3108-9.3108,12.251052-18.131557,12.251052-27.932399,0-20.581768-14.701263-36.753157-38.713325-36.753157H13.820758c-2.45021,26.462273,9.3108,51.944462,50.964378,51.944462h70.076019c-38.713325,37.733241-98.008419,93.59804-121.040397,134.271533-3.920337,6.860589-8.820758,16.661431-8.820758,27.932399,0,20.581768,16.171389,36.753157,37.243199,36.753157h167.104354c2.45021-26.462273-9.3108-51.944462-50.964378-51.944462M266.192435,85.658832c14.701263,0,26.952315,10.290884,26.952315,29.402526v195.036753c0,19.111642-12.251052,29.402526-26.952315,29.402526s-26.952315-10.290884-26.952315-29.402526V115.061357c0-19.111642,12.251052-29.402526,26.952315-29.402526M955.68166,83.208621c-64.685556,0-119.570271,47.044041-119.570271,118.590186v21.561852c0,72.036188,54.884714,118.590186,119.570271,118.590186s119.570271-46.553999,119.570271-118.590186v-21.561852c0-71.546146-54.884714-118.590186-119.570271-118.590186M1021.347301,221.890534c0,47.534083-32.83282,68.115851-65.66564,68.115851s-65.66564-20.581768-65.66564-68.115851v-18.6216c0-47.044041,32.83282-68.115851,65.66564-68.115851s65.66564,21.07181,65.66564,68.115851v18.6216ZM753.784318,253.74327c8.820758-22.051894,15.191305-46.063957,58.315009-42.633662v116.139976c0,73.996356-50.474336,115.649934-120.550355,115.649934-22.051894,0-61.745304-8.820758-90.167745-30.872652,6.370547-18.131557,17.641515-36.263115,37.733241-36.263115,14.701263,0,32.342778,15.191305,55.374756,15.191305,24.502105,0,63.705472-13.231137,63.705472-63.21543v-11.432182c-15.748465,14.984509-38.03856,24.173276-65.175598,24.173276-58.315009,0-110.259471-45.083873-110.259471-117.12006v-21.561852c0-73.506314,54.884714-118.590186,118.100144-118.590186,32.342778,0,61.745304,12.251052,76.936609,24.992147,10.290884,8.820758,12.251052,16.661431,12.251052,22.541936,0,15.191305-11.76101,27.442357-26.952315,27.442357-6.860589,0-11.270968-2.45021-17.641515-6.860589-6.860589-4.900421-21.561852-16.171389-45.083873-16.171389-31.362694,0-63.705472,21.07181-63.705472,68.115851v18.6216c0,47.534083,32.342778,68.115851,62.725388,68.115851,36.263115,0,47.044041-17.641515,54.394672-36.263115M497.982345,253.74327c8.820758-22.051894,15.191305-46.063957,58.315009-42.633662v116.139976c0,73.996356-50.474336,115.649934-120.550355,115.649934-22.051894,0-61.745304-8.820758-90.167745-30.872652,6.370547-18.131557,17.641515-36.263115,37.733241-36.263115,14.701263,0,32.342778,15.191305,55.374756,15.191305,24.502105,0,63.705472-13.231137,63.705472-63.21543v-11.432182c-15.748465,14.984509-38.03856,24.173276-65.175598,24.173276-58.315009,0-110.259471-45.083873-110.259471-117.12006v-21.561852c0-73.506314,54.884714-118.590186,118.100144-118.590186,32.342778,0,61.745304,12.251052,76.936609,24.992147,10.290884,8.820758,12.251052,16.661431,12.251052,22.541936,0,15.191305-11.76101,27.442357-26.952315,27.442357-6.860589,0-11.270968-2.45021-17.641515-6.860589-6.860589-4.900421-21.561852-16.171389-45.083873-16.171389-31.362694,0-63.705472,21.07181-63.705472,68.115851v18.6216c0,47.534083,32.342778,68.115851,62.725388,68.115851,36.263115,0,47.044041-17.641515,54.394672-36.263115M239.418971,31.820391c0-14.812493,12.007898-26.820391,26.820391-26.820391s26.820391,12.007898,26.820391,26.820391-12.007898,26.820391-26.820391,26.820391-26.820391-12.007898-26.820391-26.820391ZM1236.944108,196.956794c-39.95284-6.745858-61.603512-14.449026-61.603512-35.800863,0-30.261775,34.172087-34.780149,54.541669-34.780149,19.461646,0,34.38309,3.995544,45.278326,6.913206,6.430393,1.722325,11.076097,2.966515,14.94587,2.966515,8.456749,0,17.444644-6.113889,17.444644-17.444644,0-7.655354-4.433661-14.183973-11.442493-16.985219-6.866432-2.942608-36.649552-10.340185-66.226348-10.340185-57.432825,0-90.372675,26.080175-90.372675,71.552873,0,36.844444,25.077131,56.322201,86.556951,67.230951,29.372549,5.21063,60.709608,12.777633,60.709608,36.749857,0,23.841257-22.851725,38.074082-61.128495,38.074082-21.136157,0-39.162359-4.425865-52.324578-7.656393-7.48281-1.837701-12.889371-3.165045-16.83918-3.165045-8.903182,0-17.916023,5.992276-17.916023,17.444644,0,7.772809,4.63271,14.300388,12.099929,17.062137,8.378793,3.38956,43.764406,11.204985,75.450192,11.204985,60.418569,0,96.489163-27.804578,96.489163-74.375948,0-47.914304-43.309139-61.592078-85.663047-68.650803ZM1585.622355,205.383401v20.702198c0,31.656682-11.150935,60.728317-31.397865,81.858757-20.669456,21.571156-49.63455,33.450727-81.558884,33.450727-33.614436,0-61.749551-11.705987-82.301552-34.046316v103.644034c0,10.92642-7.534781,18.856181-17.915503,18.856181s-17.915503-7.929762-17.915503-18.856181v-205.13958c0-69.25159,46.339578-115.779303,115.309484-115.779303,67.08751,0,115.779823,48.494303,115.779823,115.309484ZM1390.364054,208.676294v14.115371c0,50.853794,31.197257,83.713089,79.478477,83.713089,48.567062,0,79.948297-32.859295,79.948297-83.713089v-14.115371c0-50.852755-31.381234-83.712049-79.948297-83.712049-48.281221,0-79.478477,32.859295-79.478477,83.712049ZM1854.283183,205.383401v20.702198c0,66.815181-48.494303,115.309484-115.308964,115.309484-67.08751,0-115.780343-48.494303-115.780343-115.309484v-20.702198c0-66.815181,48.692833-115.309484,115.780343-115.309484,66.814661,0,115.308964,48.494303,115.308964,115.309484ZM1818.452177,222.791665v-14.115371c0-50.852755-31.196737-83.712049-79.477958-83.712049-48.567582,0-79.949336,32.859295-79.949336,83.712049v14.115371c0,50.853794,31.381754,83.713089,79.949336,83.713089,48.281221,0,79.477958-32.859295,79.477958-83.713089ZM2029.716559,92.595558c-6.5993-1.649565-16.674951-2.521641-29.138159-2.521641-63.413148,0-99.782576,38.770496-99.782576,106.369402v123.271468c0,10.92642,7.534781,18.857221,17.915503,18.857221s17.915503-7.930801,17.915503-18.857221v-118.565998c0-66.808945,34.215223-75.808273,63.951569-76.184544,8.426086,0,14.247378,1.081,18.49758,1.869923,2.868809.532185,5.134752.953151,7.379907.953151,9.878681,0,17.915503-7.825819,17.915503-17.445684,0-8.664634-5.446059-15.289919-14.654832-17.746077ZM2190.665569,302.741002h-22.113215c-30.013873,0-46.543305-17.364609-46.543305-48.89656v-120.881833h63.951569c13.350875,0,19.32704-8.525351,19.32704-16.974825s-5.976165-16.974825-19.32704-16.974825h-63.951569v-33.839471c0-10.92642-7.534781-18.856181-17.915503-18.856181s-17.915503,7.929762-17.915503,18.856181v185.378061c0,54.742277,31.053296,86.138064,85.197385,86.138064h19.290141c13.350875,0,19.32704-8.525351,19.32704-16.974825,0-8.448434-5.976165-16.973786-19.32704-16.973786Z"/>
  <path style="fill: #fff;" d="M2420.766602,117.868848c-25.524414,0-49.605469,7.006836-70.047852,20.103027,1.817383-27.925781,8.696289-48.05957,20.876953-61.279785,12.884766-13.983887,32.727539-20.781738,60.662109-20.781738,17.407227,0,29.193359,3.551758,37.799805,6.145508,5.814453,1.751953,10.40625,3.13623,15.241211,3.13623,13.710938,0,24.049805-10.339355,24.049805-24.049805,0-10.503418-5.587891-18.649414-15.743164-22.960449-6.644531-2.988281-29.918945-10.371582-61.789062-10.371582-42.021484,0-74.774414,12.413574-97.349609,36.895508-22.924805,24.861328-34.548828,61.583496-34.548828,109.146484v46.852539c0,43.819824,10.241211,78.430176,30.438477,102.869629,19.996094,24.195801,49.119141,36.984863,84.22168,36.984863,32.023438,0,60.922852-11.054199,81.373047-31.126465,21.198242-20.805664,32.40332-49.538574,32.40332-83.092285,0-62.852539-45.24707-108.47168-107.587891-108.47168ZM2459.383789,276.656446c-11.240234,10.19043-27.152344,15.802734-44.805664,15.802734-20.639648,0-36.560547-7.646484-47.319336-22.727539-10.935547-15.327637-16.810547-38.604492-17.025391-67.38916,15.55957-22.845703,40.513672-36.374023,67.438477-36.374023,37.511719,0,60.814453,23.641602,60.814453,61.698242,0,20.719238-6.605469,37.659668-19.102539,48.989746Z"/>
</svg>
