<?xml version="1.0" encoding="UTF-8"?>
<svg id="Layer_1" xmlns="http://www.w3.org/2000/svg" viewBox="0 0 1920 720">
  <defs>
    <style>
      .cls-1 {
        fill: none;
        stroke: #e58129;
        stroke-miterlimit: 10;
        stroke-width: 34px;
      }

      .cls-2 {
        fill: #fff;
      }
    </style>
  </defs>
  <g>
    <path class="cls-2" d="M292.9,366.45l-9.62,27.82-18.84,70.65-51.5-146.01h-32.03l-49.3,146.01-19.78-70.96-27.32-75.04H29.57l81.95,219.48h40.19l45.53-122.77,47.1,122.77h40.19l49.39-135.93c-15.91-9.24-29.85-21.52-41.03-36.02Z"/>
    <path class="cls-2" d="M382.19,419.68v119.03h48.67v-119.69c-8.5,1.6-17.26,2.44-26.22,2.44-7.64,0-15.14-.62-22.45-1.79Z"/>
    <path class="cls-2" d="M520.66,360.59c-12.61,18.23-29.39,33.34-48.98,43.95v134.17h158.88v-44.9h-109.9v-133.22Z"/>
    <path class="cls-2" d="M735.12,318.92h-90.12v219.8h90.12c76.93,0,109.27-54.01,109.27-111.47s-33.6-108.33-109.27-108.33ZM735.12,493.5h-41.76v-130.31h41.76c45.84,0,60.92,31.71,60.92,63.43s-13.19,66.88-60.92,66.88Z"/>
  </g>
  <g>
    <path class="cls-2" d="M1042.33,538.37h-167.36v-219.8h162.96v44.9h-114.92v42.39h108.33v43.02h-108.33v44.27h119.32v45.21Z"/>
    <path class="cls-2" d="M1227.58,500.69h-112.72l-16.01,37.68h-52.75l98.59-219.8h53.38l98.59,219.8h-53.07l-16.01-37.68ZM1171.38,368.19l-37.99,89.18h75.67l-37.68-89.18Z"/>
    <path class="cls-2" d="M1504.84,538.37h-54.32l-56.21-72.22h-35.48v72.22h-48.98v-219.8h104.25c53.07,0,81.32,35.48,81.32,74.1-.31,28.57-8.79,54.01-50.87,69.08l60.29,72.85v3.77ZM1358.83,360.65v64.05h55.89c22.61,0,32.34-16.96,32.34-30.77-.31-15.07-10.05-33.28-32.97-33.28h-55.26Z"/>
    <path class="cls-2" d="M1564.5,362.22h-66.88v-43.65h182.43v43.65h-66.88v176.15h-48.67v-176.15Z"/>
    <path class="cls-2" d="M1842.07,538.69v-86.98h-98.28v86.98h-48.98v-219.8h48.98v87.92h98.28v-87.92h48.35v219.8h-48.35Z"/>
  </g>
  <circle class="cls-1" cx="403.13" cy="278.99" r="97.7"/>
</svg>